<?xml version="1.0" encoding="utf-8"?>
<!-- Generator: Adobe Illustrator 22.1.0, SVG Export Plug-In . SVG Version: 6.00 Build 0)  -->
<svg version="1.1" id="Layer_1" xmlns="http://www.w3.org/2000/svg" xmlns:xlink="http://www.w3.org/1999/xlink" x="0px" y="0px"
	 viewBox="0 0 216 144" style="enable-background:new 0 0 216 144;" xml:space="preserve">
<g>
	<path d="M48.7,123.8c0-12.4,0-24.8,0-37.3c0.2,0,0.4,0,0.6,0c4.4,0,8.8,0,13.1,0c4.8,0,9,3.4,10.1,8.2c0.8,3.5,0,6.7-2.4,9.4
		c-0.3,0.3-0.4,0.6,0,1c2.4,2.3,3.3,5.1,3.1,8.4c-0.2,2.3-0.8,4.5-2.2,6.3c-2,2.6-4.7,3.9-7.9,4c-4.7,0.1-9.5,0-14.3,0
		C48.9,123.9,48.8,123.9,48.7,123.8z M56,116.3c0.2,0,0.3,0,0.4,0c1.9,0,3.8,0,5.6,0c1.6,0,2.6-0.8,3.3-2.1c1.3-2.6-0.4-6.1-3.7-5.9
		c-1.7,0.1-3.4,0-5.1,0c-0.2,0-0.4,0-0.6,0C56,111.1,56,113.7,56,116.3z M56,100.8c2.2,0,4.4,0.1,6.6,0c1.7-0.1,3-1.8,3-3.5
		c0-1.8-1.7-3.3-3.7-3.3c-1.8,0-3.7,0-5.5,0c-0.1,0-0.3,0-0.4,0C56,96.3,56,98.5,56,100.8z"/>
	<path d="M156.7,123.9c-2.5,0-5,0-7.5,0c0-12.4,0-24.8,0-37.3c0.2,0,0.3,0,0.5,0c4.2,0,8.4,0,12.6,0c5.2,0,10.1,4.2,10.7,9.4
		c0.4,2.6,0.1,5.2-1.4,7.5c-1.1,1.6-2.5,2.8-4.1,3.8c-0.2,0.1-0.4,0.3-0.6,0.4c0,0,0,0.1-0.1,0.1c2.3,5.3,4.6,10.7,6.9,16.1
		c-0.2,0-0.4,0-0.5,0c-2.4,0-4.9,0-7.3,0c-0.4,0-0.6-0.1-0.7-0.5c-1.9-4.7-3.8-9.3-5.8-14c-0.1-0.4-0.3-0.5-0.7-0.5
		c-0.7,0-1.3,0-2.1,0C156.7,113.9,156.7,118.9,156.7,123.9z M156.7,101.4c1.9,0,3.8,0.1,5.6,0c1.3,0,2.2-0.7,2.9-1.8
		c1.5-2.5-0.3-5.6-3.3-5.6c-1.6,0-3.2,0-4.8,0c-0.1,0-0.2,0-0.4,0C156.7,96.5,156.7,98.9,156.7,101.4z"/>
	<path d="M74.5,39.9c-0.2,2.7-0.2,5.5-0.7,8.2c-0.8,4.9-3.4,8.7-8.3,10.3c-7.4,2.4-14.9-1.3-16.7-9.4c-0.5-2.1-0.5-4.4-0.7-6.6
		c-0.2-3.2,0-6.5,0.3-9.7c0.5-4.2,2.2-7.7,5.8-10.1c2.5-1.7,5.3-2.2,8.3-1.9c6.1,0.5,10.5,5.2,11.3,11.1
		C74.2,34.4,74.3,37.1,74.5,39.9z M66.7,39.8C66.6,39.8,66.7,39.8,66.7,39.8c0-1.6,0-3.2,0-4.9c0-0.8-0.1-1.5-0.2-2.3
		c-0.2-2.4-1.6-4.1-3.9-4.5c-0.5-0.1-1.1-0.1-1.6-0.1c-2.6,0.1-4.3,1.5-4.8,3.9c-0.1,0.7-0.2,1.4-0.2,2.1c-0.3,3.3-0.3,6.6-0.1,10
		c0.1,1.1,0.2,2.3,0.3,3.4c0.3,2.1,1.8,4,5,4c3.2,0,5.1-1.6,5.4-4.7C66.6,44.5,66.5,42.1,66.7,39.8z"/>
	<path d="M148.5,21.1c7.1,0,14.3,0,21.4,0c0,2.5,0,4.9,0,7.5c-4.6,0-9.3,0-13.9,0c0,2.5,0,4.9,0,7.4c4.5,0,9,0,13.5,0
		c0,2.5,0,5,0,7.5c-4.5,0-9,0-13.5,0c0,2.5,0,4.9,0,7.4c4.7,0,9.4,0,14.1,0c0,2.5,0,5,0,7.5c-7.2,0-14.4,0-21.6,0
		C148.5,46,148.5,33.6,148.5,21.1z"/>
	<path d="M105.6,86.5c0,2.5,0,4.9,0,7.4c-4.6,0-9.2,0-13.9,0c0,2.5,0,4.9,0,7.5c4.5,0,9,0,13.5,0c0,2.5,0,5,0,7.5c-4.5,0-9,0-13.5,0
		c0,2.5,0,4.9,0,7.4c4.7,0,9.4,0,14.2,0c0,2.5,0,5,0,7.5c-7.2,0-14.4,0-21.7,0c0-12.4,0-24.8,0-37.3C91.3,86.5,98.4,86.5,105.6,86.5
		z"/>
	<path d="M116.7,86.5c7.1,0,14.3,0,21.4,0c0,2.5,0,4.9,0,7.4c-4.6,0-9.2,0-13.9,0c0,2.5,0,5,0,7.5c4.5,0,9,0,13.5,0c0,2.5,0,5,0,7.5
		c-4.5,0-9,0-13.5,0c0,2.5,0,4.9,0,7.4c4.7,0,9.4,0,14.1,0c0,2.5,0,5,0,7.5c-7.2,0-14.4,0-21.6,0C116.7,111.4,116.7,99,116.7,86.5z"
		/>
	<path d="M181,21.1c7.1,0,14.3,0,21.4,0c0,2.5,0,4.9,0,7.5c-4.6,0-9.2,0-13.9,0c0,2.5,0,4.9,0,7.4c4.5,0,9,0,13.5,0c0,2.5,0,5,0,7.5
		c-4.5,0-9,0-13.5,0c0,2.5,0,4.9,0,7.4c4.7,0,9.4,0,14.1,0c0,2.5,0,5,0,7.5c-7.2,0-14.4,0-21.6,0C181,46,181,33.6,181,21.1z"/>
	<path d="M31.4,47.6c2.4,0.7,4.7,1.5,7.2,2.2c-0.1,0.3-0.1,0.6-0.2,0.9c-1.6,4.6-4.9,7.3-9.6,8.1c-3.1,0.5-6.1,0.2-8.8-1.4
		c-3.5-2-5.4-5.1-6.2-9c-0.7-3.7-0.8-7.5-0.6-11.2c0.1-2.1,0.2-4.2,0.6-6.2c1-5.1,3.9-8.9,9.2-10.2c4.6-1.1,8.9-0.3,12.4,3
		c1.6,1.5,2.6,3.3,3.2,5.4c0,0.1,0,0.2,0.1,0.4c-2.4,0.7-4.8,1.5-7.2,2.2c-0.1-0.2-0.1-0.3-0.2-0.5c-0.7-2.1-2.4-3.3-4.7-3.4
		c-0.5,0-1.1,0-1.6,0.1c-2.3,0.4-3.7,2-3.9,4.6c-0.5,4.7-0.5,9.3,0,14c0.1,0.9,0.4,1.7,0.8,2.5c1,1.8,2.6,2.2,4.5,2.2
		c2.9,0,4.5-1.7,5-3.7C31.3,47.8,31.4,47.7,31.4,47.6z"/>
	<path d="M124.3,58.4c-2.6,0-5,0-7.5,0c0-12.4,0-24.8,0-37.3c6.9,0,13.9,0,20.8,0c0,2.5,0,4.9,0,7.5c-4.4,0-8.8,0-13.3,0
		c0,2.5,0,4.9,0,7.4c4.2,0,8.4,0,12.7,0c0,2.5,0,5,0,7.5c-4.2,0-8.4,0-12.7,0C124.3,48.5,124.3,53.5,124.3,58.4z"/>
	<path d="M85.2,58.4c0-12.5,0-24.9,0-37.3c6.9,0,13.8,0,20.8,0c0,2.5,0,4.9,0,7.5c-4.4,0-8.8,0-13.3,0c0,2.5,0,4.9,0,7.4
		c4.2,0,8.5,0,12.7,0c0,2.5,0,5,0,7.5c-4.2,0-8.5,0-12.8,0c0,5,0,9.9,0,14.9C90.1,58.4,87.7,58.4,85.2,58.4z"/>
</g>
</svg>
