<svg xmlns="http://www.w3.org/2000/svg" viewBox="0 0 111.74 122.61"><title>halfcourt_logo</title><path d="M4.08,59.49V4.63c0-1.22,0-1.22,1.24-1.22H62c1.2,0,1.2,0,1.2,1.19V45.82c0,1.09,0,1.09-1.11,1.09-1.79,0-1.79,0-1.79-1.82q0-18.93,0-37.84c0-.87-.23-1.08-1.08-1.08q-25.61,0-51.22,0C7.17,6.17,7,6.46,7,7.28Q7,59.47,7,111.65c0,.87.23,1.08,1.09,1.07,6.54,0,13.09,0,19.64,0,.78,0,1.08.16,1.05,1-.06,2,0,2-2,2H5.23c-1.15,0-1.15,0-1.15-1.13Z"/><path d="M83.55,101.11c-7.37,0-14.73,0-22.1,0-.8,0-1.11-.13-1.1-1q0-17.06,0-34.12c0-.78.21-1,1-1,1.83.05,1.83,0,1.83,1.84V97c0,1.21,0,1.21,1.21,1.21h38.35c1.28,0,1.25,0,1.18-1.27a40.64,40.64,0,0,0-8-22.12,41.7,41.7,0,0,0-27.77-17,38.88,38.88,0,0,0-7-.48c-.62,0-.84-.17-.82-.82.09-2.34-.44-2,2.06-2a45,45,0,0,1,44.47,45.65c0,.79-.3.91-1,.91C98.45,101.1,91,101.11,83.55,101.11Z"/><path d="M73.55,114.16c0-1.46,0-2.93,0-4.39,0-.59.18-.8.78-.78,1.41,0,2.82,0,4.22,0a3.33,3.33,0,0,1,3.21,2.08,3.51,3.51,0,0,1-.65,4.08,1,1,0,0,0-.16,1.43c.41.67.74,1.39,1.13,2.07.3.53.13.67-.43.68-2,.07-2,.12-2.93-1.82a1.81,1.81,0,0,0-2.14-1.23c-.46.06-.67.18-.66.64s0,1.13,0,1.69-.15.72-.68.72c-2.06,0-1.64.13-1.67-1.55C73.54,116.58,73.55,115.37,73.55,114.16Z"/><path d="M15,19.24c0-1.43,0-2.87,0-4.31,0-.66.21-.8.82-.79,1.68,0,1.68,0,1.68,1.7,0,.51,0,1,0,1.52s.21.78.77.75a18.73,18.73,0,0,1,2.12,0c.68,0,1-.16.92-.89s0-1.63,0-2.45c0-.48.15-.62.63-.64,1.85-.05,1.85-.07,1.85,1.77,0,2.65,0,5.3,0,8,0,.56-.16.72-.71.72-1.78,0-1.78,0-1.78-1.77,0-2.18,0-2.18-2.14-2.18-1.64,0-1.64,0-1.64,1.64v.51c0,1.85,0,1.83-1.83,1.8-.52,0-.67-.18-.66-.68C15,22.35,15,20.8,15,19.24Z"/><path d="M57.44,114.18a5.15,5.15,0,1,1-5-5.18A5,5,0,0,1,57.44,114.18Z"/><path d="M36.63,24.57a1.22,1.22,0,0,1-1.63-1,.65.65,0,0,0-.75-.51c-1.3,0-2.59,0-3.89,0a.63.63,0,0,0-.73.53c-.21.89-.78,1.06-1.62,1-1.62-.07-1.62,0-1-1.47,1.27-2.76,2.59-5.5,3.79-8.29.42-1,1.12-.59,1.76-.67a1,1,0,0,1,1.15.68c1.31,2.93,2.68,5.83,4,8.74.46,1,.45,1-.66,1Z"/><path d="M70.08,112.54a24.17,24.17,0,0,1-.12,3.1,4.86,4.86,0,0,1-9.57-1c0-1.66,0-3.33,0-5,0-.51.17-.7.68-.69,2.14,0,1.71-.2,1.74,1.65,0,1.27,0,2.54,0,3.81a2.43,2.43,0,1,0,4.86-.06c0-1.52,0-3,0-4.56,0-.61.13-.87.79-.85,1.94.06,1.61-.19,1.64,1.6C70.09,111.17,70.08,111.76,70.08,112.54Z"/><path d="M45.59,37.32c0-1.49,0-3,0-4.48,0-.55.18-.73.73-.72q2.74,0,5.49,0c.52,0,.69.18.68.69-.06,2.2.3,1.76-1.75,1.81-.65,0-1.29,0-1.94,0s-.72.19-.73.74.17.8.77.78c1,0,2,0,3,0,.5,0,.71.13.7.66-.06,2.24.27,1.76-1.73,1.84-.86,0-2-.38-2.52.17s-.13,1.61-.14,2.45c0,1.29,0,1.3-1.3,1.29s-1.18.22-1.19-1.22S45.59,38.65,45.59,37.32Z"/><path d="M36.3,113.39a4.58,4.58,0,0,1,2.77-3.85,5.66,5.66,0,0,1,5.71.44.52.52,0,0,1,.19.84c-.06.09-.1.2-.16.3-.24.41-.38,1-.74,1.19s-.72-.4-1.13-.57a3,3,0,0,0-3.27.28,2.63,2.63,0,0,0-.9,2.81c.34,1.52,1.73,2.29,3.48,2,1.31-.25,1.26-.23,1.61,1,.2.75,0,1-.74,1.23C39.5,120.06,36.3,117.75,36.3,113.39Z"/><path d="M89.35,109c1.35,0,2.71,0,4.06,0,.54,0,.76.15.75.72,0,2.1.2,1.67-1.61,1.69-2,0-2,0-2,2,0,1.69,0,3.38,0,5.07,0,.6-.12.88-.79.87-1.91,0-1.61.15-1.63-1.63s0-3.67,0-5.5c0-.69-.22-.88-.87-.83s-1.46,0-2.2,0c-.27,0-.51,0-.51-.4,0-.53,0-1.07,0-1.6s.39-.41.69-.41C86.64,109,88,109,89.35,109Z"/><path d="M38.58,36.13c0,1.07,0,2.14,0,3.21,0,.54.14.75.71.73,1,0,2.08,0,3.13,0,.53,0,.66.18.67.68.05,1.8.06,1.8-1.74,1.8-1.53,0-3.05,0-4.57,0-.5,0-.69-.13-.69-.66,0-3,0-6,0-9,0-.49.13-.71.66-.7,2.26.05,1.79-.26,1.84,1.72C38.6,34.6,38.58,35.37,38.58,36.13Z"/><path d="M42,62c0,.31-.21.37-.38.46a41.82,41.82,0,0,0-5.73,3.75c-.3.23-.48.24-.76-.07-1.6-1.81-1.61-1.8.36-3.21,1.47-1.06,3-2,4.57-2.9.59-.35.87-.24,1.12.36S41.78,61.52,42,62Z"/><path d="M23.91,80.85l-.19.42a40.71,40.71,0,0,0-2.38,6.13c-.14.47-.33.69-.82.48a2.77,2.77,0,0,0-.49-.15c-1.69-.47-1.69-.47-1.15-2.11C19.49,83.8,20.22,82,21,80.28c.32-.71.62-1,1.34-.47a8.09,8.09,0,0,0,1.28.65C23.76,80.54,24,80.57,23.91,80.85Z"/><path d="M31.59,70.05c-.13.15-.23.28-.35.4A39.53,39.53,0,0,0,27,75.63c-.29.42-.53.45-1,.18-1.9-1.19-1.9-1.18-.57-3a52.24,52.24,0,0,1,3.64-4.34c.35-.38.58-.44.94,0s.79.79,1.19,1.19A4.88,4.88,0,0,1,31.59,70.05Z"/><path d="M53.76,55.24c.16-.05.31.13.38.41,0,.05,0,.11,0,.16.45,2.16.45,2.15-1.72,2.62a32.92,32.92,0,0,0-4.77,1.38c-.63.25-.88.08-1.1-.53-.7-1.9-.73-1.9,1.23-2.54A42.21,42.21,0,0,1,53.76,55.24Z"/><path d="M16.67,98.6c0-1.69.24-3.36.38-5,.05-.65.28-.89,1-.75,1.86.36,1.91.32,1.7,2.2a41.45,41.45,0,0,0-.23,5.22c0,.66-.2.87-.87.87-2,0-2,0-2-2Z"/><path d="M77.5,111.41a10.07,10.07,0,0,1,1.1,0,1.12,1.12,0,0,1,1.05,1.12c0,.28,0,.65-.23.75s-.35-.29-.47-.48-.26-.42-.52-.26c-.6.38-1.39.47-1.78,1.15a.37.37,0,0,1-.42.19.31.31,0,0,1-.29-.35c0-.59,0-1.18,0-1.77,0-.28.21-.36.47-.36S77.14,111.41,77.5,111.41Z" style="fill:#fff"/><path d="M49.59,114.14a2.58,2.58,0,0,1,2.67-2.73A2.65,2.65,0,0,1,55,114.15a2.7,2.7,0,0,1-2.71,2.76A2.63,2.63,0,0,1,49.59,114.14Z" style="fill:#fff"/><path d="M32.32,17.77c.4.86.72,1.54,1,2.22.17.37.12.54-.35.57-2.09.17-2.09.18-1.21-1.72Z" style="fill:#fff"/></svg>