<?xml version="1.0" encoding="utf-8"?>
<!-- Generator: Adobe Illustrator 22.1.0, SVG Export Plug-In . SVG Version: 6.00 Build 0)  -->
<svg version="1.1" id="Layer_1" xmlns="http://www.w3.org/2000/svg" xmlns:xlink="http://www.w3.org/1999/xlink" x="0px" y="0px"
	 viewBox="0 0 216 63.3" style="enable-background:new 0 0 216 63.3;" xml:space="preserve">
<g>
	<path d="M166.1,55.6c-30.3,0-60.6,0-90.9,0c0-6.3,0-12.5,0-18.9c-21.8,0-43.5,0-65.2,0c0-0.3,0-0.4,0-0.6c0-7.5,0-15,0-22.4
		c0-0.3,0.1-0.6,0.2-0.9c1.2-2.6,3.2-3.8,6-3.8C79.6,9,143,9,206.4,9c0,7.7,0,15.3,0,23c-0.1,0.1-0.1,0.1-0.2,0.2
		c-1.3,3.4-3,4.5-6.5,4.5c-10.8,0-21.5,0-32.3,0c-0.4,0-0.8,0-1.3,0C166.1,43.1,166.1,49.4,166.1,55.6z M164.4,36.8
		c-29.2,0-58.3,0-87.5,0c0,5.7,0,11.4,0,17c29.2,0,58.3,0,87.5,0C164.4,48.2,164.4,42.5,164.4,36.8z M11.4,35c21.3,0,42.5,0,63.7,0
		c0-8.1,0-16.2,0-24.3c-0.4,0-0.8,0-1.1,0c-19.3,0-38.6,0-57.9,0c-2.5,0-4.7,1.8-4.7,4.7c0.1,6.2,0,12.5,0,18.7
		C11.4,34.4,11.4,34.7,11.4,35z M164.6,23c0-4.3-3.6-7.8-8.1-7.8c-4.5,0-8.2,3.5-8.2,7.8c0,4.2,3.6,7.7,8.1,7.7
		C160.9,30.7,164.6,27.3,164.6,23z M170.8,30.1c0-2.8,0-5.5,0-8.3c0.2,0.1,0.3,0.2,0.3,0.3c2.1,2.5,4.1,4.9,6.2,7.4
		c0.2,0.3,0.5,0.6,0.8,0.6c1.2,0.1,2.5,0,3.7,0c0-4.9,0-9.7,0-14.4c-0.9,0-1.7,0-2.6,0c0,2.8,0,5.4,0,8.3c-2.3-2.7-4.4-5.3-6.6-7.8
		c-0.2-0.2-0.5-0.6-0.7-0.6c-1.2-0.1-2.5,0-3.7,0c0,4.9,0,9.6,0,14.4C169.1,30.1,169.8,30.1,170.8,30.1z M186.6,26.1
		c-0.3,0.4-0.8,1-1.2,1.5c2.4,3.2,8.5,4.1,11.8,1.7c2.4-1.7,2.5-4.7,0.1-6.5c-1.1-0.8-2.3-1.3-3.5-1.9c-0.8-0.4-1.6-0.7-2.4-1.2
		c-0.7-0.5-0.5-1.2,0.3-1.4c0.5-0.2,1.2-0.2,1.7-0.1c1.3,0.3,2.5,0.7,3.9,1.2c0.3-0.5,0.7-1.1,1.1-1.8c-1.4-1.1-2.9-1.8-4.5-2.1
		c-2.1-0.5-4.2-0.4-6.1,0.8c-2.6,1.7-2.7,4.9-0.2,6.7c0.9,0.6,1.9,1.1,2.9,1.6c0.8,0.4,1.6,0.6,2.3,1.1c0.3,0.2,0.8,0.8,0.7,1.1
		c-0.1,0.4-0.6,0.8-1,0.9c-0.6,0.2-1.3,0.2-1.9,0.1C189.4,27.3,188.1,26.7,186.6,26.1z M144.7,17.5c-1.4-1.1-2.8-1.7-4.4-2.1
		c-2-0.4-4-0.4-5.9,0.6c-2.9,1.6-3.2,5.1-0.4,7c0.9,0.6,1.9,1,2.9,1.5c0.8,0.4,1.6,0.7,2.3,1.1c0.3,0.2,0.6,0.7,0.6,1
		c-0.1,0.3-0.5,0.8-0.9,0.9c-0.6,0.2-1.3,0.3-1.9,0.1c-1.4-0.4-2.7-1-4.2-1.6c-0.3,0.4-0.8,0.9-1.3,1.6c0.5,0.4,0.9,0.8,1.4,1.1
		c3.2,2.4,8,2.5,10.7,0.3c2.1-1.7,2.3-4.5,0.1-6.2c-1.1-0.9-2.5-1.4-3.7-2.1c-0.7-0.4-1.5-0.6-2.1-1.1c-0.3-0.2-0.6-0.7-0.5-1
		c0.1-0.3,0.5-0.6,0.9-0.7c0.5-0.1,1-0.1,1.5,0c1.2,0.3,2.5,0.7,3.8,1.2C143.9,18.8,144.2,18.2,144.7,17.5z M93.5,19.3
		c0.3-0.5,0.7-1.1,1.1-1.7c-1.4-1.1-2.8-1.7-4.4-2.1c-2-0.4-4-0.4-5.9,0.6c-2.9,1.6-3.2,5.1-0.4,7c0.9,0.6,1.9,1,2.9,1.5
		c0.8,0.4,1.7,0.7,2.4,1.1c0.9,0.6,0.8,1.5-0.2,1.9c-0.6,0.2-1.4,0.3-2,0.1c-1.2-0.4-2.4-0.9-3.5-1.4c-0.5-0.2-0.7-0.3-1,0.2
		c-0.3,0.4-0.6,0.8-1,1.3c0.5,0.4,0.9,0.8,1.3,1.1c3.1,2.4,8,2.5,10.7,0.4c2.2-1.7,2.3-4.5,0.1-6.2c-1.1-0.9-2.5-1.4-3.7-2.1
		c-0.7-0.4-1.5-0.7-2.2-1.1c-0.8-0.5-0.6-1.3,0.3-1.5c0.5-0.1,1.1-0.2,1.6-0.1C90.8,18.4,92.1,18.9,93.5,19.3z M113.4,30.1
		c2.4,0.4,2.6,0.3,3.7-1.7c0.1-0.3,0.6-0.5,0.9-0.5c1.5-0.1,3,0.1,4.5-0.1c1.1-0.1,1.8,0.3,2.1,1.4c0.1,0.4,0.4,0.9,0.7,0.9
		c1.7,0.1,3.3,0,5.1,0c-0.2-0.4-0.2-0.6-0.4-0.9c-1.7-3.7-3.6-7.4-5.2-11.2c-0.8-1.9-1.8-2.8-3.9-2.5c-0.6,0.1-1,0.2-1.2,0.8
		c-2,4.2-3.9,8.4-5.9,12.6C113.7,29.4,113.5,29.7,113.4,30.1z M111,15.8c-4,0-7.9,0-11.9,0c0,4.8,0,9.6,0,14.3c4,0,7.9,0,11.8,0
		c0-0.9,0-1.7,0-2.6c-2.4,0-4.7,0-6.9,0c0-1.3,0-2.6,0-4c1.6,0,3.2,0,4.7,0c0-0.9,0-1.7,0-2.6c-1.6,0-3.2,0-4.7,0c0-1,0-1.8,0-2.8
		c2.4,0,4.7,0,7,0C111,17.4,111,16.6,111,15.8z"/>
	<path d="M112.8,49.1c-1.3,0.2-1.3,0.2-1.3-1c0-2.2,0-4.3,0-6.6c2.2,0,4.3-0.3,6.3,0.2c1,0.3,1.4,1,1.4,1.9c0,0.9-0.3,1.7-1.2,2.1
		c-0.2,0.1-0.5,0.2-0.8,0.3c0.7,1,1.4,2,2.1,3c-1,0.3-1.7,0.2-2.1-0.7c-0.2-0.3-0.5-0.6-0.6-0.9c-0.6-1.5-1.8-1.6-3.1-1.4
		c-0.2,0-0.5,0.4-0.6,0.6C112.7,47.5,112.8,48.3,112.8,49.1z M112.8,44.7c1.4,0,2.8,0.1,4.1,0c0.3,0,0.7-0.6,0.8-0.9
		c0.1-0.2-0.4-0.7-0.6-0.8c-1.4-0.1-2.9,0-4.4,0C112.8,43.6,112.8,44.1,112.8,44.7z"/>
	<path d="M89.7,44.3c-0.9,1.3-1.7,2.5-2.6,3.8c-0.9-1.4-1.8-2.6-2.6-3.9c-0.1,0-0.2,0.1-0.3,0.1c0,1.6,0,3.2,0,4.9
		c-0.5,0-0.8,0-1.3,0c0-2.5,0-5,0-7.5c0.7-0.3,1.3-0.2,1.7,0.6c0.8,1.2,1.6,2.4,2.5,3.7c0.9-1.3,1.7-2.5,2.4-3.7
		c0.4-0.7,0.9-0.9,1.7-0.6c0,2.5,0,5,0,7.5c-1.1,0.3-1.3,0.2-1.3-0.8c0-1.3,0-2.6,0-3.9C89.9,44.3,89.8,44.3,89.7,44.3z"/>
	<path d="M145.6,47.9c0.3,1,0,1.4-0.9,1.3c-1.7-0.1-3.3,0-5,0c-0.7,0-1-0.1-1-0.9c0.1-2,0-4,0-5.9c0-0.4,0-0.9,0.6-0.9
		c1.9,0,3.9,0,5.8,0c0.1,0,0.2,0.1,0.4,0.1c0,0.4,0,0.7,0,1.2c-1.8,0-3.6,0-5.4,0c0,0.6,0,1.1,0,1.7c1,0,1.9,0,2.9,0
		c0,0.5,0,0.8,0,1.4c-0.9,0-1.9,0-2.8,0c-0.1,0.2-0.2,0.3-0.2,0.3c-0.1,1.7-0.1,1.7,1.6,1.7C143,47.9,144.3,47.9,145.6,47.9z"/>
	<path d="M106,49.1c-1,0.4-1.7,0.1-2-0.8c-0.2-0.6-0.6-0.9-1.3-0.8c-1,0.1-1.9,0.1-2.9,0c-0.7,0-1.2,0.1-1.5,0.9
		c-0.3,0.9-0.9,1.1-1.9,0.8c0.8-1.6,1.7-3.1,2.5-4.6c0.5-0.8,0.9-1.7,1.4-2.5c0.4-0.7,1.4-0.7,1.8,0C103.4,44.3,104.7,46.7,106,49.1
		z M101.2,43.1c-0.6,1.1-1.1,1.9-1.6,3c1.2,0,2.1,0,3.2,0C102.3,45,101.8,44.1,101.2,43.1z"/>
	<path d="M132.9,49.2c-1,0.2-1.6,0.1-2.1-0.7c-0.7-1.1-1.5-2.1-2.2-3.1c-2,0.7-1.5,2.3-1.6,3.7c-1.1,0.4-1.3,0.2-1.3-0.8
		c0-1.9,0-3.8,0-5.7c0-1.1,0.1-1.1,1.3-0.9c0,1,0,2,0,3.3c1.2-1.1,2.2-1.9,3.1-2.8c0.6-0.6,1.3-0.7,2.3-0.5
		c-0.8,0.8-1.6,1.5-2.3,2.2c-0.5,0.4-0.5,0.7-0.1,1.2C130.9,46.3,131.9,47.7,132.9,49.2z"/>
	<path d="M151.2,41.6c2.4,0,4.8,0,7.1,0c0.2,1.3,0.2,1.3-1,1.3c-0.5,0-1.1,0-1.8,0c0,1.5,0,3,0,4.4c0,0.4,0.1,0.9,0,1.2
		c-0.1,0.3-0.4,0.6-0.7,0.7c-0.5,0.2-0.7-0.2-0.7-0.7c0-1.6,0-3.1,0-4.7c0-0.3,0-0.6,0-0.9c-1,0-1.9,0-2.8,0
		C151.2,42.4,151.2,42,151.2,41.6z"/>
	<path d="M49,15.8c1.5,0,2.9,0,4.3,0c0.2,0,0.5,0.4,0.6,0.7c0.6,2.3,1.1,4.6,1.8,6.9c0.1-0.4,0.3-0.8,0.4-1.2c0.5-1.9,1-3.8,1.5-5.7
		c0.1-0.7,0.4-0.8,1-0.8c0.4,0,0.8,0,1.1,0c2.1,0,2.1,0,2.8,2.1c0.6,1.7,1.1,3.3,1.7,5c0.1,0.3,0.2,0.6,0.4,1.1
		c0.6-2,1.2-3.8,1.7-5.5c0-0.2,0.1-0.3,0.1-0.5c0.7-2.4,0.9-2.5,3.5-2c-0.7,2.7-1.4,5.5-2.2,8.2c-0.5,1.8-1,3.7-1.5,5.5
		c-0.1,0.5-0.3,0.7-0.9,0.7c-1.1,0-2.2,0-3.4,0c-0.8-3-1.6-5.9-2.5-8.9c-0.1,0-0.2,0-0.2,0c-0.8,2.9-1.6,5.9-2.4,8.9
		c-1.4,0-2.7,0-4.1,0C51.5,25.5,50.3,20.7,49,15.8z"/>
	<path d="M28.3,23.8c0-2.7,0-5.3,0-8c1,0,1.8,0,2.7,0c0,4.8,0,9.6,0,14.5c-1.2,0-2.5,0-3.7,0c-0.2,0-0.5-0.3-0.7-0.5
		c-2-2.4-4-4.7-6-7.1c-0.1-0.2-0.3-0.3-0.6-0.6c0,2.8,0,5.5,0,8.2c-0.9,0-1.8,0-2.6,0c0-4.8,0-9.6,0-14.5c1.2,0,2.4,0,3.6,0
		c0.3,0,0.5,0.3,0.7,0.5c2,2.3,3.9,4.7,5.9,7c0.2,0.2,0.3,0.4,0.5,0.6C28,23.9,28.2,23.8,28.3,23.8z"/>
	<path d="M46.5,27.6c0,1,0,1.8,0,2.7c-4,0-7.9,0-11.9,0c0-4.8,0-9.6,0-14.5c3.9,0,7.9,0,11.9,0c0,0.8,0,1.7,0,2.6
		c-2.3,0-4.6,0-6.9,0c0,0.9,0,1.7,0,2.6c1.5,0,3.1,0,4.7,0c0,0.9,0,1.8,0,2.7c-1.6,0-3.1,0-4.7,0c0,1.3,0,2.5,0,3.9
		C41.8,27.6,44.1,27.6,46.5,27.6z"/>
	<path d="M159.6,22.9c-0.5,1.3-0.7,2.6-1.3,3.6c-1,1.7-2.7,1.6-3.8,0c-1.4-2-1.4-5.4,0.1-7.4c1-1.4,2.7-1.5,3.6,0
		C158.9,20.3,159.2,21.6,159.6,22.9z"/>
	<path d="M122.7,25.2c-1.4,0-2.7,0-4.1,0c0.7-1.5,1.3-2.9,2.1-4.4C121.4,22.3,122,23.7,122.7,25.2z"/>
</g>
</svg>
