<?xml version="1.0" encoding="utf-8"?>
<!-- Generator: Adobe Illustrator 22.1.0, SVG Export Plug-In . SVG Version: 6.00 Build 0)  -->
<svg version="1.1" id="Layer_1" xmlns="http://www.w3.org/2000/svg" xmlns:xlink="http://www.w3.org/1999/xlink" x="0px" y="0px"
	 viewBox="0 0 216 86.8" style="enable-background:new 0 0 216 86.8;" xml:space="preserve">
<g>
	<path d="M7,7.8c0.7-0.1,1.4-0.2,2.2-0.2c8.1,0,16.2,0,24.3,0c6,0,9.8,3,10.8,8.9c1,5.9,0.9,11.8,0.1,17.8c-0.4,2.7-1.9,4.9-3.9,6.2
		c1.4,1.5,3.1,2.9,3.9,4.6c0.9,2,1.3,4.4,1.4,6.6c0.2,5.7,0.1,11.3,0.1,17c0,0.6,0,1.2,0,2c2.2,0,4.2,0,6.3,0c0,2.4,0,4.7,0,7.1
		c-4.9,0-9.7,0-14.8,0c0-0.7,0-1.3,0-1.9c0-8,0-16,0-23.9c0-1.4-0.2-2.9-0.6-4.3c-0.4-1.8-1.7-2.8-3.5-2.8c-3.4-0.1-6.8,0-10.5,0
		c0,11,0,21.9,0,33c-5.3,0-10.5,0-15.6,0c0-2.4,0-4.7,0-7.1c2.3,0,4.7,0,7,0c0-18.8,0-37.3,0-55.9c-2.4,0-4.7,0-7,0
		C7,12.6,7,10.2,7,7.8z M22.5,15.8c0,7.1,0,13.9,0,20.7c0,0.3,0.7,0.8,1.1,0.8c2.6,0.1,5.3,0.1,7.9,0c2.6-0.1,4.5-1.4,4.5-3.4
		c0.2-4.9,0.1-9.8-0.2-14.7c-0.1-2.1-1.6-3.3-3.6-3.4C29.2,15.7,26,15.8,22.5,15.8z"/>
	<path d="M130.2,14.9c-2.2,0-4.2,0-6.2,0c0-2.4,0-4.7,0-7.1c4.8,0,9.7,0,14.7,0c0,0.6,0,1.1,0,1.5c0,17.7,0,35.5,0,53.2
		c0,1.4,0.1,2.8,0.3,4.2c0.4,2.9,1,3.6,3.9,3.9c2.3,0.2,4.6,0.1,6.9-0.1c2.2-0.3,3.3-1.5,3.7-3.7c0.1-0.8,0.1-1.6,0.1-2.4
		c0-18.2,0-36.5,0-54.7c0-0.6,0-1.2,0-1.9c5.1,0,10.1,0,15.1,0c0,2.4,0,4.7,0,7.1c-2.1,0-4.2,0-6.4,0c0,0.8,0,1.5,0,2.1
		c0,15.4,0.1,30.9-0.1,46.3c0,2.7-0.6,5.6-1.6,8.1c-1.7,4.3-5.1,6.6-10,6.5c-3.3-0.1-6.5,0-9.8,0c-4.8,0-8.9-3.2-9.8-8
		c-0.5-2.3-0.7-4.7-0.7-7c-0.1-15.3,0-30.5,0-45.8C130.2,16.4,130.2,15.8,130.2,14.9z"/>
	<path d="M121.7,77.2c-0.6,0-1.1,0-1.7,0c-6.3,0-12.7-0.1-19,0c-5.2,0.1-8.7-3.1-10.1-7.5c-0.7-2.3-1.1-4.8-1.1-7.3
		c-0.1-14-0.1-28,0-41.9c0-2.2,0.5-4.6,1.3-6.7c1.6-4.4,4.9-6.8,9.5-7c7-0.2,14,0,21.1,0c0,5.2,0,10.2,0,15.3c-2.5,0-5,0-7.6,0
		c0-2.7,0-5.4,0-7.9c-4.4,0-8.6-0.1-12.7,0.1c-1.6,0.1-2.8,1.8-3.1,3.8c-0.1,0.4-0.1,0.9-0.1,1.3c0,14.4,0,28.9,0.1,43.3
		c0,1.4,0.3,2.9,0.8,4.3c0.6,2,1.9,2.8,4,2.8c3.3,0,6.5,0,9.9,0c0-6.2,0-12.4,0-18.7c-2,0-4,0-6.2,0c0-2.5,0-4.7,0-7.1
		c5,0,9.9,0,14.9,0C121.7,55,121.7,66,121.7,77.2z"/>
	<path d="M207,77.9c-12.3,0-24.5,0-36.8,0c0-2.3,0-4.6,0-7c2.1,0,4.2,0,6.4,0c0-18.7,0-37.2,0-55.8c-2.1,0-4.2,0-6.4,0
		c0-2.5,0-4.8,0-7.3c12.2,0,24.5,0,36.8,0c0,5.3,0,10.4,0,15.7c-2.6,0-5,0-7.7,0c0-2.9,0-5.7,0-8.6c-4.8,0-9.5,0-14.3,0
		c0,7.3,0,14.6,0,22.1c4.1,0,8.1,0,12.3,0c0,2.6,0,5,0,7.5c-4.1,0-8.1,0-12.2,0c0,8.6,0,17.1,0,25.8c4.6,0,9.2,0,14,0
		c0-2.8,0-5.6,0-8.5c2.7,0,5.3,0,7.9,0C207,67.1,207,72.4,207,77.9z"/>
	<path d="M54.4,38.5c2.7,2,5.2,3.7,7.6,5.5c0.3,0.2,0.4,1.1,0.2,1.6c-1.5,4.8-3.1,9.6-4.8,14.9c1.9-1.4,3.5-2.5,5.4-3.8
		c0,1.6,0,3,0,4.4c0,2,0,4,0,6.1c0.1,2,1,3.3,3,3.4c3.6,0.2,7.2,0.2,10.7-0.1c0.9-0.1,2.1-1.4,2.4-2.4c0.5-1.9,0.4-3.9,0.4-5.8
		c0.1-1.7,0-3.4,0-5.4c1.7,1.1,3.1,2.1,4.5,3.1c0.1-0.1,0.2-0.1,0.3-0.2c-0.7-2.2-1.3-4.5-2-6.7c-0.8-2.5-1.6-5-2.3-7.5
		c-0.1-0.4,0.1-1.2,0.4-1.4c2.4-1.8,4.8-3.5,7.4-5.4c0,0.7,0.1,1.1,0.1,1.6c0,8.8,0,17.5,0,26.3c0,7.3-3.6,11.1-11,11.3
		c-4.5,0.1-9,0-13.5-0.2c-5.1-0.2-8.8-3.6-8.9-8.7C54.3,58.8,54.4,48.8,54.4,38.5z"/>
	<path d="M87.8,33.8c-2.9,0-5.5,0-8.4,0c0-3.9,0-7.8,0-11.7c0-1.1,0-2.2,0-3.4c-0.1-2.9-1.2-4.4-4-4.6c-3.1-0.2-6.2-0.1-9.2,0.2
		c-2.2,0.2-3.2,1.6-3.2,3.8c0,4.7,0,9.3,0,14c0,0.5,0,1.1,0,1.7c-2.8,0-5.5,0-8.2,0c-0.1-0.1-0.2-0.2-0.2-0.3
		c0.1-6.2-0.1-12.5,0.4-18.6c0.4-4.7,4.6-8,9.5-8c4.3,0,8.5,0,12.8,0c5.7,0,9.7,3.5,10.4,9.1c0.1,0.7,0.2,1.4,0.3,2.2
		C87.8,23.3,87.8,28.4,87.8,33.8z"/>
	<path d="M79.4,52.3c-2.2-1.6-4.4-3.1-6.5-4.7c-0.9-0.7-1.6-0.7-2.5,0c-2.3,1.7-4.6,3.3-7.3,5.3c1-2.9,1.7-5.5,2.6-7.9
		c0.6-1.6,0.4-2.5-1-3.4c-2.2-1.4-4.3-3.1-6.4-5c2.8,0,5.5-0.1,8.3,0c1.5,0.1,2-0.5,2.4-1.8c0.7-2.5,1.6-5,2.8-7.5
		c0.9,2.7,1.8,5.4,2.6,8.1c0.3,1,0.8,1.3,1.8,1.3c2.9-0.1,5.8,0,9.3,0c-1,0.8-1.6,1.3-2.3,1.8c-1.5,1.1-3,2.3-4.7,3.3
		c-1.3,0.8-1.6,1.6-1,3c0.9,2.4,1.5,4.9,2.3,7.3C79.6,52.1,79.5,52.2,79.4,52.3z"/>
</g>
</svg>
