<svg xmlns="http://www.w3.org/2000/svg" viewBox="0 0 792.01 226.11"><title>Asset5</title><path d="M792,217.59H617.6v-20.7H531.8v20.7h0L522.2,195l-18.46,1.9v8.56H452.3c-2.29-.31-4.68-.65-7.2-1V215.6h0l-3.48.65-7.3,1.35V210.2H392.1v-4.64h42.21v-3.91H357.8v15.94h-8.6l-23-20.58c.35,0,.68-.07,1-.12H258.7V217.6h0l-.82-1.6h0l-8.06-15.68v-3.42H174.4v20.7H0v7.12H208.71v-17.3h41.1l8.89,17.3H293v-21.1l16.4,21.1h124.9l7.51-1.39v.09l3.28-.7c1.22.23,2.39.43,3.54.63l.42.07h0a179.1,179.1,0,0,0,33,2.7c8.63,0,17.57-.24,25.66-3.58A23.27,23.27,0,0,0,518,214.78a22.62,22.62,0,0,0,3.71-10.89c0-.15.06-.75.11-1.56h0l7.4,16.65,2.55,5.72h34.3V204h17.2v20.7H792Z" style="fill:#f1d77e"/><path d="M792,211.3H617.6V190.6H531.8v20.7h0l-9.59-22.6-18.46,1.9v8.56H452.3c-2.29-.31-4.68-.65-7.2-1V209.3h0l-3.48.64-7.3,1.36v-7.39H392.1v-4.65h42.21v-3.91H357.8v16h-8.6l-23-20.58,1-.12H258.7v20.7h0l-.82-1.61h0L249.81,194V190.6H174.4v20.7H0v7.12H208.71v-17.3h41.1l8.89,17.3H293v-21.1l16.4,21.1h124.9l7.51-1.39v.09l3.28-.7c1.22.22,2.39.43,3.54.62l.42.08h0a179.11,179.11,0,0,0,33,2.71c8.63,0,17.57-.25,25.66-3.58A23.35,23.35,0,0,0,518,208.49a22.66,22.66,0,0,0,3.71-10.89c0-.16.06-.75.11-1.56h0l7.4,16.66,2.55,5.72h34.3v-20.7h17.2v20.7H792Z" style="fill:#ecc953"/><path d="M792,204.45H617.6v-20.7H531.8v20.7h0l-9.59-22.6-18.46,1.9v8.56H452.3c-2.29-.31-4.68-.65-7.2-1v11.19h0l-3.48.65-7.3,1.35v-7.39H392.1v-4.64h42.21v-3.91H357.8v15.94h-8.6l-23-20.58,1-.12H258.7v20.7h0l-.82-1.61h0l-8.06-15.67v-3.42H174.4v20.7H0v7.12H208.71v-17.3h41.1l8.89,17.3H293v-21.1l16.4,21.1h124.9l7.51-1.39v.09l3.28-.7c1.22.22,2.39.43,3.54.62l.42.08h0a180,180,0,0,0,33,2.7c8.63,0,17.57-.24,25.66-3.58A23.27,23.27,0,0,0,518,201.64a22.62,22.62,0,0,0,3.71-10.89c0-.15.06-.75.11-1.56h0l7.4,16.65,2.55,5.72h34.3v-20.7h17.2v20.7H792Z" style="fill:#e7bc27"/><path d="M792,197.82H617.6v-20.7H531.8v20.7h0l-9.59-22.6-18.46,1.9v8.56H452.3c-2.29-.31-4.68-.65-7.2-1v11.18h0l-3.48.64-7.3,1.36v-7.39H392.1v-4.64h42.21v-3.92H357.8v15.95h-8.6l-23-20.58,1-.12H258.7v20.7h0l-.82-1.61h0l-8.06-15.68v-3.41H174.4v20.7H0v7.12H208.71v-17.3h41.1l8.89,17.3H293v-21.1l16.4,21.1h124.9l7.51-1.39v.09l3.28-.7c1.22.22,2.39.43,3.54.62l.42.08h0a179.11,179.11,0,0,0,33,2.71c8.63,0,17.57-.25,25.66-3.58A23.35,23.35,0,0,0,518,195a22.66,22.66,0,0,0,3.71-10.89c0-.16.06-.75.11-1.56h0l7.4,16.65,2.55,5.72h34.3v-20.7h17.2v20.7H792Z" style="fill:#edc07c"/><path d="M792,191.54H617.6v-20.7H531.8v20.7h0l-9.59-22.6-18.46,1.9v8.56H452.3c-2.29-.31-4.68-.65-7.2-1v11.19h0l-3.48.65-7.3,1.35v-7.39H392.1v-4.64h42.21v-3.92H357.8v15.95h-8.6l-23-20.58,1-.12H258.7v20.7h0l-.82-1.61h0l-8.06-15.67v-3.42H174.4v20.7H0v7.12H208.71v-17.3h41.1l8.89,17.3H293v-21.1l16.4,21.1h124.9l7.51-1.39v.09l3.28-.7c1.22.22,2.39.43,3.54.62l.42.08h0a180,180,0,0,0,33,2.7c8.63,0,17.57-.24,25.66-3.58A23.27,23.27,0,0,0,518,188.73a22.62,22.62,0,0,0,3.71-10.89c0-.15.06-.75.11-1.56h0l7.4,16.65,2.55,5.72h34.3V178h17.2v20.7H792Z" style="fill:#e8ac52"/><path d="M792,185H617.6v-20.7H531.8V185h0l-9.59-22.6-18.46,1.9v8.56H452.3c-2.29-.31-4.68-.65-7.2-1V183h0l-3.48.65-7.3,1.35v-7.39H392.1v-4.64h42.21V169H357.8v16h-8.6l-23-20.58,1-.12H258.7V185h0l-.82-1.61h0l-8.06-15.67v-3.42H174.4V185H0v7.12H208.71v-17.3h41.1l8.89,17.3H293V171l16.4,21.1h124.9l7.51-1.39v.09l3.28-.7c1.22.22,2.39.43,3.54.62l.42.08h0a180,180,0,0,0,33,2.7c8.63,0,17.57-.24,25.66-3.58A23.27,23.27,0,0,0,518,182.15a22.62,22.62,0,0,0,3.71-10.89c0-.15.06-.75.11-1.56h0l7.4,16.65,2.55,5.72h34.3v-20.7h17.2v20.7H792Z" style="fill:#e19626"/><path d="M792,178.38H617.6V157.69H531.8v20.7h0l-9.59-22.6-18.46,1.91v8.56H452.3c-2.29-.31-4.68-.66-7.2-1v11.18h0l-3.48.65-7.3,1.35V171H392.1v-4.65h42.21v-3.91H357.8v15.94h-8.6l-23-20.57,1-.12H258.7v20.7h0l-.82-1.6h0l-8.06-15.68v-3.41H174.4v20.69H0v7.13H208.71v-17.3h41.1l8.89,17.3H293v-21.1l16.4,21.1h124.9l7.51-1.39v.08l3.28-.69,3.54.62.42.07h0a179.11,179.11,0,0,0,33,2.71c8.63,0,17.57-.25,25.66-3.59A23.25,23.25,0,0,0,518,175.58a22.69,22.69,0,0,0,3.71-10.89c0-.16.06-.75.11-1.56h0l7.4,16.65,2.55,5.73h34.3v-20.7h17.2v20.7H792Z" style="fill:#db8767"/><path d="M792,172.4H617.6V151.7H531.8v20.7h0l-9.59-22.6-18.46,1.9v8.56H452.3c-2.29-.31-4.68-.65-7.2-1V170.4h0l-3.48.64-7.3,1.36V165H392.1v-4.65h42.21v-3.91H357.8v16h-8.6l-23-20.58,1-.12H258.7v20.7h0l-.82-1.61h0l-8.06-15.68V151.7H174.4v20.7H0v7.12H208.71v-17.3h41.1l8.89,17.3H293v-21.1l16.4,21.1h124.9l7.51-1.39v.09l3.28-.7c1.22.22,2.39.43,3.54.62l.42.08h0a179.11,179.11,0,0,0,33,2.71c8.63,0,17.57-.25,25.66-3.58A23.35,23.35,0,0,0,518,169.59a22.66,22.66,0,0,0,3.71-10.89c0-.16.06-.75.11-1.56h0l7.4,16.65,2.55,5.72h34.3v-20.7h17.2v20.7H792Z" style="fill:#d16643"/><path d="M792,165.48H617.6v-20.7H531.8v20.7h0l-9.59-22.6-18.46,1.9v8.56H452.3c-2.29-.31-4.68-.65-7.2-1v11.19h0l-3.48.65-7.3,1.35v-7.39H392.1v-4.64h42.21v-3.91H357.8v15.94h-8.6l-23-20.58,1-.12H258.7v20.7h0l-.82-1.6h0l-8.06-15.68v-3.42H174.4v20.7H0v7.12H208.71V155.3h41.1l8.89,17.3H293V151.5l16.4,21.1h124.9l7.51-1.39v.09l3.28-.7c1.22.22,2.39.43,3.54.62l.42.08h0a180,180,0,0,0,33,2.7c8.63,0,17.57-.24,25.66-3.58A23.27,23.27,0,0,0,518,162.67a22.62,22.62,0,0,0,3.71-10.89c0-.15.06-.75.11-1.56h0l7.4,16.65,2.55,5.72h34.3V151.9h17.2v20.7H792Z" style="fill:#c94028"/><path d="M792,159.08H617.6v-20.7H531.8v20.7h0l-9.59-22.6-18.46,1.9v8.56H452.3c-2.29-.31-4.68-.65-7.2-1v11.19h0l-3.48.65-7.3,1.35v-7.39H392.1v-4.64h42.21v-3.92H357.8v16h-8.6l-23-20.58,1-.12H258.7v20.7h0l-.82-1.61h0l-8.06-15.67v-3.42H174.4v20.7H0v7.12H208.71V148.9h41.1l8.89,17.3H293V145.1l16.4,21.1h124.9l7.51-1.39v.09l3.28-.7c1.22.22,2.39.43,3.54.62l.42.08h0a180,180,0,0,0,33,2.7c8.63,0,17.57-.24,25.66-3.58A23.27,23.27,0,0,0,518,156.27a22.62,22.62,0,0,0,3.71-10.89c0-.15.06-.75.11-1.56h0l7.4,16.65,2.55,5.72h34.3V145.5h17.2v20.7H792Z" style="fill:#c599b2"/><path d="M792,152.76H617.6v-20.7H531.8v20.7h0l-9.59-22.61-18.46,1.91v8.56H452.3c-2.29-.31-4.68-.66-7.2-1v11.18h0l-3.48.64-7.3,1.35v-7.38H392.1v-4.65h42.21v-3.91H357.8v15.95h-8.6l-23-20.58,1-.12H258.7v20.7h0l-.82-1.61h0l-8.06-15.68v-3.41H174.4v20.7H0v7.12H208.71v-17.3h41.1l8.89,17.3H293v-21.1l16.4,21.1h124.9l7.51-1.39v.08l3.28-.69,3.54.62.42.07h0a179.11,179.11,0,0,0,33,2.71c8.63,0,17.57-.25,25.66-3.59A23.25,23.25,0,0,0,518,150a22.69,22.69,0,0,0,3.71-10.89c0-.16.06-.75.11-1.56h0l7.4,16.66,2.55,5.72h34.3v-20.7h17.2v20.7H792Z" style="fill:#b67e9f"/><path d="M792,146.24H617.6V125.55H531.8v20.69h0l-9.59-22.6-18.46,1.91v8.56H452.3c-2.29-.31-4.68-.66-7.2-1.05v11.19h0l-3.48.65-7.3,1.35v-7.39H392.1v-4.64h42.21V130.3H357.8v15.94h-8.6l-23-20.58,1-.11H258.7v20.7h0l-.82-1.6h0L249.81,129v-3.41H174.4v20.69H0v7.13H208.71V136.06h41.1l8.89,17.31H293V132.26l16.4,21.11h124.9l7.51-1.4v.09l3.28-.69,3.54.62.42.07h0a179.11,179.11,0,0,0,33,2.71c8.63,0,17.57-.25,25.66-3.59A23.27,23.27,0,0,0,518,143.43a22.62,22.62,0,0,0,3.71-10.89c0-.15.06-.75.11-1.56h0l7.4,16.65,2.55,5.73h34.3V132.66h17.2v20.71H792Z" style="fill:#a9648e"/><path d="M792,139.57H617.6v-20.7H531.8v20.7h0L522.2,117l-18.46,1.9v8.56H452.3c-2.29-.31-4.68-.65-7.2-1v11.19h0l-3.48.65-7.3,1.35v-7.39H392.1v-4.64h42.21v-3.92H357.8v15.95h-8.6l-23-20.58,1-.12H258.7v20.7h0l-.82-1.61h0l-8.06-15.67v-3.42H174.4v20.7H0v7.12H208.71v-17.3h41.1l8.89,17.3H293v-21.1l16.4,21.1h124.9l7.51-1.39v.09l3.28-.7c1.22.22,2.39.43,3.54.62l.42.08h0a180,180,0,0,0,33,2.7c8.63,0,17.57-.24,25.66-3.58A23.27,23.27,0,0,0,518,136.76a22.62,22.62,0,0,0,3.71-10.89c0-.15.06-.75.11-1.56h0l7.4,16.65,2.55,5.72h34.3V126h17.2v20.7H792Z" style="fill:#7d97bb"/><path d="M792,133H617.6V112.35H531.8v20.7h0l-9.59-22.6-18.46,1.91v8.56H452.3c-2.29-.31-4.68-.66-7.2-1v11.18h0l-3.48.65-7.3,1.35v-7.38H392.1V121h42.21V117.1H357.8V133h-8.6l-23-20.58,1-.11H258.7v20.7h0l-.82-1.6h0l-8.06-15.68v-3.41H174.4V133H0v7.13H208.71v-17.3h41.1l8.89,17.3H293v-21.1l16.4,21.1h124.9l7.51-1.39v.08l3.28-.69,3.54.62.42.07h0a179.11,179.11,0,0,0,33,2.71c8.63,0,17.57-.25,25.66-3.59A23.25,23.25,0,0,0,518,130.24a22.69,22.69,0,0,0,3.71-10.9c0-.15.06-.74.11-1.56h0l7.4,16.65,2.55,5.73h34.3v-20.7h17.2v20.7H792Z" style="fill:#577fab"/><path d="M792,126.43H617.6v-20.7H531.8v20.7h0l-9.59-22.6-18.46,1.9v8.56H452.3c-2.29-.31-4.68-.65-7.2-1v11.18h0l-3.48.64-7.3,1.36V119H392.1V114.4h42.21v-3.92H357.8v16h-8.6l-23-20.58,1-.12H258.7v20.7h0l-.82-1.61h0l-8.06-15.67v-3.42H174.4v20.7H0v7.12H208.71v-17.3h41.1l8.89,17.3H293v-21.1l16.4,21.1h124.9l7.51-1.39v.09l3.28-.7c1.22.22,2.39.43,3.54.62l.42.08h0a179.11,179.11,0,0,0,33,2.71c8.63,0,17.57-.24,25.66-3.58A23.35,23.35,0,0,0,518,123.62a22.62,22.62,0,0,0,3.71-10.89c0-.16.06-.75.11-1.56h0l7.4,16.65,2.55,5.72h34.3v-20.7h17.2v20.7H792Z" style="fill:#256b9d"/><path d="M792,119.8H617.6V99.1H531.8v20.7h0L522.2,97.2l-18.46,1.9v8.56H452.3c-2.29-.31-4.68-.66-7.2-1V117.8h0l-3.48.64-7.3,1.35v-7.38H392.1v-4.65h42.21v-3.91H357.8v16h-8.6l-23-20.58,1-.12H258.7v20.7h0l-.82-1.61h0l-8.06-15.68V99.1H174.4v20.7H0v7.12H208.71v-17.3h41.1l8.89,17.3H293v-21.1l16.4,21.1h124.9l7.51-1.39v.08l3.28-.69,3.54.62.42.07h0a179.11,179.11,0,0,0,33,2.71c8.63,0,17.57-.25,25.66-3.59A23.25,23.25,0,0,0,518,117a22.69,22.69,0,0,0,3.71-10.89c0-.16.06-.75.11-1.56h0l7.4,16.66,2.55,5.72h34.3v-20.7h17.2v20.7H792Z" style="fill:#66ba99"/><path d="M792,113.29H617.6V92.59H531.8v20.7h0L522.2,90.68l-18.46,1.91v8.56H452.3c-2.29-.31-4.68-.66-7.2-1v11.18h0l-3.48.64-7.3,1.35V105.9H392.1v-4.65h42.21V97.34H357.8v16h-8.6l-23-20.58,1-.12H258.7v20.7h0l-.82-1.61h0L249.81,96V92.59H174.4v20.7H0v7.12H208.71v-17.3h41.1l8.89,17.3H293V99.31l16.4,21.1h124.9l7.51-1.39v.08l3.28-.69,3.54.62.42.07h0a179.11,179.11,0,0,0,33,2.71c8.63,0,17.57-.25,25.66-3.59A23.25,23.25,0,0,0,518,110.48a22.69,22.69,0,0,0,3.71-10.89c0-.16.06-.75.11-1.56h0l7.4,16.66,2.55,5.72h34.3V99.71h17.2v20.7H792Z" style="fill:#539a70"/><path d="M792,106.94H617.6V86.24H531.8v20.7h0l-9.59-22.6-18.46,1.9V94.8H452.3c-2.29-.31-4.68-.65-7.2-1v11.18h0l-3.48.64-7.3,1.36V99.55H392.1V94.91h42.21V91H357.8v16h-8.6l-23-20.58,1-.12H258.7v20.7h0l-.82-1.61h0l-8.06-15.68V86.24H174.4v20.7H0v7.12H208.71V96.76h41.1l8.89,17.3H293V93l16.4,21.1h124.9l7.51-1.39v.09l3.28-.7c1.22.22,2.39.43,3.54.62l.42.08h0a179.11,179.11,0,0,0,33,2.71c8.63,0,17.57-.24,25.66-3.58A23.35,23.35,0,0,0,518,104.13a22.62,22.62,0,0,0,3.71-10.89c0-.16.06-.75.11-1.56h0l7.4,16.65,2.55,5.72h34.3V93.36h17.2v20.7H792Z" style="fill:#018a55"/><path d="M208.7,89.64v17.3H174.4V40.23h75.4V62.64H208.7v6.7h41.1v20.3Z" style="fill:#d8ded0"/><path d="M309.4,106.94,293,85.84v21.1H258.69V40.23H323c8.1,0,12.9,1.21,16.9,4.41a18.77,18.77,0,0,1,7.2,15,18.47,18.47,0,0,1-7.3,14.8c-3.8,2.9-7.1,4.1-13.6,4.8l23,27.7Zm-5.9-35.1c3.5,0,4.9-.3,6.5-1.2,2-1.2,3.1-3.5,3.1-6.3,0-4.5-2.1-6.3-7.6-6.3H293v13.8Z" style="fill:#d8ded0"/><path d="M357.79,106.94V40.23H434.3V61.64H392.1v6.2h42.2v16H392.1v5.6h42.2v17.5Z" style="fill:#d8ded0"/><path d="M445.09,86.64c15,2.3,25.4,3.2,37.3,3.2,3,0,4.6-1,4.6-3,0-1.7-1.1-2.3-4.7-2.3h-5.6c-2.7,0-8.7-.4-12.6-.8-8.4-.9-13.5-3.2-16.9-7.6-2.6-3.3-3.9-7.7-3.9-12.8,0-7.6,2.7-13.7,7.9-17.6,5.9-4.4,17.7-6.9,33.2-6.9a186.76,186.76,0,0,1,35.21,3.3v19.6a253.41,253.41,0,0,0-26.91-2.3h-7.5c-4.6,0-6.4.9-6.4,3,0,1.7,1.4,2.7,3.7,2.7l12,.1c6.91.1,13.31,1,17.21,2.5,6.3,2.4,10.5,9,10.5,16.6a21.61,21.61,0,0,1-10.4,18.2c-7,4.4-14.4,5.8-29.71,5.8a183.3,183.3,0,0,1-37-3.4Z" style="fill:#d8ded0"/><path d="M583.29,106.94V86.24h-17.2v20.7h-34.3V40.23h34.3V63.84h17.2V40.23H617.6v66.71Z" style="fill:#d8ded0"/><path d="M207.57,14.45A107.73,107.73,0,0,0,196,13.83c-4.7,0-5.56.19-5.56,1.1a.69.69,0,0,0,.43.62c.43.24.43.24,3.79.24,8.4.1,8.4.1,10.13.68,2.4.86,4,3.64,4,7.05,0,3.84-1.77,7-4.75,8.31-2.69,1.2-6.67,1.77-12.38,1.77a138.94,138.94,0,0,1-14.5-1l-.62-7.92a101.87,101.87,0,0,0,11.95.91,45.81,45.81,0,0,0,5.57-.19.83.83,0,0,0,.48-.81c0-.63-.39-.87-1.35-.87h-1.15l-1.82,0c-4.8,0-9-.58-10.71-1.49-2.69-1.39-4.13-4.13-4.13-7.63A8.31,8.31,0,0,1,179.68,7c2.2-1.2,6.28-1.73,13.24-1.73,4.66,0,11.24.29,14.65.62Z" style="fill:#e19626"/><path d="M249.9,22.32c0,3.75-1.34,6.63-3.74,8.26-3.07,2-8,3-15,3s-12-1-15-3c-2.4-1.63-3.75-4.56-3.75-8.26V6H228V21.41c0,3.07.77,4,3.22,4s3.17-1,3.17-4V6H249.9Z" style="fill:#e19626"/><path d="M300.45,32.93V20c0-3.07-.72-3.89-3.32-3.89-2.78,0-3.74,1-3.74,4.08V32.93H277.84V20.55c0-3.27-.87-4.23-3.7-4.23-2.64,0-3.5,1-3.5,3.79V32.93H255.08V6h14.55v4.47c2.93-3.89,5.76-5.14,11.52-5.14,3.94,0,6.82.77,8.59,2.26A7.88,7.88,0,0,1,292,11.18a8.79,8.79,0,0,1,3-3.74c2.07-1.49,4.8-2.16,8.69-2.16C312,5.28,316,8.74,316,16V32.93Z" style="fill:#e19626"/><path d="M366.54,32.93V20c0-3.07-.72-3.89-3.31-3.89-2.78,0-3.74,1-3.74,4.08V32.93H343.93V20.55c0-3.27-.86-4.23-3.69-4.23-2.64,0-3.51,1-3.51,3.79V32.93H321.18V6h14.54v4.47c2.93-3.89,5.76-5.14,11.53-5.14,3.93,0,6.81.77,8.59,2.26a7.88,7.88,0,0,1,2.25,3.64,8.73,8.73,0,0,1,3-3.74c2.06-1.49,4.8-2.16,8.69-2.16,8.35,0,12.34,3.46,12.34,10.71V32.93Z" style="fill:#e19626"/><path d="M420.69,31.3c-7.73,1.77-11.53,2.3-16.52,2.3-5.81,0-10.17-1.05-13.3-3.26s-4.65-5.57-4.65-10.37c0-5,2-9.41,5.37-11.67,3-2.06,7.64-3,14.36-3,7.73,0,12.72,1.58,15.36,4.9,1.58,2,2.69,5.95,2.69,9.84,0,.57-.05,1.34-.1,2.4H402.64c0,2.78,1.44,3.65,5.8,3.65a76,76,0,0,0,15.46-2.16Zm-9.17-15.07a4.63,4.63,0,0,0-.68-2.69,4.59,4.59,0,0,0-3.93-1.78c-3.07,0-4.56,1.34-5,4.47Z" style="fill:#e19626"/><path d="M428.12,32.93V6h14.5v6.87c.77-3.36,1.78-5.19,3.55-6.44,1.15-.81,2.74-1.15,5.33-1.15a23.36,23.36,0,0,1,3.31.24v15c-8.83-.24-11.28,1-11.13,5.66v6.77Z" style="fill:#e19626"/><path d="M477.92,32.93V24.19a69.41,69.41,0,0,0,13.78-6c3-1.82,4-3,4-4.56a2.76,2.76,0,0,0-3.07-2.83,3.73,3.73,0,0,0-3.8,3.22,9.82,9.82,0,0,0-.19,2.45H477.25c-.05-.92-.1-1.73-.1-2.21,0-4.76,1.78-8.74,4.94-11,2.79-2,6.77-3,12.63-3,5.66,0,9.65,1,12.19,3.12a9.83,9.83,0,0,1,3.7,7.78c0,3.93-1.87,6.72-5.91,8.78a65.2,65.2,0,0,1-8.83,3.55h14.84v9.46Z" style="fill:#e7bc27"/><path d="M545.17,3.74c3.45,2.74,5.18,7.06,5.18,13.21,0,5.76-2,10.8-5.28,13.53-2.88,2.35-6.77,3.36-13.06,3.36s-10.22-1.1-13.15-3.65c-3.12-2.78-5-7.87-5-13.53,0-5.91,2.16-10.95,5.76-13.44C522.37,1.3,527.6,0,532.5,0,537.58,0,542.1,1.34,545.17,3.74Zm-18,13.88c0,4.13,1.59,6.09,4.9,6.09s4.9-2,4.9-6-1.63-6.1-4.9-6.1S527.21,13.58,527.21,17.62Z" style="fill:#e7bc27"/><path d="M559.52,32.93V15.55l-6.58,2.21V6.53L560.38.91h14.93v32Z" style="fill:#e7bc27"/><path d="M582.22,15.27a7.48,7.48,0,0,1-2.5-5.91c0-6.19,5.77-9.12,18-9.12s18,2.93,18,9.12a7.45,7.45,0,0,1-2.5,5.91c-1.05.86-2.06,1.24-4.41,1.72a8.48,8.48,0,0,1,4.7,2.07,7,7,0,0,1,2.5,5.47,7.65,7.65,0,0,1-4,6.91c-3,1.59-6.72,2.16-14.25,2.16s-11.24-.57-14.26-2.16a7.8,7.8,0,0,1-4-6.91,7,7,0,0,1,2.49-5.47A8.48,8.48,0,0,1,586.64,17C584.29,16.51,583.28,16.13,582.22,15.27ZM593.65,12c0,2.21,1.53,3.51,4.27,3.51s4.22-1.3,4.22-3.51S600.56,8.54,598,8.54C595.23,8.54,593.65,9.79,593.65,12Zm.09,11.14c0,2.21,1.39,3.36,4.13,3.36S602,25.3,602,23.14s-1.44-3.31-4-3.31C595.18,19.83,593.74,20.93,593.74,23.09Z" style="fill:#e7bc27"/></svg>