<svg xmlns="http://www.w3.org/2000/svg" viewBox="0 0 499.95 47"><title>color_bar</title><polygon points="24.59 47 499.95 47 499.95 44.49 25.58 44.49 24.62 44.49 24.59 44.49 24.59 44.49 0 44.49 0 47 24.59 47 24.59 47" style="fill:#f1d77e"/><polygon points="24.59 44.49 24.62 44.49 25.58 44.49 499.95 44.49 499.95 41.76 25.58 41.76 24.62 41.76 24.59 41.76 24.59 41.76 0 41.76 0 44.49 24.59 44.49 24.59 44.49" style="fill:#ecc953"/><polygon points="24.59 41.76 24.62 41.76 25.58 41.76 499.95 41.76 499.95 39.11 25.58 39.11 24.62 39.11 24.59 39.11 24.59 39.11 0 39.11 0 41.76 24.59 41.76 24.59 41.76" style="fill:#e7bc27"/><polygon points="24.59 39.11 24.62 39.11 25.58 39.11 499.95 39.11 499.95 36.6 25.58 36.6 24.62 36.6 24.59 36.6 24.59 36.6 0 36.6 0 39.11 24.59 39.11 24.59 39.11" style="fill:#edc07c"/><polygon points="24.59 36.6 24.62 36.6 25.58 36.6 499.95 36.6 499.95 33.98 25.58 33.98 24.62 33.98 24.59 33.98 24.59 33.98 0 33.98 0 36.6 24.59 36.6 24.59 36.6" style="fill:#e8ac52"/><polygon points="24.59 33.98 24.62 33.98 25.58 33.98 499.95 33.98 499.95 31.36 25.58 31.36 24.62 31.36 24.59 31.36 24.59 31.35 0 31.35 0 33.98 24.59 33.98 24.59 33.98" style="fill:#e19626"/><polygon points="24.59 31.36 24.62 31.36 25.58 31.36 499.95 31.36 499.95 28.97 25.59 28.97 24.62 28.97 24.59 28.97 24.59 28.96 0 28.96 0 31.35 24.59 31.35 24.59 31.36" style="fill:#db8767"/><polygon points="24.59 28.97 24.62 28.97 25.59 28.97 499.95 28.97 499.95 26.21 25.58 26.21 24.62 26.21 24.59 26.21 24.59 26.2 0 26.2 0 28.96 24.59 28.96 24.59 28.97" style="fill:#d16643"/><polygon points="24.59 26.21 24.62 26.21 25.58 26.21 499.95 26.21 499.95 23.65 25.58 23.65 24.62 23.65 24.59 23.65 24.59 23.65 0 23.65 0 26.2 24.59 26.2 24.59 26.21" style="fill:#c94028"/><polygon points="24.59 23.65 24.62 23.65 25.58 23.65 499.95 23.65 499.95 21.13 25.58 21.13 24.62 21.13 24.59 21.13 24.59 21.13 0 21.13 0 23.65 24.59 23.65 24.59 23.65" style="fill:#c599b2"/><polygon points="24.59 21.13 24.62 21.13 25.58 21.13 499.95 21.13 499.95 18.53 25.58 18.53 24.62 18.53 24.59 18.53 24.59 18.53 0 18.53 0 21.13 24.59 21.13 24.59 21.13" style="fill:#b67e9f"/><polygon points="24.59 18.53 24.62 18.53 25.58 18.53 499.95 18.53 499.95 15.87 25.58 15.87 24.62 15.87 24.59 15.87 24.59 15.87 0 15.87 0 18.53 24.59 18.53 24.59 18.53" style="fill:#a9648e"/><polygon points="24.59 15.87 24.62 15.87 25.58 15.87 499.95 15.87 499.95 13.26 25.58 13.26 24.62 13.26 24.59 13.26 24.59 13.26 0 13.26 0 15.87 24.59 15.87 24.59 15.87" style="fill:#7d97bb"/><polygon points="24.59 13.26 24.62 13.26 25.58 13.26 499.95 13.26 499.95 10.62 25.58 10.62 24.62 10.62 24.59 10.62 24.59 10.62 0 10.62 0 13.26 24.59 13.26 24.59 13.26" style="fill:#577fab"/><polygon points="24.59 10.62 24.62 10.62 25.58 10.62 499.95 10.62 499.95 7.97 25.58 7.97 24.62 7.97 24.59 7.97 24.59 7.97 0 7.97 0 10.62 24.59 10.62 24.59 10.62" style="fill:#256b9d"/><polygon points="24.59 7.97 24.62 7.97 25.58 7.97 499.95 7.97 499.95 5.38 25.58 5.38 24.62 5.38 24.59 5.38 24.59 5.38 0 5.38 0 7.97 24.59 7.97 24.59 7.97" style="fill:#66ba99"/><polygon points="24.59 5.38 24.62 5.38 25.58 5.38 499.95 5.38 499.95 2.84 25.58 2.84 24.62 2.84 24.59 2.84 24.59 2.84 0 2.84 0 5.38 24.59 5.38 24.59 5.38" style="fill:#539a70"/><polygon points="24.59 2.84 24.62 2.84 25.58 2.84 499.95 2.84 499.95 0 25.58 0 25.58 0 0 0 0 2.84 24.59 2.84 24.59 2.84" style="fill:#018a55"/></svg>