<svg xmlns="http://www.w3.org/2000/svg" viewBox="0 0 790.43 90.24"><title>long_logo</title><path d="M82.83,5.77a41.68,41.68,0,0,0-4.59-.25C76.36,5.52,76,5.59,76,6a.29.29,0,0,0,.18.25c.17.09.17.09,1.51.09,3.35,0,3.35,0,4,.27a2.85,2.85,0,0,1,1.59,2.82,3.46,3.46,0,0,1-1.9,3.31,12.59,12.59,0,0,1-4.94.71A55.67,55.67,0,0,1,70.71,13l-.25-3.16a43.23,43.23,0,0,0,4.77.36,17.85,17.85,0,0,0,2.22-.08.33.33,0,0,0,.19-.32c0-.25-.15-.35-.53-.35h-.46l-.73,0a11.34,11.34,0,0,1-4.27-.59,3.22,3.22,0,0,1-1.65-3A3.3,3.3,0,0,1,71.7,2.8c.88-.48,2.51-.69,5.29-.69,1.86,0,4.48.11,5.84.25Z" style="fill:#e19626"/><path d="M99.73,8.91a3.78,3.78,0,0,1-1.5,3.29c-1.22.81-3.2,1.21-6,1.21s-4.77-.4-6-1.21a3.8,3.8,0,0,1-1.49-3.29V2.38H91V8.54c0,1.23.31,1.61,1.29,1.61s1.26-.38,1.26-1.61V2.38h6.21Z" style="fill:#e19626"/><path d="M119.9,13.14V8c0-1.23-.29-1.55-1.32-1.55s-1.5.4-1.5,1.63v5.09h-6.2V8.2c0-1.3-.35-1.69-1.48-1.69S108,6.9,108,8v5.11h-6.2V2.38h5.8V4.16c1.17-1.55,2.3-2.05,4.6-2.05a5.3,5.3,0,0,1,3.43.9,3.2,3.2,0,0,1,.9,1.45A3.44,3.44,0,0,1,117.72,3a5.72,5.72,0,0,1,3.46-.86c3.34,0,4.93,1.38,4.93,4.27v6.76Z" style="fill:#e19626"/><path d="M146.28,13.14V8c0-1.23-.29-1.55-1.33-1.55s-1.49.4-1.49,1.63v5.09h-6.21V8.2c0-1.3-.34-1.69-1.47-1.69s-1.4.39-1.4,1.52v5.11h-6.21V2.38H134V4.16c1.17-1.55,2.3-2.05,4.59-2.05A5.28,5.28,0,0,1,142,3a3,3,0,0,1,.9,1.45A3.51,3.51,0,0,1,144.09,3a5.78,5.78,0,0,1,3.47-.86c3.33,0,4.92,1.38,4.92,4.27v6.76Z" style="fill:#e19626"/><path d="M167.88,12.49a26.35,26.35,0,0,1-6.59.92,9,9,0,0,1-5.3-1.3A4.67,4.67,0,0,1,154.13,8a5.54,5.54,0,0,1,2.14-4.66c1.21-.82,3-1.2,5.73-1.2,3.09,0,5.08.63,6.13,1.95A6.93,6.93,0,0,1,169.2,8c0,.23,0,.53,0,1h-8.49c0,1.11.57,1.45,2.32,1.45a30.29,30.29,0,0,0,6.17-.86Zm-3.66-6A1.88,1.88,0,0,0,164,5.4a1.87,1.87,0,0,0-1.58-.71,1.77,1.77,0,0,0-2,1.78Z" style="fill:#e19626"/><path d="M170.85,13.14V2.38h5.79V5.11a3.8,3.8,0,0,1,1.41-2.56,3.56,3.56,0,0,1,2.13-.46,10.14,10.14,0,0,1,1.32.09v6c-3.52-.1-4.5.4-4.44,2.26v2.7Z" style="fill:#e19626"/><path d="M190.72,13.14V9.66a28.35,28.35,0,0,0,5.5-2.4c1.19-.73,1.59-1.19,1.59-1.82a1.11,1.11,0,0,0-1.23-1.13,1.48,1.48,0,0,0-1.51,1.28,3.7,3.7,0,0,0-.08,1h-4.54c0-.36,0-.69,0-.88a5.26,5.26,0,0,1,2-4.41,8.46,8.46,0,0,1,5-1.18c2.26,0,3.85.4,4.86,1.24a3.92,3.92,0,0,1,1.48,3.1A3.71,3.71,0,0,1,201.41,8a26.91,26.91,0,0,1-3.52,1.42h5.92v3.77Z" style="fill:#e7bc27"/><path d="M217.56,1.49c1.38,1.1,2.07,2.82,2.07,5.27a7,7,0,0,1-2.11,5.4c-1.15.94-2.7,1.35-5.21,1.35s-4.08-.44-5.25-1.46a7.32,7.32,0,0,1-2-5.4,6.43,6.43,0,0,1,2.3-5.37A10,10,0,0,1,212.5,0,8.33,8.33,0,0,1,217.56,1.49ZM210.39,7c0,1.65.64,2.43,2,2.43s2-.78,2-2.41-.65-2.43-2-2.43S210.39,5.42,210.39,7Z" style="fill:#e7bc27"/><path d="M223.29,13.14V6.21l-2.63.88V2.61l3-2.25h6V13.14Z" style="fill:#e7bc27"/><path d="M232.35,6.09a3,3,0,0,1-1-2.35c0-2.48,2.3-3.64,7.18-3.64s7.19,1.16,7.19,3.64a3,3,0,0,1-1,2.35,3.48,3.48,0,0,1-1.76.69,3.35,3.35,0,0,1,1.88.83,2.76,2.76,0,0,1,1,2.18,3.06,3.06,0,0,1-1.61,2.76c-1.2.63-2.68.86-5.69.86s-4.48-.23-5.69-.86a3.13,3.13,0,0,1-1.6-2.76,2.79,2.79,0,0,1,1-2.18,3.35,3.35,0,0,1,1.88-.83A3.48,3.48,0,0,1,232.35,6.09Zm4.56-1.32c0,.88.61,1.4,1.7,1.4s1.69-.52,1.69-1.4-.64-1.36-1.67-1.36S236.91,3.91,236.91,4.77Zm0,4.44c0,.89.56,1.35,1.65,1.35s1.65-.46,1.65-1.33-.58-1.32-1.61-1.32S236.94,8.35,236.94,9.21Z" style="fill:#e7bc27"/><path d="M316.06,87.17v-.34H246.47V78.57H212.22v8.27h0l-3.83-9-7.36.76V82H180.5c-.92-.12-1.87-.26-2.87-.41V86h0l-1.39.25-2.91.54V83.89H156.48V82h16.84V80.47H142.79v6.36h-3.44l-9.17-8.21.41-.05H103.24v8.27h0l-.33-.64-3.22-6.25V78.57H69.6v8.26H0v2.85H83.29V82.77h16.4l3.55,6.91h13.69V81.26l6.54,8.42h49.85l3-.56v0l1.31-.28,1.41.25.17,0h0a72.14,72.14,0,0,0,13.18,1.08c3.45,0,7-.1,10.24-1.43a9.35,9.35,0,0,0,4.1-3.1,9,9,0,0,0,1.48-4.34c0-.06,0-.3,0-.63h0l3,6.64,1,2.29h13.69V81.42h6.87v8.26H790.43V87.17Z" style="fill:#f1d77e"/><path d="M316.06,84.43v-.11H246.47V76.06H212.22v8.26h0l-3.83-9-7.36.76v3.42H180.5c-.92-.13-1.87-.26-2.87-.42v4.47h0l-1.39.26-2.91.54V81.37H156.48V79.52h16.84V78H142.79v6.36h-3.44l-9.17-8.21.41,0H103.24v8.26h0l-.33-.64h0l-3.22-6.26V76.06H69.6v8.26H0v2.84H83.29v-6.9h16.4l3.55,6.9h13.69V78.74l6.54,8.42h49.85l3-.55v0l1.31-.27,1.41.24.17,0h0a71.27,71.27,0,0,0,13.18,1.08c3.45,0,7-.09,10.24-1.43a9.26,9.26,0,0,0,4.1-3.09,9,9,0,0,0,1.48-4.34c0-.07,0-.3,0-.63h0l3,6.64,1,2.28h13.69V78.9h6.87v8.26H790.43V84.43Z" style="fill:#ecc953"/><path d="M316.06,81.79v-.2H246.47V73.33H212.22v8.26h0l-3.83-9-7.36.76v3.42H180.5c-.92-.13-1.87-.26-2.87-.42v4.46h0l-1.39.26-2.91.54v-3H156.48V76.79h16.84V75.23H142.79v6.36h-3.44l-9.17-8.21.41,0H103.24v8.26h0l-.33-.64-3.22-6.26V73.33H69.6v8.26H0v2.84H83.29v-6.9h16.4l3.55,6.9h13.69V76l6.54,8.42h49.85l3-.55v0l1.31-.28,1.41.25.17,0h0A71.27,71.27,0,0,0,192.39,85c3.45,0,7-.1,10.24-1.43a9.33,9.33,0,0,0,4.1-3.09,9,9,0,0,0,1.48-4.35c0-.06,0-.3,0-.62h0l3,6.65,1,2.28h13.69V76.17h6.87v8.26H790.43V81.79Z" style="fill:#e7bc27"/><path d="M316.06,79.28v-.34H246.47V70.68H212.22v8.26h0l-3.83-9-7.36.76V74.1H180.5c-.92-.12-1.87-.26-2.87-.42v4.47h0l-1.39.25-2.91.54V76H156.48V74.14h16.84V72.58H142.79v6.36h-3.44l-9.17-8.21.41,0H103.24v8.26h0l-.33-.64h0l-3.22-6.25V70.68H69.6v8.26H0v2.85H83.29V74.88h16.4l3.55,6.91h13.69V73.36l6.54,8.43h49.85l3-.56v0l1.31-.27,1.41.25.17,0h0a71.27,71.27,0,0,0,13.18,1.08c3.45,0,7-.09,10.24-1.43a9.26,9.26,0,0,0,4.1-3.09,9,9,0,0,0,1.48-4.34c0-.07,0-.3,0-.63h0l3,6.64,1,2.29h13.69V73.52h6.87v8.27H790.43V79.28Z" style="fill:#edc07c"/><path d="M316.06,76.66v-.22H246.47V68.18H212.22v8.26h0l-3.83-9-7.36.76v3.41H180.5c-.92-.12-1.87-.26-2.87-.41v4.46h0l-1.39.26-2.91.54v-3H156.48V71.64h16.84V70.07H142.79v6.37h-3.44l-9.17-8.21.41,0H103.24v8.26h0l-.33-.64-3.22-6.26V68.18H69.6v8.26H0v2.84H83.29v-6.9h16.4l3.55,6.9h13.69V70.86l6.54,8.42h49.85l3-.55v0l1.31-.28,1.41.25.17,0h0a71.27,71.27,0,0,0,13.18,1.08c3.45,0,7-.1,10.24-1.43a9.33,9.33,0,0,0,4.1-3.09A9,9,0,0,0,208.21,71c0-.06,0-.3,0-.62h0l3,6.65,1,2.28h13.69V71h6.87v8.26H790.43V76.66Z" style="fill:#e8ac52"/><path d="M316.06,74v-.22H246.47V65.55H212.22v8.26h0l-3.83-9-7.36.76V69H180.5c-.92-.13-1.87-.26-2.87-.42V73h0l-1.39.26-2.91.54v-3H156.48V69h16.84V67.45H142.79v6.36h-3.44l-9.17-8.21.41,0H103.24v8.26h0l-.33-.64-3.22-6.26V65.55H69.6v8.26H0v2.84H83.29v-6.9h16.4l3.55,6.9h13.69V68.23l6.54,8.42h49.85l3-.55v0l1.31-.27,1.41.24.17,0h0a71.27,71.27,0,0,0,13.18,1.08c3.45,0,7-.1,10.24-1.43a9.26,9.26,0,0,0,4.1-3.09,9,9,0,0,0,1.48-4.35c0-.06,0-.29,0-.62h0l3,6.64,1,2.28h13.69V68.39h6.87v8.26H790.43V74Z" style="fill:#e19626"/><path d="M316.06,71.64v-.45H246.47V62.93H212.22v8.26h0l-3.83-9-7.36.76v3.41H180.5c-.92-.12-1.87-.26-2.87-.41v4.46h0l-1.39.26-2.91.54v-3H156.48V66.39h16.84V64.82H142.79v6.37h-3.44L130.18,63l.41,0H103.24v8.26h0l-.33-.64-3.22-6.26V62.93H69.6v8.26H0V74H83.29v-6.9h16.4l3.55,6.9h13.69V65.61L123.47,74h49.85l3-.56v0l1.31-.28,1.41.25.17,0h0a71.27,71.27,0,0,0,13.18,1.08c3.45,0,7-.1,10.24-1.43a9.33,9.33,0,0,0,4.1-3.09,9,9,0,0,0,1.48-4.35c0-.06,0-.3,0-.62h0l3,6.65,1,2.28h13.69V65.77h6.87V74H790.43V71.64Z" style="fill:#db8767"/><path d="M316.06,68.88V68.8H246.47V60.54H212.22V68.8h0l-3.83-9-7.36.76V64H180.5c-.92-.12-1.87-.26-2.87-.41V68h0l-1.39.26-2.91.54v-3H156.48V64h16.84V62.44H142.79V68.8h-3.44l-9.17-8.21.41-.05H103.24V68.8h0l-.33-.64h0L99.69,61.9V60.54H69.6V68.8H0v2.84H83.29v-6.9h16.4l3.55,6.9h13.69V63.22l6.54,8.42h49.85l3-.55v0l1.31-.28,1.41.25.17,0h0a71.27,71.27,0,0,0,13.18,1.08c3.45,0,7-.1,10.24-1.43a9.33,9.33,0,0,0,4.1-3.09,9,9,0,0,0,1.48-4.35c0-.06,0-.3,0-.62h0l3,6.65,1,2.28h13.69V63.38h6.87v8.26H790.43V68.88Z" style="fill:#d16643"/><path d="M316.06,66.33V66H246.47V57.78H212.22V66h0l-3.83-9-7.36.76v3.41H180.5c-.92-.12-1.87-.26-2.87-.41v4.46h0l-1.39.26-2.91.54v-3H156.48V61.24h16.84V59.67H142.79V66h-3.44l-9.17-8.21.41,0H103.24V66h0l-.33-.64h0l-3.22-6.26V57.78H69.6V66H0v2.84H83.29V62h16.4l3.55,6.9h13.69V60.46l6.54,8.42h49.85l3-.55v0l1.31-.28,1.41.25.17,0h0a71.27,71.27,0,0,0,13.18,1.08c3.45,0,7-.1,10.24-1.43a9.33,9.33,0,0,0,4.1-3.09,9,9,0,0,0,1.48-4.35c0-.06,0-.3,0-.62h0l3,6.65,1,2.28h13.69V60.62h6.87v8.26H790.43V66.33Z" style="fill:#c94028"/><path d="M316.06,63.8v-.32H246.47V55.22H212.22v8.26h0l-3.83-9-7.36.76v3.42H180.5c-.92-.12-1.87-.26-2.87-.42v4.47h0l-1.39.25-2.91.54V60.54H156.48V58.68h16.84V57.12H142.79v6.36h-3.44l-9.17-8.21.41-.05H103.24v8.27h0l-.33-.64h0l-3.22-6.25V55.22H69.6v8.26H0v2.85H83.29V59.42h16.4l3.55,6.91h13.69V57.91l6.54,8.42h49.85l3-.56v0l1.31-.28,1.41.25.17,0h0a71.27,71.27,0,0,0,13.18,1.08c3.45,0,7-.09,10.24-1.43a9.26,9.26,0,0,0,4.1-3.09A9,9,0,0,0,208.21,58c0-.06,0-.3,0-.63h0l3,6.64,1,2.29h13.69V58.07h6.87v8.26H790.43V63.8Z" style="fill:#c599b2"/><path d="M316.06,61.2V61H246.47V52.7H212.22V61h0l-3.83-9L201,52.7v3.42H180.5c-.92-.13-1.87-.26-2.87-.42v4.46h0l-1.39.26-2.91.54V58H156.48V56.16h16.84V54.6H142.79V61h-3.44l-9.17-8.21.41,0H103.24V61h0l-.33-.64h0l-3.22-6.26V52.7H69.6V61H0V63.8H83.29V56.9h16.4l3.55,6.9h13.69V55.38l6.54,8.42h49.85l3-.55v0l1.31-.28,1.41.25.17,0h0a71.27,71.27,0,0,0,13.18,1.08c3.45,0,7-.1,10.24-1.43a9.33,9.33,0,0,0,4.1-3.09,9,9,0,0,0,1.48-4.35c0-.06,0-.3,0-.62h0l3,6.65,1,2.28h13.69V55.54h6.87V63.8H790.43V61.2Z" style="fill:#b67e9f"/><path d="M316.06,58.54v-.18H246.47V50.1H212.22v8.26h0l-3.83-9L201,50.1v3.42H180.5c-.92-.13-1.87-.26-2.87-.42v4.46h0l-1.39.26-2.91.54v-3H156.48V53.56h16.84V52H142.79v6.36h-3.44l-9.17-8.21.41,0H103.24v8.26h0l-.33-.64h0l-3.22-6.26V50.1H69.6v8.26H0V61.2H83.29V54.3h16.4l3.55,6.9h13.69V52.78l6.54,8.42h49.85l3-.55v0l1.31-.27,1.41.24.17,0h0a71.27,71.27,0,0,0,13.18,1.08c3.45,0,7-.1,10.24-1.43a9.33,9.33,0,0,0,4.1-3.09,9,9,0,0,0,1.48-4.35c0-.06,0-.3,0-.62h0l3,6.65,1,2.28h13.69V52.94h6.87V61.2H790.43V58.54Z" style="fill:#a9648e"/><path d="M316.06,55.94V55.7H246.47V47.44H212.22V55.7h0l-3.83-9-7.36.76v3.41H180.5c-.92-.12-1.87-.26-2.87-.41V54.9h0l-1.39.26-2.91.54v-3H156.48V50.9h16.84V49.33H142.79V55.7h-3.44l-9.17-8.21.41-.05H103.24V55.7h0l-.33-.64L99.69,48.8V47.44H69.6V55.7H0v2.84H83.29v-6.9h16.4l3.55,6.9h13.69V50.12l6.54,8.42h49.85l3-.55v0l1.31-.28L179,58l.17,0h0a71.27,71.27,0,0,0,13.18,1.08c3.45,0,7-.1,10.24-1.43a9.33,9.33,0,0,0,4.1-3.09,9,9,0,0,0,1.48-4.35c0-.06,0-.3,0-.62h0l3,6.65,1,2.28h13.69V50.28h6.87v8.26H790.43v-2.6Z" style="fill:#7d97bb"/><path d="M316.06,53.3v-.21H246.47V44.83H212.22v8.26h0l-3.83-9-7.36.76v3.42H180.5c-.92-.12-1.87-.26-2.87-.42V52.3h0l-1.39.25-2.91.54v-3H156.48V48.29h16.84V46.73H142.79v6.36h-3.44l-9.17-8.21.41-.05H103.24V53.1h0l-.33-.64L99.69,46.2V44.83H69.6v8.26H0v2.85H83.29V49h16.4l3.55,6.91h13.69V47.52l6.54,8.42h49.85l3-.56v0l1.31-.28,1.41.25.17,0h0a71.27,71.27,0,0,0,13.18,1.08c3.45,0,7-.09,10.24-1.43a9.26,9.26,0,0,0,4.1-3.09,9,9,0,0,0,1.48-4.34c0-.06,0-.3,0-.63h0l3,6.64,1,2.29h13.69V47.67h6.87v8.27H790.43V53.3Z" style="fill:#577fab"/><path d="M316.06,50.65v-.2H246.47V42.19H212.22v8.26h0l-3.83-9-7.36.76v3.42H180.5c-.92-.12-1.87-.26-2.87-.42v4.47h0l-1.39.25-2.91.54V47.51H156.48V45.65h16.84V44.09H142.79v6.36h-3.44l-9.17-8.21.41-.05H103.24v8.27h0l-.33-.64-3.22-6.25V42.19H69.6v8.26H0V53.3H83.29V46.39h16.4l3.55,6.91h13.69V44.88l6.54,8.42h49.85l3-.56v0l1.31-.28,1.41.25.17,0h0a71.27,71.27,0,0,0,13.18,1.08c3.45,0,7-.09,10.24-1.43a9.26,9.26,0,0,0,4.1-3.09A9,9,0,0,0,208.21,45c0-.06,0-.3,0-.63h0l3,6.64,1,2.29h13.69V45h6.87V53.3H790.43V50.65Z" style="fill:#256b9d"/><path d="M316.06,48.05v-.24H246.47V39.55H212.22v8.26h0l-3.83-9-7.36.76V43H180.5c-.92-.12-1.87-.26-2.87-.41V47h0l-1.39.26-2.91.54v-3H156.48V43h16.84V41.44H142.79v6.37h-3.44l-9.17-8.22.41,0H103.24v8.26h0l-.33-.64h0l-3.22-6.26V39.55H69.6v8.26H0v2.84H83.29V43.74h16.4l3.55,6.91h13.69V42.23l6.54,8.42h49.85l3-.56v0l1.31-.28,1.41.25.17,0h0a71.27,71.27,0,0,0,13.18,1.08c3.45,0,7-.1,10.24-1.43a9.33,9.33,0,0,0,4.1-3.09,9,9,0,0,0,1.48-4.35c0-.06,0-.3,0-.62h0l3,6.65,1,2.28h13.69V42.39h6.87v8.26H790.43v-2.6Z" style="fill:#66ba99"/><path d="M316.06,45.52v-.31H246.47V37H212.22v8.26h0l-3.83-9L201,37v3.41H180.5c-.92-.12-1.87-.26-2.87-.41v4.46h0l-1.39.26-2.91.54v-3H156.48V40.41h16.84V38.85H142.79v6.36h-3.44L130.18,37l.41,0H103.24v8.26h0l-.33-.64h0l-3.22-6.26V37H69.6v8.26H0v2.84H83.29v-6.9h16.4l3.55,6.9h13.69V39.63l6.54,8.42h49.85l3-.55v0l1.31-.28,1.41.25.17,0h0a71.27,71.27,0,0,0,13.18,1.08c3.45,0,7-.1,10.24-1.43a9.33,9.33,0,0,0,4.1-3.09,9,9,0,0,0,1.48-4.35c0-.06,0-.3,0-.62h0l3,6.65,1,2.28h13.69V39.79h6.87v8.26H790.43V45.52Z" style="fill:#539a70"/><path d="M316.06,42.68H246.47V34.42H212.22v8.26h0l-3.83-9-7.36.76v3.41H180.5c-.92-.12-1.87-.26-2.87-.41v4.46h0l-1.39.26-2.91.54v-3H156.48V37.87h16.84V36.31H142.79v6.37h-3.44l-9.17-8.22.41,0H103.24v8.26h0l-.33-.64-3.22-6.26V34.42H69.6v8.26H0v2.84H83.29V38.61h16.4l3.55,6.91h13.69V37.1l6.54,8.42h49.85l3-.56v0l1.31-.28L179,45l.17,0h0a72.14,72.14,0,0,0,13.18,1.08c3.45,0,7-.1,10.24-1.43a9.33,9.33,0,0,0,4.1-3.09,9,9,0,0,0,1.48-4.35c0-.06,0-.3,0-.62h0l3,6.64,1,2.29h13.69V37.26h6.87v8.26H790.43V42.68Z" style="fill:#018a55"/><path d="M83.28,35.77v6.91H69.6V16.06H99.69V25H83.28v2.67H99.69v8.1Z" style="fill:#d8ded0"/><path d="M123.47,42.68l-6.54-8.42v8.42H103.24V16.06H128.9c3.23,0,5.15.48,6.74,1.75a7.49,7.49,0,0,1,2.88,6,7.38,7.38,0,0,1-2.92,5.91,9.47,9.47,0,0,1-5.42,1.91l9.17,11.06Zm-2.35-14a4.64,4.64,0,0,0,2.59-.48A2.81,2.81,0,0,0,125,25.67c0-1.79-.84-2.51-3-2.51h-5v5.51Z" style="fill:#d8ded0"/><path d="M142.78,42.68V16.06h30.53V24.6H156.47v2.47h16.84v6.39H156.47v2.23h16.84v7Z" style="fill:#d8ded0"/><path d="M177.62,34.57a91.62,91.62,0,0,0,14.89,1.28c1.2,0,1.83-.4,1.83-1.2s-.43-.91-1.87-.91h-2.24c-1.07,0-3.47-.16-5-.32-3.36-.36-5.39-1.28-6.75-3a8.07,8.07,0,0,1-1.56-5.1,8.36,8.36,0,0,1,3.16-7c2.35-1.75,7.06-2.75,13.25-2.75a75.07,75.07,0,0,1,14,1.31v7.83a100.74,100.74,0,0,0-10.73-.92h-3c-1.84,0-2.56.36-2.56,1.2,0,.67.56,1.07,1.48,1.07l4.79,0a21.85,21.85,0,0,1,6.86,1,6.93,6.93,0,0,1,4.19,6.63,8.61,8.61,0,0,1-4.15,7.26c-2.79,1.76-5.75,2.31-11.85,2.31a73,73,0,0,1-14.77-1.35Z" style="fill:#d8ded0"/><path d="M232.77,42.68V34.41h-6.86v8.27H212.22V16.06h13.69v9.42h6.86V16.06h13.69V42.68Z" style="fill:#d8ded0"/></svg>