<svg xmlns="http://www.w3.org/2000/svg" viewBox="0 0 330.23 75.92"><title>CapstonePartnersLogo_2015_Bluegrey</title><path d="M205.33,51.88l8.49-.32c11.4-.42,12.26,5.69,12.26,7.2,0,5.46-5.41,7.4-10,7.9l-.11-.57c3.54-.55,6.1-2.38,6.1-6.27,0-5.06-4.23-7.36-8.79-7.32V71.73c0,4.28.07,5.06,5.18,5.79v.59H205.06v-.59c4.66-.62,4.71-1.79,4.82-5.79V59.66c0-5.29,0-7-4.55-7.2Z" transform="translate(-6.03 -2.58)"/><path d="M235.34,68.45c.31-4.23-.78-6-3.86-6-2.68,0-2.41,1.28-2.41,3.42l-1.94.11c-.32,0-.9,0-.9-.38,0-1.05,4.28-5.1,7.44-5.1,3.58,0,4.67,2.72,4.67,5.84v5.52c0,3.42-.24,4.24,3.38,5v.59a15.23,15.23,0,0,1-3.93.86c-1.63,0-2.26-.94-2.45-2.46a6.91,6.91,0,0,1-4.94,2.65c-2.49,0-3.9-2.11-3.9-4.44a6.51,6.51,0,0,1,.23-1.7Zm-5.25,3.47a5.11,5.11,0,0,0-.28,1.55,2.78,2.78,0,0,0,2.72,3.08,4.21,4.21,0,0,0,2.81-1.44V69.23Z" transform="translate(-6.03 -2.58)"/><path d="M248.41,73.6c0,3.19.16,3.5,3.9,3.92v.59h-9.73v-.59c2.68-.42,2.8-.89,2.84-3.92V66.16c0-1.63,0-2.14-1.91-3.54v-.39l4.63-1.71.43.15-.16,4.59h.09c.85-2.06,3-4.74,5.48-4.74a1.84,1.84,0,0,1,2,1.79c0,1-1.13,2-2,2.45-.66-.5-1.63-1.36-2.49-1.28-3.31.3-3,5.6-3,6.19Z" transform="translate(-6.03 -2.58)"/><path d="M264.65,71.26c0,3.46,0,5.64,4.28,5.64a9.26,9.26,0,0,0,2.29-.27l.16.62a17.14,17.14,0,0,1-6.16,1.25c-3.77,0-3.57-2-3.57-5V62.93H259l-.2-.27,5.45-5.41h.36v4h6.14v1.63h-6.14Z" transform="translate(-6.03 -2.58)"/><path d="M274.92,66.16c0-1.63,0-2.14-1.91-3.54v-.39l4.64-1.71.42.15-.31,2.85c2.22-1.64,4.36-3,6.85-3,4.66,0,4.9,3.85,4.9,6.14V73.6c0,3.19.16,3.5,3,3.92v.59h-9.07v-.59c2.89-.42,3-.89,3-3.92V69.12c0-2.72.12-6.58-4.64-6.58a5.37,5.37,0,0,0-4,1.68V73.6c0,3.19.15,3.5,3,3.92v.59h-9.08v-.59c2.89-.42,3-.89,3.05-3.92Z" transform="translate(-6.03 -2.58)"/><path d="M297,68.18c-.3,4,2.46,7.83,6.86,7.83a5.44,5.44,0,0,0,4.59-2.45L309,74a8.56,8.56,0,0,1-7.16,4.52c-4.82,0-8.17-4-8.17-8.64,0-5,3.5-9.34,8.75-9.34a5.64,5.64,0,0,1,6,5.72H297.14Zm7.76-3c-.35-1.79-1.45-3.81-3.51-3.81-2.22,0-3.54,2.17-4,4.12Z" transform="translate(-6.03 -2.58)"/><path d="M315.87,73.6c0,3.19.15,3.5,3.89,3.92v.59H310v-.59c2.69-.42,2.79-.89,2.84-3.92V66.16c0-1.63,0-2.14-1.91-3.54v-.39l4.63-1.71.43.15-.15,4.59h.07c.86-2.06,3-4.74,5.49-4.74a1.84,1.84,0,0,1,2,1.79c0,1-1.13,2-2,2.45-.66-.5-1.63-1.36-2.49-1.28-3.31.3-3,5.6-3,6.19Z" transform="translate(-6.03 -2.58)"/><path d="M335.25,65.26l-.86.16c-.55-1.79-1.4-4-3.62-4a2.52,2.52,0,0,0-2.58,2.72c0,4,8.07,3.9,8.07,8.92,0,3.46-3.31,5.41-6.46,5.41a8.17,8.17,0,0,1-4.75-1.44l-.32-4.32.91-.16c.54,2.38,1.86,4.9,4.62,4.9a2.92,2.92,0,0,0,3-3.07c0-4.43-8.06-3.53-8.06-9.1,0-3,2.84-4.79,5.61-4.79a7.8,7.8,0,0,1,4.32,1.28Z" transform="translate(-6.03 -2.58)"/><path d="M64.57,39.38c-4.82-4.24-6.09-9.75-6.09-14.51a18.49,18.49,0,0,1,5.75-13.48c3.53-3.25,8.21-5.21,15.54-5.21a47.92,47.92,0,0,1,7.13.49c1.87.25,3.44.69,4.92.84.54,0,.73.29.73.59s-.14,1-.24,2.7,0,4.33-.15,5.31c0,.74-.15,1.13-.59,1.13s-.49-.39-.49-1.08a7,7,0,0,0-1.91-4.52c-1.63-1.73-5.47-3.05-10-3.05-4.27,0-7.07,1.07-9.24,3.05-3.59,3.29-4.52,8-4.52,12.73,0,11.71,8.9,17.51,15.49,17.51,4.38,0,7-.49,9-2.75a8.21,8.21,0,0,0,1.67-3.25c.15-.79.25-1,.64-1s.44.34.44.74a45.12,45.12,0,0,1-1.08,6.53,1.77,1.77,0,0,1-1.28,1.44c-2,.78-5.7,1.12-8.85,1.12C74.7,44.73,69.05,43.25,64.57,39.38Z" transform="translate(-6.03 -2.58)"/><path d="M105.15,31.21c-.26,0-.35.1-.45.4l-2.66,7a9.55,9.55,0,0,0-.73,3c0,.89.44,1.53,2,1.53H104c.59,0,.74.09.74.39s-.3.5-.84.5c-1.57,0-3.68-.16-5.21-.16-.54,0-3.25.16-5.8.16-.64,0-.94-.1-.94-.5s.2-.39.59-.39a14.56,14.56,0,0,0,1.53-.1c2.26-.29,3.2-2,4.18-4.42L110.6,7.75c.6-1.43.89-2,1.38-2s.74.45,1.23,1.58c1.18,2.7,9.05,22.77,12.2,30.24,1.86,4.43,3.29,5.12,4.32,5.36a10.68,10.68,0,0,0,2.07.2c.39,0,.64.05.64.39s-.44.5-2.26.5-5.36,0-9.3-.1c-.88-.06-1.47-.06-1.47-.4s.19-.39.69-.44a.79.79,0,0,0,.43-1.13L116.6,31.55a.47.47,0,0,0-.49-.34Zm10-2.46c.26,0,.3-.15.26-.3L111,16.31c0-.2-.1-.45-.25-.45s-.24.25-.29.45l-4.52,12.1c-.06.19,0,.34.19.34Z" transform="translate(-6.03 -2.58)"/><path d="M139.57,21.13c0-7.48,0-8.85-.1-10.43s-.49-2.46-2.11-2.8a10,10,0,0,0-1.92-.15c-.54,0-.84-.1-.84-.44s.34-.45,1.08-.45c2.61,0,5.71.15,7.08.15,2,0,4.88-.15,7.14-.15,6.15,0,8.36,2.07,9.15,2.8a8.58,8.58,0,0,1,2.45,5.86c0,7-5.11,11.9-12.09,11.9a7.25,7.25,0,0,1-1-.05c-.24,0-.58-.09-.58-.44s.34-.54,1.37-.54c2.75,0,6.59-3.1,6.59-8.12a9.47,9.47,0,0,0-2.9-7.37A7.78,7.78,0,0,0,146,9.17c-.24.11-.39.4-.39.94V29.78c0,4.53,0,8.41.25,10.53.14,1.38.44,2.46,1.92,2.65a20.24,20.24,0,0,0,2.5.2c.54,0,.79.15.79.39s-.39.5-.93.5c-3.25,0-6.35-.16-7.63-.16s-4.23.16-6.19.16c-.65,0-1-.16-1-.5s.2-.39.79-.39a7.86,7.86,0,0,0,1.77-.2c1-.19,1.23-1.27,1.43-2.71.24-2.06.24-5.94.24-10.47Z" transform="translate(-6.03 -2.58)"/><path d="M167.36,43.45c-.79-.34-.94-.59-.94-1.67,0-2.7.2-5.65.25-6.44s.2-1.28.59-1.28.49.44.49.84a10.27,10.27,0,0,0,.45,2.51c1.08,3.64,4,5,7,5,4.42,0,6.59-3,6.59-5.6,0-2.42-.74-4.72-4.82-7.87l-2.27-1.77c-5.4-4.23-7.27-7.68-7.27-11.66,0-5.41,4.52-9.29,11.35-9.29a24.11,24.11,0,0,1,6.55.83c.44.1.69.25.69.59,0,.64-.2,2.06-.2,5.91,0,1.08-.15,1.47-.54,1.47s-.49-.3-.49-.88a6,6,0,0,0-1.28-3.25,6.21,6.21,0,0,0-5.36-2.41c-3.64,0-5.85,2.11-5.85,5.07,0,2.26,1.13,4,5.21,7.08l1.38,1c5.9,4.57,8.06,7.87,8.06,12.54a9.93,9.93,0,0,1-4.62,8.56,14.23,14.23,0,0,1-7.82,2A17,17,0,0,1,167.36,43.45Z" transform="translate(-6.03 -2.58)"/><path d="M205.22,9.62l-7.32.19c-2.85.1-4,.35-4.77,1.43A5.36,5.36,0,0,0,192.3,13c-.1.39-.25.59-.55.59s-.44-.25-.44-.79c0-.79.94-5.26,1-5.66.15-.64.29-.93.59-.93a11.54,11.54,0,0,0,2.12.59c1.42.15,3.29.24,4.92.24h19.47a21.57,21.57,0,0,0,4.72-.49c.34,0,.4.29.4,1,0,1-.16,4.43-.16,5.71-.05.49-.14.78-.44.78s-.49-.24-.54-1l0-.55c-.1-1.28-1.42-2.66-5.8-2.75l-6.2-.15V29.78c0,4.53,0,8.41.25,10.53.15,1.38.44,2.46,1.92,2.65a20.25,20.25,0,0,0,2.51.2c.54,0,.79.15.79.39s-.4.5-.94.5c-3.24,0-6.34-.16-7.72-.16-1.13,0-4.23.16-6.2.16-.64,0-1-.16-1-.5s.2-.39.79-.39a7.76,7.76,0,0,0,1.76-.2c1-.19,1.28-1.27,1.43-2.71.24-2.06.24-5.94.24-10.47Z" transform="translate(-6.03 -2.58)"/><path d="M224.65,25.46c0-8.41,5.56-19.28,20.31-19.28,12.25,0,19.87,7.13,19.87,18.39S257,44.73,244.47,44.73C230.36,44.73,224.65,34.16,224.65,25.46Zm33.3.93c0-11-6.35-17.85-14.42-17.85-5.64,0-12.09,3.15-12.09,15.39,0,10.23,5.66,18.35,15.1,18.35C250,42.28,258,40.6,258,26.39Z" transform="translate(-6.03 -2.58)"/><path d="M274.18,37.36c.09,3.84.73,5.11,1.72,5.46a8,8,0,0,0,2.56.34c.54,0,.84.09.84.39s-.45.5-1.14.5c-3.2,0-5.16-.16-6.1-.16-.44,0-2.75.16-5.31.16-.64,0-1.08,0-1.08-.5,0-.3.3-.39.79-.39a8.57,8.57,0,0,0,2.21-.25c1.27-.39,1.47-1.82,1.53-6.1l.44-29.11c0-1,.14-1.67.64-1.67s1,.64,1.82,1.52c.59.64,8.06,8.66,15.24,15.79,3.35,3.34,10,10.43,10.82,11.21h.25l-.49-22.08c-.05-3-.49-3.93-1.68-4.43a8.09,8.09,0,0,0-2.6-.29c-.59,0-.79-.15-.79-.44s.55-.45,1.28-.45c2.55,0,4.92.15,5.95.15.54,0,2.4-.15,4.82-.15.64,0,1.13.06,1.13.45s-.29.44-.89.44a5.28,5.28,0,0,0-1.47.15c-1.38.39-1.77,1.43-1.82,4.18l-.54,31c0,1.08-.2,1.52-.64,1.52s-1.13-.53-1.67-1.08c-3.1-2.95-9.4-9.39-14.51-14.46-5.36-5.3-10.82-11.46-11.71-12.39h-.14Z" transform="translate(-6.03 -2.58)"/><path d="M316,21.13c0-7.48,0-8.85-.1-10.43s-.49-2.46-2.11-2.8a10,10,0,0,0-1.92-.15c-.54,0-.83-.1-.83-.44s.33-.45,1.07-.45c2.61,0,5.71.15,7.09.15,1.57,0,11.36,0,12.29,0a20.54,20.54,0,0,0,2.12-.29,4.16,4.16,0,0,1,.79-.2c.24,0,.28.2.28.45s-.23.93-.39,3.19c0,.49-.15,2.66-.25,3.25,0,.24-.14.54-.48.54s-.44-.25-.44-.69a5.43,5.43,0,0,0-.3-1.77c-.34-.89-.84-1.48-3.29-1.78-.84-.09-6-.19-7-.19-.24,0-.34.15-.34.49V22.41c0,.34,0,.54.34.54,1.08,0,6.74,0,7.87-.1a3.44,3.44,0,0,0,2.36-.74c.35-.39.54-.64.79-.64s.34.1.34.39-.24,1.09-.39,3.6c-.1,1-.2,2.95-.2,3.29s0,.93-.44.93-.45-.19-.45-.44a11.28,11.28,0,0,0-.19-1.77c-.25-1-.93-1.72-2.75-1.92-.94-.09-5.81-.15-7-.15-.25,0-.29.2-.29.5v3.88c0,1.68-.06,6.2,0,7.63.1,3.39.88,4.13,5.9,4.13a12.27,12.27,0,0,0,4.62-.6c1.28-.58,1.87-1.62,2.21-3.63.11-.54.2-.74.55-.74s.39.39.39.88a37.94,37.94,0,0,1-.64,5.46c-.35,1.28-.78,1.28-2.65,1.28-7.44,0-10.73-.3-13.63-.3-1.13,0-4.23.16-6.2.16-.64,0-1-.16-1-.5s.19-.39.79-.39a7.69,7.69,0,0,0,1.76-.2c1-.19,1.24-1.27,1.44-2.71.24-2.06.24-5.94.24-10.47Z" transform="translate(-6.03 -2.58)"/><polyline points="2.51 46.1 23.01 25.6 43.5 46.1"/><polyline points="0 2.8 20.48 23.29 0 43.78"/><polyline points="43.4 0 22.92 20.5 2.4 0"/><polyline points="46.07 43.9 25.57 23.4 46.07 2.9"/><rect x="3.77" y="3.64" width="38.27" height="38.28" style="fill:#666;stroke:#fff;stroke-width:0.642803px;opacity:0.45"/></svg>