<svg xmlns="http://www.w3.org/2000/svg" viewBox="0 0 215.13 58.68"><title>sizzle_pie_logo</title><path d="M1.2,42.72H9.14c0,1.19-.05,2.31,0,3.43.13,2.19.89,2.71,3.5,2.72,1.9,0,3.06-.6,3-2.72,0-3.47,0-6.94,0-10.41,0-1.94-1-2.75-2.81-2.75s-3.47,0-5.2,0a6.38,6.38,0,0,1-6.46-6.49q-.09-9.31,0-18.65a6.46,6.46,0,0,1,6.6-6.59q4.67-.08,9.33,0A6.41,6.41,0,0,1,23.64,7c.22,2.57,0,5.17,0,7.9h-8c0-1.18,0-2.39,0-3.59A2.13,2.13,0,0,0,13.21,9c-1.69,0-3.87-.43-4,2.11-.18,4-.08,7.94,0,11.92a2,2,0,0,0,2.29,2.08c1.74,0,3.48,0,5.21,0,4.21.06,7,2.75,7,6.9q.06,8.68,0,17.35c0,4.22-2.73,6.92-6.92,7-2.82,0-5.64,0-8.46-.05C3.91,56.19,1.22,53.43,1.2,49,1.19,47,1.2,45,1.2,42.72Z" transform="translate(-1.17 -1.21)"/><path d="M160.63,55.79h-7.46V1.71c.72,0,1.42-.1,2.12-.1,4.4,0,8.81-.05,13.22,0,3.83.06,6.57,2.52,6.66,6.27.14,6,.15,12,0,18-.1,3.77-2.86,6.2-6.66,6.29-2,0-4.05.09-6.07,0-1.45-.07-1.84.49-1.83,1.89.06,6.43,0,12.86,0,19.29Zm.12-31.53c1.52,0,2.88,0,4.24,0a2,2,0,0,0,2.14-2.2c0-3.61.12-7.22-.09-10.82a3,3,0,0,0-1.93-2.06,17.92,17.92,0,0,0-4.36-.1Z" transform="translate(-1.17 -1.21)"/><path d="M195.43,1.72h17V8.93h-9.36v14.8h6.45v7.45H203.1V48.4h9.35v7.36h-17Z" transform="translate(-1.17 -1.21)"/><path d="M136.92,1.76V8.94h-9.38V23.73H134v7.44h-6.5V48.32h9.39v7.45h-17v-54Z" transform="translate(-1.17 -1.21)"/><path d="M91,48.39v7.4H70.72c.27-3.15,0-6.34.87-9.2,3.49-11.6,7.32-23.11,11-34.65.28-.88.53-1.77.88-2.93H71.05V1.77H91.31c-.27,3.07,0,6.33-.92,9.25-3.57,11.8-7.5,23.5-11.29,35.24-.19.61-.36,1.23-.63,2.13Z" transform="translate(-1.17 -1.21)"/><path d="M43.64,55.75c.39-3.42.29-6.82,1.22-9.9,3.49-11.54,7.31-23,11-34.46.22-.67.37-1.37.61-2.3H44.11V1.73H64.43c-.32,3.17-.13,6.43-1,9.36C59.86,22.83,56,34.47,52.21,46.15c-.22.68-.39,1.36-.64,2.25H64v7.35Z" transform="translate(-1.17 -1.21)"/><path d="M104,48.44h9.55v7.33H96.85v-54H104Z" transform="translate(-1.17 -1.21)"/><path d="M181.32,1.69h7.59V55.78h-7.59Z" transform="translate(-1.17 -1.21)"/><path d="M30,1.7h7.51V55.78H30Z" transform="translate(-1.17 -1.21)"/><path d="M154.45,56.85h7.23V33.3c2.14,0,4,0,6,0,5.55,0,8.54-3.06,8.55-8.63,0-5.92,0-11.83,0-18.11a6.07,6.07,0,0,1,2.51,5c0,5.85.07,11.71,0,17.57a6.34,6.34,0,0,1-6.22,6.51c-2.65.16-5.31,0-8.28,0V59C159.68,60.25,156.2,59.54,154.45,56.85Z" transform="translate(-1.17 -1.21)"/><path d="M192.44,59.58c-3.35-.93-7.23,1.52-10-2.63H190V3c1.59.94,2.66,1.71,2.65,3.5q0,25.92,0,51.83C192.58,58.56,192.52,58.84,192.44,59.58Z" transform="translate(-1.17 -1.21)"/><path d="M65.55,3.14c1.67.95,2,2.33,2.19,4.15.46,5.11-1.47,9.64-2.95,14.29-2.45,7.71-5,15.38-7.46,23.07-.93,2.89-.93,2.89-4.3,2.49.61-1.93,1.18-3.83,1.79-5.72,3.21-10,6.54-19.88,9.59-29.89C65.21,8.91,65.18,6,65.55,3.14Z" transform="translate(-1.17 -1.21)"/><path d="M80,47.1c1.89-5.9,3.75-11.72,5.63-17.55,2-6.1,4.08-12.16,5.85-18.32.73-2.56.72-5.34,1.06-8.08,1.65.89,2,2.28,2.18,4.15.54,6.1-2.14,11.41-3.8,17-2.06,6.83-4.49,13.54-6.5,20.39C83.67,47,82.6,47.86,80,47.1Z" transform="translate(-1.17 -1.21)"/><path d="M41.2,59.29c-9.07.18-7.7.63-9.89-2.34h7.42v-54A4.32,4.32,0,0,1,41.25,7.1c-.08,16.64,0,33.28,0,49.93Z" transform="translate(-1.17 -1.21)"/><path d="M25.6,30.3c.55,1.63,1.52,3.25,1.57,4.89.19,6.07.13,12.15,0,18.22a6.34,6.34,0,0,1-6.52,6.42,86.46,86.46,0,0,1-9.11-.11,25.52,25.52,0,0,1-5.12-1.56l.18-.84h8.94c6.5,0,9.16-2.65,9.15-9.22V30.59Z" transform="translate(-1.17 -1.21)"/><path d="M105.28,3a4.2,4.2,0,0,1,2.39,4.18c-.08,12.57,0,25.14,0,37.71v2.28h-2.35Z" transform="translate(-1.17 -1.21)"/><path d="M130.92,22.58l-2.4.13V10H138V3.28c3.08,1.32,2.78,1.47,2.39,9.25h-9.43Z" transform="translate(-1.17 -1.21)"/><path d="M213.56,2.83c4.14,2.68,1.85,6.35,2.71,9.61h-9.65V22.56l-2.54.14V10h9.48Z" transform="translate(-1.17 -1.21)"/><path d="M204.11,32.22h6.74v-7c2.77,1.93,3.21,3.93,2.2,9.4h-6.46V47.18l-2.48.2Z" transform="translate(-1.17 -1.21)"/><path d="M67.53,59.41c-6.55,0-13,.07-19.37-.09-.93,0-1.83-1.15-2.74-1.77L45.6,57H65.13V50C68.16,51.62,67.75,51.15,67.53,59.41Z" transform="translate(-1.17 -1.21)"/><path d="M92.17,56.92V49.8c4.13,2.47,1.68,6.24,2.67,9.61H92.46c-5.35,0-10.7-.09-16,.05-1.94,0-3-.78-4.12-2.54Z" transform="translate(-1.17 -1.21)"/><path d="M135.25,32.31V25.13c4.09,2.59,1.84,6.26,2.59,9.58h-6.91V47.19l-2.41.17v-15Z" transform="translate(-1.17 -1.21)"/><path d="M138.08,56.93V49.85c4.22,2.43,1.68,6.23,2.74,9.56h-6.29c-3.1,0-6.21-.11-9.31,0-1.92.09-3.09-.71-4.17-2.52Z" transform="translate(-1.17 -1.21)"/><path d="M196.67,56.89H213.5v-7.2c4.22,2.65,1.9,6.4,2.81,9.72-5.24,0-10.12-.08-15,0C199.34,59.5,197.79,59.12,196.67,56.89Z" transform="translate(-1.17 -1.21)"/><path d="M114.89,57V50c2.75,1.66,3,3,2.22,9.36-5.37,0-10.77.09-16.16-.08-.94,0-1.84-1.16-2.76-1.78l.17-.53Z" transform="translate(-1.17 -1.21)"/><path d="M24.7,16.08v-10c3.95,3.72,2,8.17,2.62,12.07-4.39,1.25-8.31.49-10.16-2.11Z" transform="translate(-1.17 -1.21)"/><path d="M10.27,17c0-1.8-.1-3.61.06-5.4.05-.58.75-1.53,1.2-1.56a11.08,11.08,0,0,1,3,.56c-.3.76-.6,1.51-.89,2.27a8.2,8.2,0,0,0-.85,2.31c-.12,2.3,0,4.61-.1,6.91,0,.67-.54,1.8-1,1.87-1.44.24-1.47-.92-1.45-2C10.29,20.35,10.27,18.7,10.27,17Z" transform="translate(-1.17 -1.21)"/><path d="M55.39,10.16c-.66,1-1,2.06-1.62,2.28-3,1-6.77-.09-8.3-2.28Z" transform="translate(-1.17 -1.21)"/><path d="M72.31,10.12h10c-.65,1-1,2.08-1.58,2.31C78,13.44,74,12.32,72.31,10.12Z" transform="translate(-1.17 -1.21)"/><path d="M6.29,34.12c2.45,0,4.64-.06,6.82,0,1.44,0,1.49.23,1.37,2.27C11.58,36.62,8.68,36.9,6.29,34.12Z" transform="translate(-1.17 -1.21)"/><path d="M10.93,44.15l2.2,3.21C10.23,47.91,10,47.59,10.93,44.15Z" transform="translate(-1.17 -1.21)"/><path d="M164.22,12.81V23.14l-2.31.16v-13c1.46,0,3.13-1,4.11.85.18.34-.76,1.28-1.19,1.95Z" transform="translate(-1.17 -1.21)"/></svg>