<svg xmlns="http://www.w3.org/2000/svg" width="65.19" height="40" viewBox="0 0 65.19 40"><title>babydollpizza</title><g id="Layer_2" data-name="Layer 2"><g id="Layer_1-2" data-name="Layer 1"><path d="M62.22,40c-.59,0-1.14,0-1.69,0a45.15,45.15,0,0,1-6.12-.7A72.73,72.73,0,0,1,45.59,37a54.44,54.44,0,0,0-8-2c-1.36-.21-2.73-.35-4.1-.44a33.93,33.93,0,0,0-11.77,1.77c-2.79.83-5.58,1.67-8.4,2.4A38.68,38.68,0,0,1,5.23,40c-.65,0-1.3,0-2,0C3,40,2.94,40,3,39.68A3,3,0,0,0,.42,36.44C.1,36.4,0,36.29,0,36Q0,22,0,8.09c0-.3.05-.41.38-.46A2.91,2.91,0,0,0,2.9,5.34C3,5.13,3,5,3.28,5A39.6,39.6,0,0,0,14,3.66c2.17-.55,4.3-1.22,6.45-1.84A44.7,44.7,0,0,1,28.9.15a40.32,40.32,0,0,1,7.37,0A52.41,52.41,0,0,1,47.12,2.54a58.17,58.17,0,0,0,9.29,2.14A31.14,31.14,0,0,0,61.86,5a.36.36,0,0,1,.44.32,2.92,2.92,0,0,0,2.56,2.28c.29,0,.33.15.33.4q0,6.74,0,13.46,0,7.11,0,14.21c0,.26,0,.39-.34.44a3.3,3.3,0,0,0-2.63,3.56A2.57,2.57,0,0,1,62.22,40Zm1.26-18.36V9.6c0-.45-.08-.54-.51-.56a2.49,2.49,0,0,1-2.24-1.95c-.09-.47-.1-.49-.59-.48a33.36,33.36,0,0,1-5.65-.42A58.89,58.89,0,0,1,45.7,4.08a42.62,42.62,0,0,0-14-2.19,36.76,36.76,0,0,0-7.9,1c-2,.51-4.06,1.14-6.09,1.72a44.49,44.49,0,0,1-12.81,2c-.31,0-.39.16-.44.42A2.48,2.48,0,0,1,2.34,9c-.61.05-.63.08-.63.69v24c0,.39.07.47.46.49A2.48,2.48,0,0,1,4.48,37c-.06.41,0,.53.47.54a30.8,30.8,0,0,0,5.51-.36A57.34,57.34,0,0,0,20.7,34.68a35.69,35.69,0,0,1,8.58-2.06,34.9,34.9,0,0,1,6,0,34.13,34.13,0,0,1,7.22,1.46c3,1,6.08,2,9.22,2.6a37.81,37.81,0,0,0,8.55.9c.44,0,.54-.12.48-.56a2.48,2.48,0,0,1,2.22-2.79c.54-.07.55-.08.55-.62Z"/><path d="M62.87,9.68V10c0,3.55,0,7.1,0,10.65,0,.29-.07.4-.36.46a26.45,26.45,0,0,1-6,.32A49.74,49.74,0,0,1,44.43,19a40.76,40.76,0,0,0-10.75-1.82,40.87,40.87,0,0,0-13.79,2.08,44.68,44.68,0,0,1-8.07,1.83,28.63,28.63,0,0,1-9-.18c-.32-.06-.46-.15-.46-.52,0-3.43,0-6.85,0-10.28V9.69l.3-.08A3,3,0,0,0,5,7.47c.06-.17.12-.25.32-.25A41.56,41.56,0,0,0,16,5.71c2.17-.58,4.31-1.27,6.48-1.85a38.88,38.88,0,0,1,8.66-1.35A41.48,41.48,0,0,1,45.3,4.6,54.88,54.88,0,0,0,55,6.87c1.57.2,3.16.25,4.74.35.26,0,.39,0,.48.32a3,3,0,0,0,2.28,2.05ZM23.76,11.41l.15-.21a3.69,3.69,0,0,0,.53-3.44,1.39,1.39,0,0,0-1-1,2.72,2.72,0,0,0-1.06-.08c-1.06.21-2.1.49-3.15.75a.35.35,0,0,0-.19.25c0,.62,0,1.23-.06,1.85q-.09,3-.17,6.07c0,.56,0,1.13,0,1.72A14.86,14.86,0,0,0,23,16.07a2.75,2.75,0,0,0,1.44-1.76,5.74,5.74,0,0,0,.19-.82C24.79,12.42,24.54,11.82,23.76,11.41Zm12-5.91c0,.67,0,1.25,0,1.83-.06,2.52-.13,5.05-.18,7.57a.32.32,0,0,0,.19.27,10.2,10.2,0,0,0,1.45.24A4.12,4.12,0,0,0,41.9,12.1a8.36,8.36,0,0,0,.21-2.82A3.44,3.44,0,0,0,39.32,6C38.2,5.73,37.05,5.66,35.8,5.5ZM9.57,14l.23-.26a3.14,3.14,0,0,0,.76-1.89,2.13,2.13,0,0,0-2-2.38l-2.1-.17L5.14,9.21c0,1.39-.08,2.73-.1,4.07C5,15,5,16.79,4.92,18.54c0,.24.08.34.3.39.52.12,1,.27,1.56.38a3,3,0,0,0,3.73-2.6C10.56,15.69,10.56,14.7,9.57,14Zm33.12-1.21c0,.28,0,.69.09,1.1a4.22,4.22,0,0,0,.85,2.23,2.27,2.27,0,0,0,1.9,1A3.64,3.64,0,0,0,48.75,15a8,8,0,0,0,.79-4.82,3.17,3.17,0,0,0-6-1.29A7.92,7.92,0,0,0,42.69,12.82ZM13.15,18.71a7.71,7.71,0,0,0,.21-1c.05-.41.21-.6.64-.63s1.1-.15,1.66-.23l.34,1.4,2.2-.59L15.63,8.79c-.61.1-1.19.2-1.76.26a.52.52,0,0,0-.51.45c-.79,3-1.6,6-2.4,9a2.52,2.52,0,0,0-.06.35Zm16.13-3.46v-.41c0-1.2,0-2.39,0-3.59a1.4,1.4,0,0,1,.15-.6Q30.69,8.22,32,5.8a2.9,2.9,0,0,0,.11-.27c-.88,0-1.7,0-2.53,0a.46.46,0,0,0-.27.26c-.32.8-.61,1.61-.91,2.42l-.12.21L26.9,5.69l-2.48.54.17.36c.74,1.45,1.48,2.89,2.21,4.34a1.12,1.12,0,0,1,.12.54c0,.81-.09,1.62-.12,2.44,0,.5,0,1,0,1.54ZM60.87,20V17.6l-2.41-.3.32-7.89-2.63-.2a1.54,1.54,0,0,0,0,.19c0,1.79-.09,3.57-.13,5.36L55.88,19c0,.25,0,.37.32.4.93.11,1.84.25,2.76.37ZM50.73,8.62l-.42,9.89,4.87.7V16.89l-2.46-.34.49-7.67Z"/><path d="M54.09,35.61l-.8-.43c-.53-.27-1-.55-1.59-.79a.53.53,0,0,1-.34-.48c-.09-.64-.21-1.28-.33-1.91a.44.44,0,0,0-.22-.29c-.66-.29-1.34-.55-2.05-.84l-.45,2L45.53,32l2.8-10.14a.79.79,0,0,1,.22,0c.93.28,1.86.55,2.79.85a.48.48,0,0,1,.28.31c.84,4.16,1.66,8.32,2.49,12.48A1.05,1.05,0,0,1,54.09,35.61Zm-3.47-6.09-.68-3.92h-.08L49.16,29l1.27.48Z"/><path d="M39.07,28.42c1,.17,2,.33,3,.52.6.11,1.2.25,1.8.4a.35.35,0,0,1,.22.24c0,.65,0,1.3,0,2a44.33,44.33,0,0,0-8.25-1.32c0-.7,0-1.37,0-2,0-.13.14-.27.24-.38l4.74-5.13.23-.26L35.94,22v-2c.39,0,.76,0,1.14,0A55,55,0,0,1,44,20.8c.2,0,.29.1.28.31,0,.57,0,1.15,0,1.72a.78.78,0,0,1-.2.42l-4.71,4.88C39.24,28.21,39.18,28.3,39.07,28.42Z"/><path d="M29.23,28.23l3-.15c.62,0,1.24,0,1.85,0,.09,0,.25.13.25.2,0,.63,0,1.25,0,1.93a43.1,43.1,0,0,0-8.33.61c0-.73,0-1.42,0-2.11,0-.12.11-.24.19-.34l4.7-6L31.2,22a47.8,47.8,0,0,0-5.11.39V20.26a54.09,54.09,0,0,1,8.36-.42c0,.71,0,1.37,0,2a.64.64,0,0,1-.18.3l-4.74,5.67Z"/><path d="M12.4,35.63v-.39c0-3.74,0-7.47,0-11.21a.46.46,0,0,1,.36-.53c1.32-.42,2.62-.89,3.95-1.29a3,3,0,0,1,1.12-.1,2,2,0,0,1,1.85,2.07,4.56,4.56,0,0,1-2.15,4.27,17.14,17.14,0,0,1-2.26,1.15.47.47,0,0,0-.33.5c0,1.31,0,2.62,0,3.92a.43.43,0,0,1-.28.46C13.92,34.84,13.19,35.23,12.4,35.63Zm2.54-8.24.09.08c.42-.24.86-.45,1.26-.72a1.48,1.48,0,0,0,.6-1c.18-.92-.28-1.32-1.16-1l-.12,0c-.67.24-.67.24-.67.94Z"/><path d="M24.16,20.54v.36q0,5,0,9.93c0,.28-.08.38-.35.44-.77.17-1.54.37-2.35.57,0-.14,0-.27,0-.4V28q0-3.3,0-6.61c0-.25.06-.37.33-.41.7-.1,1.39-.24,2.08-.37Z"/><path d="M10.4,29.58c-.63.18-1.25.4-1.89.52a1.1,1.1,0,0,0-.93.85c-.15.52-.37,1-.59,1.59-.34-.76-.65-1.45-.94-2.15a.47.47,0,0,0-.5-.34C5.06,30,4.56,30,4,30c.46-.5.89-1,1.33-1.42a.76.76,0,0,0,.25-.65c0-.56,0-1.11-.08-1.77.38.31.71.56,1,.81.56.44.39.41.86-.05s1-1,1.59-1.48l-.18,1.2c-.1.58-.19,1.16-.3,1.75,0,.19.06.28.22.35l1.66.79Z"/><path d="M55,28.15c.79-.22,1.5-.43,2.21-.61a.6.6,0,0,0,.48-.44c.2-.58.43-1.14.68-1.8A15.15,15.15,0,0,1,59,26.8c.21.61.49,1,1.23.9a4.86,4.86,0,0,1,1,.07c-.44.47-.84.92-1.26,1.34a.8.8,0,0,0-.25.69c0,.51.06,1,.09,1.62-.45-.35-.83-.62-1.18-.92-.19-.16-.3-.15-.47,0-.54.55-1.09,1.09-1.7,1.6l.21-1.36.24-1.42a.3.3,0,0,0-.2-.39C56.13,28.71,55.59,28.44,55,28.15Z"/><path d="M21.34,10.76c0-.67,0-1.34,0-2a.29.29,0,0,1,.17-.17.62.62,0,0,1,.91.49,2.82,2.82,0,0,1-.09,1.08A.86.86,0,0,1,21.34,10.76Z"/><path d="M21.25,14.87c0-.6,0-1.19,0-1.79,0-.09.24-.2.39-.24.55-.15.86.12.83.7A1.39,1.39,0,0,1,21.25,14.87Z"/><path d="M38.09,13.28c0-.4,0-.77,0-1.14.06-1.3.13-2.59.19-3.89,0-.33.08-.39.41-.32a1.15,1.15,0,0,1,.87.84,4.9,4.9,0,0,1,0,2.71,4.57,4.57,0,0,1-.51,1.26A1.11,1.11,0,0,1,38.09,13.28Z"/><path d="M7,17.3c0-.65.08-1.27.11-1.88,0-.19.11-.24.29-.22a1,1,0,0,1,1,1.05,1,1,0,0,1-.9,1.05A3.35,3.35,0,0,1,7,17.3Z"/><path d="M7.17,13.13l.12-1.91a.77.77,0,0,1,.88.33,1.35,1.35,0,0,1-.05,1.31A.84.84,0,0,1,7.17,13.13Z"/><path d="M47.21,11.63c-.16.91-.29,1.82-.49,2.72-.13.59-.45.88-.78.84-.49-.07-.58-.5-.67-.87a7.74,7.74,0,0,1,.44-4.75c.08-.2.31-.48.48-.48s.4.25.51.45A5.68,5.68,0,0,1,47.21,11.63Z"/><path d="M14.55,13.21l.57,1.65-1.09.2.45-1.85Z"/></g></g></svg>