<svg xmlns="http://www.w3.org/2000/svg" width="260.45" height="59.88" viewBox="0 0 260.45 59.88"><title>deschutesbrewery</title><g id="Layer_2" data-name="Layer 2"><g id="Layer_1-2" data-name="Layer 1"><g id="OWOqIz.tif"><path d="M260.67,23.74c-.92,1-1.87,2-2.76,3a2.91,2.91,0,0,1-2.49,1c-4.84,0-9.69,0-14.53,0-.88,0-1-.11-1-1V23.4c0-.72.14-.86.87-.86h12c1.41,0,1.73-.32,1.73-1.75v-3.1c0-1.08-.4-1.47-1.51-1.47-2.8,0-5.6,0-8.41,0a2.17,2.17,0,0,1-1.74-.74c-.74-.83-1.54-1.6-2.33-2.39a1.93,1.93,0,0,1-.62-1.48c0-2.29,0-4.58,0-6.86a2.27,2.27,0,0,1,.53-1.31c.81-.94,1.71-1.79,2.55-2.69A1.68,1.68,0,0,1,244.31.2h13.85c.59,0,.82.19.81.79,0,1.21,0,2.43,0,3.64,0,.72-.11.82-.84.82H247.67c-1.32,0-1.7.37-1.7,1.68V9.36c0,1.06.44,1.51,1.5,1.51,2.83,0,5.65,0,8.47,0a2.09,2.09,0,0,1,1.69.72c.79.84,1.63,1.63,2.42,2.47a7.17,7.17,0,0,1,.62.9Z" transform="translate(-0.22 -0.2)"/><path d="M9.66.2h8.48a1.79,1.79,0,0,1,1.42.59c1.45,1.51,3,3,4.38,4.53a2.11,2.11,0,0,1,.52,1.31q.06,7.36,0,14.72a2.09,2.09,0,0,1-.53,1.3c-1.43,1.54-2.93,3-4.39,4.53a1.94,1.94,0,0,1-1.48.63H1.12c-.78,0-.89-.11-.89-.89,0-1.22,0-2.44,0-3.65,0-.52.19-.79.73-.75s.76-.28.76-.8V6.25c0-.52-.2-.83-.76-.8S.21,5.23.22,4.71c0-1.26,0-2.51,0-3.77C.21.36.47.19,1,.2ZM7.8,14v7.41c0,1,0,1.1,1.06,1.1,1.63,0,3.26,0,4.88,0,2.91,0,2,.29,4-1.74a2,2,0,0,0,.61-1.55c0-3,0-6.05,0-9.08,0-2.85.35-2-1.76-4.15a2.06,2.06,0,0,0-1.3-.54c-2.2-.06-4.41,0-6.61,0-.75,0-.88.14-.88.92C7.79,8.92,7.8,11.47,7.8,14Z" transform="translate(-0.22 -0.2)"/><path d="M125,21.71V27c0,.68-.14.83-.83.83-2,0-4,0-5.94,0-.57,0-.82-.22-.81-.81,0-1.23,0-2.47,0-3.71,0-.49.12-.78.68-.79s.8-.17.81-.93V6.48c0-.87-.06-.94-.92-1-.36,0-.57-.2-.57-.59,0-1.36,0-2.72,0-4.08,0-.42.21-.59.62-.59h6.3c.54,0,.66.28.66.75,0,2.82,0,5.65,0,8.47,0,.87.1,1,1,1h7.29c.9,0,1-.05,1-.93V1.17c0-.88.09-1,.95-1,2,0,3.91,0,5.87,0,.58,0,.82.2.81.79,0,1.24,0,2.47,0,3.71,0,.52-.2.78-.73.75s-.77.28-.77.84q0,7.69,0,15.4c0,.56.18.86.79.82s.71.2.71.7q0,2,0,3.9a.61.61,0,0,1-.68.69h-6.24c-.59,0-.71-.37-.71-.87,0-1.83,0-3.67,0-5.5,0-1.67,0-3.34,0-5,0-.55-.18-.78-.75-.77h-7.73c-.54,0-.74.23-.73.74C125,18.16,125,19.94,125,21.71Z" transform="translate(-0.22 -0.2)"/><path d="M157.2,11.15V21c0,1.18.37,1.56,1.55,1.56h6.06c1.2,0,1.59-.4,1.59-1.59V1.16c0-.91,0-1,.94-1,2,0,3.91,0,5.87,0,.6,0,.82.25.82.81,0,1.21,0,2.43,0,3.65,0,.42-.1.76-.64.8-.82.06-.89.15-.89,1V20.29c0,1,0,2.06,0,3.09a1.94,1.94,0,0,1-.45,1.09,37.68,37.68,0,0,1-2.74,2.77,2.19,2.19,0,0,1-1.3.54q-6.22.06-12.43,0a2.06,2.06,0,0,1-1.27-.5c-.91-.83-1.74-1.76-2.61-2.63a1.93,1.93,0,0,1-.6-1.49c0-5.56,0-11.13,0-16.7,0-.9,0-.91-.9-1a.57.57,0,0,1-.59-.64v-4c0-.52.3-.65.76-.65,2,0,4,0,6.06,0,.6,0,.81.23.81.8,0,1.47,0,2.93,0,4.39Z" transform="translate(-0.22 -0.2)"/><path d="M43,27.8H33.24c-.82,0-.94-.12-.94-.92,0-1.2,0-2.39,0-3.59,0-.54.19-.83.76-.79s.74-.26.74-.79q0-7.74,0-15.46c0-.54-.19-.83-.75-.8s-.76-.26-.75-.8c0-1.23,0-2.47,0-3.7,0-.53.19-.75.73-.75H52c.54,0,.74.23.74.74,0,1.22,0,2.43,0,3.65,0,.76-.1.86-.86.86h-11c-.92,0-1,.1-1,1V10c0,.88.14,1,1,1h9.52c.93,0,1,0,1,1,0,1.14,0,2.27,0,3.4,0,.72-.11.82-.83.82H40.83c-.9,0-1,.1-1,1,0,1.5,0,3,0,4.51,0,.73.13.86.87.86h12c.9,0,1,.08,1,1V26.8c0,.93-.07,1-1,1Z" transform="translate(-0.22 -0.2)"/><path d="M221.37,27.8h-9.71c-.88,0-1-.09-1-.94,0-1.2,0-2.39,0-3.59,0-.51.16-.8.7-.76s.79-.26.79-.82q0-7.71,0-15.4c0-.57-.19-.87-.78-.84s-.72-.25-.71-.76c0-1.24,0-2.48,0-3.71,0-.55.18-.78.75-.78h18.93c.57,0,.76.23.74.78,0,1.19,0,2.39,0,3.59,0,.8-.07.88-.88.88h-11c-.94,0-1,.09-1,1V9.92c0,.91.13,1.05,1,1.05h9.52c.92,0,1,.07,1,1,0,1.13,0,2.27,0,3.4,0,.71-.13.82-.84.82h-9.77c-.81,0-.92.12-.92.94v4.52c0,.81.1.91.94.91H231.1c.89,0,1,.1,1,1,0,1.13,0,2.27,0,3.4,0,.71-.14.86-.87.86Z" transform="translate(-0.22 -0.2)"/><path d="M70.05,27.8h-7.6c-.8,0-.94-.15-.94-.93V23.4c0-.71.15-.86.87-.86H74.44c1.33,0,1.67-.34,1.67-1.69,0-1.07,0-2.14,0-3.21s-.39-1.42-1.42-1.42c-2.8,0-5.61,0-8.41,0a2.25,2.25,0,0,1-1.85-.78c-.77-.86-1.63-1.64-2.39-2.51a2.07,2.07,0,0,1-.5-1.19q-.08-3.52,0-7A2.05,2.05,0,0,1,62,3.49c.82-.94,1.73-1.81,2.59-2.73A1.69,1.69,0,0,1,65.92.2H79.77c.58,0,.82.18.81.78,0,1.22,0,2.43,0,3.65,0,.73-.1.82-.83.82H69.23c-1.26,0-1.65.4-1.65,1.67v2.1c0,1.25.42,1.65,1.68,1.65,2.83,0,5.65,0,8.47,0a2.14,2.14,0,0,1,1.3.52,34.65,34.65,0,0,1,2.7,2.72,2,2,0,0,1,.51,1.2q.06,4,0,8a2,2,0,0,1-.51,1.2,38.94,38.94,0,0,1-2.79,2.81,2.14,2.14,0,0,1-1.28.45C75.12,27.82,72.59,27.8,70.05,27.8Z" transform="translate(-0.22 -0.2)"/><path d="M90,14c0-3,0-6,0-9a2.32,2.32,0,0,1,.75-1.8c.86-.81,1.62-1.71,2.49-2.5A2,2,0,0,1,94.46.23c4.76,0,9.53,0,14.29,0,.69,0,.82.13.82.84q0,2.51,0,5c0,.73-.15.87-.86.88-1.22,0-2.44,0-3.65,0-.55,0-.82-.21-.79-.76s-.25-.73-.76-.73c-2,0-4,0-6,0-.94,0-1.38.47-1.38,1.42q0,7.11,0,14.23c0,.95.44,1.42,1.38,1.43,2,0,4,0,6,0,.51,0,.79-.18.76-.72s.25-.84.86-.82c1.22,0,2.43,0,3.65,0,.56,0,.79.25.79.78v5.26a.66.66,0,0,1-.76.75c-4.78,0-9.56,0-14.35,0a1.77,1.77,0,0,1-1.09-.45,39.24,39.24,0,0,1-2.87-2.9A2.36,2.36,0,0,1,90.06,23C90,20,90,17,90,14Z" transform="translate(-0.22 -0.2)"/><path d="M195.43,14c0,2.56,0,5.11,0,7.67,0,.6.18.9.82.85.49,0,.71.23.7.71q0,1.92,0,3.84c0,.53-.26.74-.76.74h-7.61c-.55,0-.77-.26-.76-.8,0-1.23,0-2.47,0-3.71,0-.54.19-.82.76-.79s.74-.22.74-.74q0-7.79,0-15.58c0-.5-.21-.73-.7-.73h-1.36c-.45,0-.72.19-.68.67.05.64-.26.84-.85.82-1.2,0-2.39,0-3.59,0-.71,0-.85-.14-.86-.82,0-1.71,0-3.42,0-5.13,0-.54.19-.79.76-.79h20.66c.49,0,.71.18.71.69,0,1.77,0,3.55,0,5.32,0,.54-.23.74-.75.73-1.25,0-2.51,0-3.77,0-.52,0-.78-.21-.76-.73s-.24-.78-.78-.76a10.28,10.28,0,0,1-1.11,0c-.59,0-.8.23-.8.81C195.44,8.84,195.43,11.41,195.43,14Z" transform="translate(-0.22 -0.2)"/><path d="M125.18,53.55c.47-1.4.93-2.8,1.39-4.21.51-1.56,1-3.12,1.52-4.69a1,1,0,0,1,1.09-.78c2.15,0,1.83-.22,2.49,1.8.8,2.47,1.61,4.93,2.41,7.39a1.09,1.09,0,0,0,.32.5c.23-1,.47-1.9.69-2.85.47-2,.94-4,1.39-6,.13-.57.4-.86,1-.84s1.41,0,2.11,0,.79.15.61.82q-1.53,5.65-3.07,11.3c-.3,1.09-.62,2.18-.89,3.27a.91.91,0,0,1-1,.8h-1.73a1,1,0,0,1-1-.78c-.84-2.77-1.71-5.54-2.57-8.31a1.18,1.18,0,0,0-.35-.6c-.34,1.11-.69,2.21-1,3.32-.57,1.85-1.15,3.69-1.69,5.54a1,1,0,0,1-1.12.83c-.57,0-1.15,0-1.73,0a.85.85,0,0,1-.92-.72q-2-7.4-4-14.76c-.14-.53.07-.73.58-.72.74,0,1.49,0,2.23,0a.92.92,0,0,1,1.07.84c.57,2.53,1.17,5,1.76,7.57.09.41.2.83.31,1.24Z" transform="translate(-0.22 -0.2)"/><path d="M67.43,60.07c-1.71,0-3.42,0-5.13,0-.59,0-.82-.23-.8-.81s0-1.12,0-1.67c0-.23.27-.44.42-.65s.4-.43.4-.65c0-2.88,0-5.77,0-8.65,0-.22-.26-.44-.4-.66s-.4-.45-.43-.7a11.31,11.31,0,0,1,0-1.54c0-.77.09-.86.85-.86h7.23a8.12,8.12,0,0,0,1.48,0c1.83-.35,3,.82,3.64,2.09a5.2,5.2,0,0,1,0,4.13c-.11.32-.48.55-.74.81a.59.59,0,0,0,0,1,7.38,7.38,0,0,1,1,1,2.65,2.65,0,0,1,.51,1.27,19.5,19.5,0,0,1,0,3A4.83,4.83,0,0,1,75,58.39l0,0c-1.92,1.87-1.17,1.62-3.89,1.63Zm1.3-3c.7,0,1.4,0,2.1,0a.77.77,0,0,0,.89-.85c0-.66,0-1.32,0-2s-.3-1-1.06-1h-4c-.48,0-.73.21-.73.7v2.41c0,.48.21.72.72.71C67.37,57,68.05,57,68.73,57Zm-.3-6.71c.62,0,1.24,0,1.86,0s.87-.22.89-.91c0-.51,0-1,0-1.54,0-.73-.18-.93-.91-1-1.19,0-2.39,0-3.58,0a.63.63,0,0,0-.72.72c0,.66,0,1.32,0,2,0,.49.25.71.73.71S67.86,50.31,68.43,50.31Z" transform="translate(-0.22 -0.2)"/><path d="M169.56,43.87c1.54,0,3.09,0,4.63,0a2,2,0,0,1,1.54.63c1.85,1.91,1.52,1.24,1.55,3.81,0,.87.05,1.74,0,2.6a2.62,2.62,0,0,1-.47,1.21,11.45,11.45,0,0,1-1.26,1.35.82.82,0,0,0-.15,1.11c.3.56.61,1.12.88,1.7a1.06,1.06,0,0,0,1.07.66c.75,0,.89.16.9.92,0,.45,0,.9,0,1.36,0,.67-.19.84-.85.84h-2.54a1.17,1.17,0,0,1-1.17-.73c-.73-1.5-1.5-3-2.23-4.47a1.18,1.18,0,0,0-1.21-.75c-2,0-1.83-.22-1.83,1.83,0,1.11,0,2.23,0,3.34,0,.56-.23.78-.78.78h-3c-.53,0-.75-.24-.73-.75s0-.91,0-1.36,0-1,.62-1.1c.11,0,.23-.33.24-.51q0-4.38,0-8.78c0-.19-.27-.39-.4-.59s-.4-.46-.43-.71c-.06-.54,0-1.11,0-1.66s.21-.74.73-.74C166.3,43.88,167.93,43.87,169.56,43.87Zm1.36,7.22h1.79c.74,0,1-.23,1-1s0-1.52,0-2.28c0-.59-.27-.94-.88-1h-3.77a.59.59,0,0,0-.64.66c0,1,0,1.93,0,2.9a.57.57,0,0,0,.66.63C169.69,51.08,170.31,51.09,170.92,51.09Z" transform="translate(-0.22 -0.2)"/><path d="M87.23,43.87c1.56,0,3.13,0,4.7,0a1.82,1.82,0,0,1,1.42.59C95.22,46.37,95,45.82,95,48.38c0,.8,0,1.61,0,2.41a1.86,1.86,0,0,1-.58,1.44c-.42.4-.8.84-1.21,1.24A.81.81,0,0,0,93,54.53c.33.62.65,1.24,1,1.86a1,1,0,0,0,1,.55c.74,0,.85.14.86.87,0,.51,0,1,0,1.54a.6.6,0,0,1-.65.71H92.31a1.07,1.07,0,0,1-1-.73c-.73-1.46-1.48-2.9-2.18-4.36a1.32,1.32,0,0,0-1.35-.85c-2,0-1.71-.12-1.72,1.73,0,1.14,0,2.27,0,3.4,0,.59-.26.82-.82.82-1,0-1.94,0-2.91,0-.52,0-.77-.19-.74-.73s0-.94,0-1.42,0-.9.58-1.06c.14,0,.27-.4.27-.62,0-2.86,0-5.73,0-8.59,0-.23-.3-.45-.46-.68s-.34-.41-.36-.62c-.05-.6,0-1.2,0-1.8s.22-.68.71-.68C84,43.88,85.6,43.87,87.23,43.87Zm1.34,7.22h1.85c.7,0,.9-.21.92-.88s0-1.61,0-2.41-.21-.88-.9-.89c-1.24,0-2.47,0-3.7,0a.57.57,0,0,0-.65.64c0,1,0,1.94,0,2.9,0,.44.2.65.63.65Z" transform="translate(-0.22 -0.2)"/><path d="M108.19,60.07h-5.38c-.68,0-.81-.13-.82-.83,0-.45,0-.91,0-1.36s0-.85.59-1c.13,0,.27-.36.27-.55q0-4.35,0-8.72c0-.21-.28-.41-.42-.62s-.38-.4-.4-.61c-.06-.61,0-1.23,0-1.85,0-.43.19-.65.64-.65,3.54,0,7.09,0,10.63,0,.49,0,.72.22.71.72s0,1.11,0,1.66-.23.74-.75.73h-5.87c-.8,0-.92.12-.92.94,0,.47,0,.94,0,1.42,0,.68.15.84.83.84h5c.84,0,.91.09.92.93v1.24c0,.79-.12.91-1,.91h-4.88c-.83,0-.93.1-.93.92q0,.9,0,1.8c0,.88.12,1,1,1h6.25c.8,0,.88.08.89.89v1.3c0,.74-.15.88-.92.88Z" transform="translate(-0.22 -0.2)"/><path d="M151.68,60.07H146.3c-.72,0-.82-.11-.83-.82,0-.47,0-.94,0-1.42s0-.8.57-.94c.14,0,.29-.36.29-.55,0-2.9,0-5.81,0-8.72,0-.21-.28-.42-.43-.63s-.37-.4-.39-.61c-.06-.62,0-1.24,0-1.86,0-.47.24-.64.7-.64,3.5,0,7,0,10.51,0,.55,0,.8.22.77.78s0,1,0,1.54-.25.8-.82.79h-5.81c-.82,0-.89.08-.89.89v1.48c0,.72.11.83.82.83h5c.8,0,.89.09.89.89,0,.47,0,1,0,1.42s-.23.78-.78.78c-1.67,0-3.34,0-5,0-.88,0-.94.06-.94,1,0,.66,0,1.32,0,2s.26.8.82.8c2.06,0,4.12,0,6.18,0C158,57,158,57,158,58.1V59c0,.95-.08,1-1,1Z" transform="translate(-0.22 -0.2)"/><path d="M188.42,48.74l2.05-3.32c1.09-1.75.72-1.53,2.76-1.55.51,0,1,0,1.54,0a3.56,3.56,0,0,1,.63.14,2.3,2.3,0,0,1-.2.61c-1.48,2.37-3,4.75-4.48,7.1a3.36,3.36,0,0,0-.55,1.92c0,1.83,0,3.67,0,5.5,0,.79-.13.91-.89.91h-1.91c-.58,0-.81-.24-.81-.82,0-1.92,0-3.84,0-5.75a3.54,3.54,0,0,0-.47-1.62c-1.49-2.44-3.05-4.84-4.57-7.26a2.47,2.47,0,0,1-.19-.6,2.34,2.34,0,0,1,.58-.14c.88,0,1.77,0,2.65,0a1.24,1.24,0,0,1,1.17.66c.72,1.19,1.47,2.37,2.22,3.56C188.06,48.27,188.2,48.45,188.42,48.74Z" transform="translate(-0.22 -0.2)"/><path d="M193.59,57.43a2.56,2.56,0,0,1,2.56-2.6,2.62,2.62,0,1,1,0,5.23A2.56,2.56,0,0,1,193.59,57.43Zm4.62,0a2,2,0,0,0-2-2.09,2.06,2.06,0,1,0,0,4.11A2,2,0,0,0,198.21,57.48Z" transform="translate(-0.22 -0.2)"/><path d="M196,57.77l-.08.8c-.42,0-.75.09-.56-.55a2.26,2.26,0,0,0,0-1.21c-.13-.49.06-.54.44-.52h.62c.75,0,1,.47.72,1.19a1.29,1.29,0,0,0,0,.59,4.54,4.54,0,0,0,.09.51,1.9,1.9,0,0,1-.6-.25,2.77,2.77,0,0,1-.42-.63Z" transform="translate(-0.22 -0.2)"/></g></g></g></svg>