<svg xmlns="http://www.w3.org/2000/svg" width="30.52" height="40" viewBox="0 0 30.52 40"><title>kampgrizzly</title><g id="Layer_2" data-name="Layer 2"><g id="Layer_1-2" data-name="Layer 1"><path d="M23.13,0h4.6a3.31,3.31,0,0,1-.23.9Q24,7.41,20.39,13.9a1.88,1.88,0,0,0-.14,1.78c.26.59.45,1.21.69,1.86-.84.35-.94,1-.91,1.79s0,1.81,0,2.71a1.21,1.21,0,0,0,1.36,1.38c.44,0,.89,0,1.33,0,.15,0,.38.11.42.23.61,1.6,1.19,3.21,1.81,4.9-1.43,0-2.77,0-4.11,0-.5,0-.67-.18-.83-.6-.85-2.33-1.74-4.65-2.62-7-.09-.25-.21-.49-.38-.91l-5.21,9.12a1.18,1.18,0,0,0,.27.07h13.3c.53,0,.69-.25.68-.73,0-1.69,0-3.39,0-5.08,0-.58-.22-.78-.78-.77-1.28,0-2.56,0-3.84,0-.48,0-.73-.2-.72-.71,0-1,0-2,0-3.06,0-.51.21-.7.71-.7,2.79,0,5.57,0,8.36,0,.5,0,.71.21.71.72,0,3.53,0,7.06,0,10.59a3.85,3.85,0,0,1-2.69,3.84,7,7,0,0,1-2.18.34c-4.76,0-9.52,0-14.28,0h-.87v.78c0,1.55,0,3.11,0,4.66,0,.62-.22.83-.82.81C8.84,40,8,40,7.21,40c-1.08,0-1.08,0-1.08-1.09V10.65c-1.66-.16-1.7-.11-1.7,1.37,0,5.38,0,10.77,0,16.16,0,.68,0,1.22.92,1.14V33.7A4.38,4.38,0,0,1,.27,30.59c-.08-.26-.18-.51-.27-.77V9.75a.76.76,0,0,0,.09-.18c.35-2.16,2-3.44,4.54-3.42,4.46,0,8.92,0,13.37,0h.83c-.8,1.42-1.52,2.69-2.2,4a.83.83,0,0,1-.88.49c-1.51,0-3,0-4.52,0h-.71V22.37L11,21.5q5.7-10.2,11.41-20.4C22.65.73,22.9.37,23.13,0Z" fill="#231f20"/><path d="M10.31,0a6.1,6.1,0,0,1,.14.94c0,1.46,0,2.92,0,4.43H6.13c0-1.47,0-2.94,0-4.41a4.32,4.32,0,0,1,.27-1Z" fill="#231f20"/><path d="M23,10.62c.82-1.49,1.55-2.85,2.31-4.2a.7.7,0,0,1,.51-.25,4,4,0,0,1,4.65,4.29c0,1.35,0,2.69,0,4,0,.64-.24.87-.87.84-.95,0-1.9,0-2.85,0-.55,0-.74-.22-.73-.75,0-1,0-2.09,0-3.13,0-.64-.25-.87-.87-.84S23.86,10.62,23,10.62Z" fill="#231f20"/><path d="M22.51,34.51c1.53,0,3,0,4.39,0,.14,0,.33.23.39.39.55,1.45,1.07,2.91,1.61,4.36.2.53,0,.72-.53.71-1,0-2.08,0-3.12,0a1,1,0,0,1-.8-.39C23.78,37.94,23.17,36.27,22.51,34.51Z" fill="#231f20"/></g></g></svg>