<svg xmlns="http://www.w3.org/2000/svg" width="74.04" height="40" viewBox="0 0 74.04 40"><title>psugdlogo</title><g id="Layer_2" data-name="Layer 2"><g id="Layer_1-2" data-name="Layer 1"><path d="M30.92,27.32a3.14,3.14,0,0,0-1.05.65,1.2,1.2,0,0,0-.39.86,1.15,1.15,0,0,0,.51,1,2.49,2.49,0,0,0,1.39.34H50.45a4.54,4.54,0,0,0,2.12-.34,1.12,1.12,0,0,0,.57-1,1.22,1.22,0,0,0-.56-1,3.46,3.46,0,0,0-1.88-.39H32a4.52,4.52,0,0,1-.54,0,2.89,2.89,0,0,1-.5-.08M51,14.91a3.3,3.3,0,0,0,.38-1.67,2.42,2.42,0,0,0-.44-1.49,2.81,2.81,0,0,0-1.46-.91,12.16,12.16,0,0,0-2.75-.45c-1.14-.09-2.56-.13-4.23-.13s-3.13.05-4.26.15a10.63,10.63,0,0,0-2.72.51,3,3,0,0,0-1.47,1,2.62,2.62,0,0,0-.43,1.53A2.79,2.79,0,0,0,34,15a2.53,2.53,0,0,0,1.34,1,10.37,10.37,0,0,0,2.66.49q1.7.15,4.38.15t4.53-.12a10.27,10.27,0,0,0,2.74-.5,2.47,2.47,0,0,0,1.36-1m11-4.73a3.2,3.2,0,0,1-.74,2.27,2.3,2.3,0,0,1-1.69.79A2.4,2.4,0,0,1,58,12.68a1.82,1.82,0,0,1-.65-1.47,2.2,2.2,0,0,1,.14-.85,1.76,1.76,0,0,1,.33-.56,2.13,2.13,0,0,1,.33-.3c.1-.07.15-.13.15-.19S58.11,9,57.81,9a2.36,2.36,0,0,0-1,.31,3.82,3.82,0,0,0-1.1.89,8.89,8.89,0,0,1,.62,3.55,7,7,0,0,1-.62,3.1A4.64,4.64,0,0,1,53.53,19a13.78,13.78,0,0,1-4.31,1.18,52.72,52.72,0,0,1-6.94.37c-2.09,0-3.92-.07-5.49-.2a18.28,18.28,0,0,1-4-.75,3.3,3.3,0,0,0-1.65.64,2,2,0,0,0-.58,1.28,1.38,1.38,0,0,0,1.53,1.43H52.19a9.92,9.92,0,0,1,3,.42,6.25,6.25,0,0,1,2.19,1.15,5,5,0,0,1,1.34,1.74,5.13,5.13,0,0,1,.45,2.14,6.09,6.09,0,0,1-.41,2.24,5.23,5.23,0,0,1-1.24,1.87,6.06,6.06,0,0,1-2,1.3,7.16,7.16,0,0,1-2.81.5H31.38a5.75,5.75,0,0,1-3.47-1,3.4,3.4,0,0,1-1.37-2.93,3.54,3.54,0,0,1,2.77-3.51,3.75,3.75,0,0,1-1.86-3.64,5.53,5.53,0,0,1,.89-3.06,5.58,5.58,0,0,1,2.21-1.61,5.73,5.73,0,0,1-2.23-5,6.94,6.94,0,0,1,.78-3.42,5.72,5.72,0,0,1,2.51-2.28A13.82,13.82,0,0,1,36,6.55a48.63,48.63,0,0,1,6.58-.38,43.21,43.21,0,0,1,7.29.5,10,10,0,0,1,4.28,1.61,4.16,4.16,0,0,1,1.53-1.22A5.06,5.06,0,0,1,58,6.59a4.27,4.27,0,0,1,1.48.26,4.21,4.21,0,0,1,1.26.75,3.52,3.52,0,0,1,.89,1.13A3.22,3.22,0,0,1,62,10.18M74,19.72q0-10-5.49-14.85T51.39,0H0V7.55H17.75V32.2H0V40H53.69a28,28,0,0,0,8.11-1.12,16.8,16.8,0,0,0,6.47-3.56A16.34,16.34,0,0,0,72.51,29,25.3,25.3,0,0,0,74,19.72M.2,20.3c0,2,1,2.55,2.5,2.57H4.2c4.25-.06,2.62-3.5,6.78-3.5h1.79c.63,0,1.11.19,1.11.93s-.48.93-1.11.93H10.94v1.64h1.92c1.47,0,2.5-.59,2.5-2.57s-1-2.55-2.52-2.57h-2C6,17.78,7.57,21.23,4,21.23H2.79c-.63,0-1.11-.19-1.11-.93s.48-.93,1.11-.93H4.41V17.73H2.72C1.24,17.75.2,18.31.2,20.3M2,27.14c0-.74.34-.95,1-.95H6.33c.63,0,1,.21,1,.95v.95H2ZM.41,27.08v2.65H15.15V28.09H8.83v-1c0-2-.94-2.54-2.41-2.57H2.86c-1.46,0-2.45.55-2.45,2.53M13.88,13c0,.74-.48,1-1.11,1H.41v1.64H12.77c1.51,0,2.59-.56,2.59-2.59s-1-2.56-2.52-2.58H.41v1.64H12.77c.63,0,1.11.21,1.11.94" fill="#231f20"/></g></g></svg>