<svg xmlns="http://www.w3.org/2000/svg" width="300.66" height="60" viewBox="0 0 300.66 60"><title>psulogo</title><g id="Layer_2" data-name="Layer 2"><g id="Layer_1-2" data-name="Layer 1"><path d="M46.4,19H41.46V12.21a12.21,12.21,0,0,0-24.42,0V19H12.21a12.21,12.21,0,1,0,0,24.42H17V47.8a12.21,12.21,0,0,0,24.42,0V43.39H46.4A12.21,12.21,0,1,0,46.4,19ZM21.69,12.21a7.61,7.61,0,0,1,15.22-.12,7.63,7.63,0,0,1-7.66,7.56h-.9V16h.9a4,4,0,0,0,4-3.86,3.91,3.91,0,0,0-7.82.12V26.68l-3.7,3ZM36.81,47.8a7.56,7.56,0,0,1-15.12,0V43.09h3.7V47.8a3.86,3.86,0,1,0,7.72,0V35.7l3.7-3Zm9.59-9h-5V35h5a3.86,3.86,0,1,0,0-7.72H39.06a5.91,5.91,0,0,0-3.08,1c-.23.13-1.09.77-1.4,1L26,36.23a14,14,0,0,1-1.55,1.08,9.4,9.4,0,0,1-4.27,1.44h-8a7.57,7.57,0,0,1,0-15.13h5v3.7h-5a3.86,3.86,0,1,0,0,7.72h7.67a5.85,5.85,0,0,0,2.8-1l1-.71s8.56-6.9,8.57-6.89a18.73,18.73,0,0,1,2-1.43,9.18,9.18,0,0,1,4.77-1.38H46.4a7.57,7.57,0,0,1,0,15.13Z" fill="#231f20"/><path d="M101,20.87c-4.72,0-8.27,4-8.27,9.23s3.55,9.28,8.27,9.28,8.24-4,8.24-9.28S105.72,20.87,101,20.87ZM101,38c-3.46,0-4.81-2.21-4.81-7.87s1.35-7.86,4.81-7.86,4.77,2.2,4.77,7.86S104.46,38,101,38Z" fill="#231f20"/><path d="M271,37.37l0,0a.3.3,0,0,0-.22-.14.31.31,0,0,0-.24.1,1.44,1.44,0,0,1-.94.6c-.58,0-.74-.35-.74-1.58V26.74c0-3.9-2-5.87-5.92-5.87-2.58,0-5.58,1.67-5.58,3.82a1.76,1.76,0,0,0,1.78,1.82,1.81,1.81,0,0,0,1.78-1.82,1.71,1.71,0,0,0-.78-1.48h0a3.25,3.25,0,0,1,2.8-1.05c1.92,0,2.84,1,2.84,2.93v3.64h0c-4.75,0-9.85,1.93-9.85,6.16a4.13,4.13,0,0,0,4.22,4.33,8.59,8.59,0,0,0,5.7-2.61l0,0v0a3.05,3.05,0,0,0,2.94,2.51,4,4,0,0,0,2.37-1,.29.29,0,0,0,.06-.37Zm-5.25-2.15h0c-2.11,1.88-3.44,2.1-4.24,2.1-1.28,0-2.37-1.38-2.37-3,0-2.83,2.28-4.34,6.61-4.34h0Z" fill="#231f20"/><path d="M167.14,37.65l-.2-.33a.28.28,0,0,0-.22-.14.28.28,0,0,0-.23.1,1.47,1.47,0,0,1-1,.6c-.57,0-.74-.35-.74-1.58V26.74c0-3.9-2-5.87-5.92-5.87-2.58,0-5.57,1.67-5.57,3.82a1.76,1.76,0,0,0,1.78,1.82,1.8,1.8,0,0,0,1.77-1.82,1.71,1.71,0,0,0-.78-1.48h0a3.26,3.26,0,0,1,2.8-1.05c1.92,0,2.85,1,2.85,2.93v3.64h0c-4.75,0-9.85,1.93-9.85,6.16a4.14,4.14,0,0,0,4.22,4.33,8.55,8.55,0,0,0,5.7-2.61l0,0v0a3,3,0,0,0,2.93,2.51,4,4,0,0,0,2.38-1,.29.29,0,0,0,.06-.37Zm-5.41-2.43h0c-2.12,1.88-3.44,2.1-4.24,2.1-1.29,0-2.38-1.38-2.38-3,0-2.83,2.29-4.34,6.61-4.34h0Z" fill="#231f20"/><path d="M232.71,22.61l-2.1-.66c-2.87-.8-4.5-2.64-4.5-5.07a5,5,0,0,1,5.29-5.2c4.45,0,6,3.11,6,6,0,.46.2.68.64.68s.64-.23.64-.68V10.64c0-.33-.09-.64-.68-.64s-.6.39-.6.68a1.71,1.71,0,0,1-.75,1.24h0c-.67-.73-2.27-2-5.4-2a7.81,7.81,0,0,0-7.93,7.63c0,4.22,2.56,7.22,7.4,8.66h0l1.69.48c1.93.53,5.16,2,5.16,5.51s-3,5.25-5.82,5.25a6.66,6.66,0,0,1-7-7c0-.34-.06-.68-.64-.68a.59.59,0,0,0-.65.68v8.12c0,.22,0,.68.69.68.4,0,.6-.24.6-.73a1.75,1.75,0,0,1,.83-1.53h0a9,9,0,0,0,6,2.39c5.23,0,9-3.5,9-8.32C240.64,27,238,24.12,232.71,22.61Zm-1.61,3.45Z" fill="#231f20"/><path d="M300,33.56c-.4,0-.57.42-.69.69A5.16,5.16,0,0,1,294,37.93c-3.33,0-5-2.53-5-7.51,0,0,0-1.09,0-1.62h11.16a.27.27,0,0,0,.28-.26v-.1c0-.15,0-.32,0-.48a7.3,7.3,0,0,0-1.8-4.9,6.74,6.74,0,0,0-5.18-2.19c-3.93,0-8,3.45-8,9.23s4.14,9.28,8,9.28a7.16,7.16,0,0,0,7-4.36,2.61,2.61,0,0,0,.17-.82A.64.64,0,0,0,300,33.56Zm-10.71-6.28c.57-3.3,2.19-5,4.69-5,3.76,0,3.91,5,3.91,5h-8.6Z" fill="#231f20"/><path d="M148.34,37.28l-2.45,0h0V11.25a.7.7,0,0,0-.63-.78l-.9.08-1.57.11s-2.36,0-2.36,0h-.23a.31.31,0,0,0-.29.29v.91A.27.27,0,0,0,140,12a.27.27,0,0,0,.22.08l.21,0a19.79,19.79,0,0,1,2.38-.1h0V37.32l-2.39,0h-.23a.26.26,0,0,0-.2.08.25.25,0,0,0-.09.2v.92a.3.3,0,0,0,.09.21.29.29,0,0,0,.22.07h.15a34.5,34.5,0,0,1,3.93-.13h.17c2.19,0,3.3.07,3.85.11a.28.28,0,0,0,.21-.07.27.27,0,0,0,.09-.21v-.88a.3.3,0,0,0-.08-.21A.28.28,0,0,0,148.34,37.28Z" fill="#231f20"/><path d="M122,20.87a5,5,0,0,0-4.88,3.47l0,.07V22.16a.72.72,0,0,0-.65-.77l-1,.07-1.51.1-2.22,0a.3.3,0,0,0-.21.08.32.32,0,0,0-.08.2v.88a.27.27,0,0,0,.09.21.29.29,0,0,0,.22.07,20.8,20.8,0,0,1,2.22-.08h0V37.32l-2.26,0a.31.31,0,0,0-.21.09.28.28,0,0,0-.08.2v.87a.27.27,0,0,0,.09.21.28.28,0,0,0,.21.08c.49,0,1.62-.11,3.67-.11h.17c2.06,0,3.12.07,3.63.11a.25.25,0,0,0,.22-.08.27.27,0,0,0,.09-.2v-.88a.28.28,0,0,0-.08-.2.28.28,0,0,0-.2-.09l-2.18,0h0V29.8c0-3.25.91-5.78,2.51-6.95a2.54,2.54,0,0,1,2.28-.48h0a1.59,1.59,0,0,0-.46,1.27,1.85,1.85,0,0,0,1.86,1.92,2,2,0,0,0,1.93-2.22C125.24,21.89,123.91,20.87,122,20.87Z" fill="#231f20"/><path d="M83.11,10.65l-3.32,0-1.65,0c-2.48,0-3.7-.05-4.27-.09a.26.26,0,0,0-.21.07.26.26,0,0,0-.1.21v.8a.25.25,0,0,0,.09.2.23.23,0,0,0,.2.08l2.81,0h0V37.32l-2.16,0a.32.32,0,0,0-.21.08.28.28,0,0,0-.08.2v.87a.31.31,0,0,0,.09.21.3.3,0,0,0,.22.08c.46,0,1.55-.11,3.62-.11h.52c2.22,0,3.28.07,3.77.11a.29.29,0,0,0,.22-.07.29.29,0,0,0,.09-.21v-.89a.3.3,0,0,0-.08-.2.32.32,0,0,0-.21-.08h-.07l-2.25,0h0V27h3c6.09,0,9.72-3.06,9.72-8.19S89.2,10.65,83.11,10.65Zm0,14.8h-3V12.24h3c4.42,0,5.91,1.66,5.91,6.56S87.53,25.45,83.11,25.45Z" fill="#231f20"/><path d="M137.23,21.52l-4.28,0h0V17c0-.66,0-1.25-.56-1.25s-.69.42-1.16,2.77h0c-.44,2.31-1.18,2.75-3.18,2.91a.28.28,0,0,0-.26.28v.89a.29.29,0,0,0,.28.29h.6l1.24,0V35.3A3.34,3.34,0,0,0,133.48,39c2.19,0,3.07-.84,3.34-1.21a.28.28,0,0,0,0-.29L136.6,37a.27.27,0,0,0-.45-.09,2.93,2.93,0,0,1-1.88.93c-.57,0-1.32-.18-1.32-1.76V23l3.54,0h.74a.73.73,0,0,0,0-1.46Z" fill="#231f20"/><path d="M252.75,21.52l-4.29,0h0V17c0-.66,0-1.25-.55-1.25s-.74.33-1.17,2.45h0c-.43,2.29-1.17,3-3.17,3.22a.29.29,0,0,0-.26.28v.9a.3.3,0,0,0,.08.2.26.26,0,0,0,.21.08l1.83,0h0V35.3A3.33,3.33,0,0,0,249,39c2.19,0,3.07-.84,3.35-1.21a.28.28,0,0,0,0-.29l0-.06-.22-.47a.32.32,0,0,0-.21-.17.32.32,0,0,0-.25.08,2.91,2.91,0,0,1-1.88.93c-.56,0-1.32-.18-1.32-1.76V22.89L252,23l.73,0a.69.69,0,0,0,.65-.73A.68.68,0,0,0,252.75,21.52Z" fill="#231f20"/><path d="M282.71,37.78a.26.26,0,0,0,0-.29l-.07-.16-.18-.38a.31.31,0,0,0-.21-.16.33.33,0,0,0-.25.08,2.88,2.88,0,0,1-1.87.93c-.57,0-1.32-.18-1.32-1.76V22.89l3.54.06.74,0a.73.73,0,0,0,0-1.46l-4.28,0h0V17c0-.66-.05-1.25-.56-1.25s-.74.33-1.16,2.45h0c-.44,2.29-1.17,3-3.19,3.22a.29.29,0,0,0-.25.28v.9a.27.27,0,0,0,.09.2.24.24,0,0,0,.2.08l1.84,0h0V35.3A3.33,3.33,0,0,0,279.36,39C281.55,39,282.43,38.15,282.71,37.78Z" fill="#231f20"/><path d="M189.73,37.29l-2.34,0h0v-10c0-2.94-.93-6.44-5.4-6.44-2.79,0-5.4,2.5-6.31,4.91l0,.07V22.16a.72.72,0,0,0-.64-.77l-.95.07-1.51.1-2.23,0h-.07a.28.28,0,0,0-.2.08.29.29,0,0,0-.09.21v.91a.27.27,0,0,0,.09.21.3.3,0,0,0,.21.08h.07l2.25-.05h0V37.32l-2.26,0h-.07a.28.28,0,0,0-.2.08.27.27,0,0,0-.09.2v.91a.29.29,0,0,0,.29.28h0a28.65,28.65,0,0,1,3.74-.13h.17a36.6,36.6,0,0,1,3.73.1.29.29,0,0,0,.22-.07.29.29,0,0,0,.09-.21v-.87a.28.28,0,0,0-.08-.2.31.31,0,0,0-.2-.09l-2.29,0h0V30.76c0-4.25,2.94-8.26,6-8.26,1.91,0,2.62.9,2.62,3.32v11.5l-2.36,0a.28.28,0,0,0-.2.08.27.27,0,0,0-.09.21v.88a.27.27,0,0,0,.09.21.29.29,0,0,0,.22.07c.53,0,1.44-.11,3.77-.11h.18c1.85,0,3.09,0,3.79.08a.25.25,0,0,0,.21-.07.27.27,0,0,0,.09-.21v-.85a.28.28,0,0,0-.08-.2A.26.26,0,0,0,189.73,37.29Z" fill="#231f20"/><path d="M210.61,38.47v-.92a.25.25,0,0,0-.1-.21.24.24,0,0,0-.22-.06,17,17,0,0,1-2.35.12h0V11.25a.73.73,0,0,0-.64-.78l-.89.08-1.57.11s-2.07,0-2.07,0a.29.29,0,0,0-.21.09.28.28,0,0,0-.08.2v.85a.29.29,0,0,0,.09.21.3.3,0,0,0,.22.08c.34,0,.91-.07,2.07-.07h0V24l0-.05a6,6,0,0,0-5.13-3.12c-4.4,0-7.36,3.71-7.36,9.23s3,9.28,7.36,9.28a6,6,0,0,0,5.13-3.17l0-.05v1.93a.72.72,0,0,0,.64.77l.9-.06,1.57-.09,2.37,0a.28.28,0,0,0,.2-.09A.24.24,0,0,0,210.61,38.47Zm-10.88-.54c-2.73,0-3.94-2.42-3.94-7.83s1.21-7.82,3.94-7.82c3.11,0,5.12,3.07,5.12,7.82S202.84,37.93,199.73,37.93Z" fill="#231f20"/><path d="M198.31,52.16a2.06,2.06,0,1,1-4.11,0V46.4H193v5.76a3.3,3.3,0,1,0,6.59,0V46.4h-1.24Z" fill="#231f20"/><path d="M211.84,53.42l-4.07-7H206.4v8.94h1.24V48.47c.3.5,4,6.87,4,6.87h1.46V46.4h-1.24Z" fill="#231f20"/><rect x="219.97" y="46.4" width="1.24" height="8.94" fill="#231f20"/><path d="M230.93,53.73c-.15-.43-2.62-7.33-2.62-7.33H227l3.33,8.94h1.18l3.39-8.94h-1.26S231.38,52.53,230.93,53.73Z" fill="#231f20"/><path d="M241.73,51.31h3.17V50.19h-3.17V47.53h3.34V46.4h-4.58v8.94h4.74V54.21h-3.5Z" fill="#231f20"/><path d="M256,51.76l0-.06a1.91,1.91,0,0,0-.66-.87,2.11,2.11,0,0,0,1.51-2c0-1.57-.94-2.41-2.72-2.41h-2.39v8.94H253v-4h.5c.73,0,1,0,1.48,1,0,0,.09.22,1.23,2.89l.06.12h1.36l-.12-.28Zm-2.36-1.57H253V47.53h.67c1.18,0,2,.09,2,1.28S254.1,50.19,253.64,50.19Z" fill="#231f20"/><rect x="274.64" y="46.4" width="1.24" height="8.94" fill="#231f20"/><path d="M266,50.15c-.85-.45-1.58-.84-1.58-1.49,0-1.19,1.25-1.28,1.65-1.28a3.07,3.07,0,0,1,1.45.3l.25.13.18-1,0-.17-.15-.05a5.65,5.65,0,0,0-1.75-.3c-1.71,0-2.9,1-2.9,2.42s1.2,2,2.26,2.56c.86.48,1.65.91,1.65,1.57,0,1-.63,1.55-1.72,1.55a3.09,3.09,0,0,1-1.78-.47l-.27-.16L263.15,55l.13.06a5,5,0,0,0,2,.39c1.5,0,3-.81,3-2.61C268.3,51.39,267.06,50.73,266,50.15Z" fill="#231f20"/><path d="M281.25,47.53h2.64v7.81h1.24V47.53h2.64V46.4h-6.52Z" fill="#231f20"/><path d="M295.73,50.4l-2.47-3.95-.08-.05h-1.4l3.35,5.2,0,3.74h1.25V51.55s3.14-4.85,3.14-4.85l.2-.3h-1.39Z" fill="#231f20"/></g></g></svg>