<?xml version="1.0" encoding="UTF-8"?>
<svg width="532px" height="354px" viewBox="0 0 532 354" version="1.1" xmlns="http://www.w3.org/2000/svg" xmlns:xlink="http://www.w3.org/1999/xlink">
    <!-- Generator: Sketch 47.1 (45422) - http://www.bohemiancoding.com/sketch -->
    <title>v</title>
    <desc>Created with Sketch.</desc>
    <defs>
        <rect id="path-1" x="0" y="0" width="532" height="354"></rect>
        <polygon id="path-3" points="0.197840554 0.3575 12.6530932 0.3575 12.6530932 12.8122462 0.197840554 12.8122462 0.197840554 0.3575"></polygon>
    </defs>
    <g id="Welcome" stroke="none" stroke-width="1" fill="none" fill-rule="evenodd">
        <g id="v">
            <g id="Page-1-+-Page-1-+-Page-1-+-Page-1-Mask-Copy">
                <mask id="mask-2" fill="white">
                    <use xlink:href="#path-1"></use>
                </mask>
                <g id="Mask"></g>
                <g id="Page-1" mask="url(#mask-2)">
                    <g transform="translate(74.000000, 214.000000)">
                        <path d="M36.9323517,120.429165 C36.4190073,123.981869 33.1229748,126.445696 29.5708354,125.932352 C26.0181307,125.419007 23.554304,122.122975 24.0676483,118.570835 C24.5809927,115.018131 27.8764599,112.554304 31.4291646,113.067648 C34.9818693,113.580993 37.445696,116.877025 36.9323517,120.429165" id="Fill-1" fill="#EF4136"></path>
                        <path d="M12.9323517,115.429159 C12.4190073,118.981867 9.12297478,121.445696 5.57083542,120.932352 C2.01813071,120.419007 -0.445696022,117.122971 0.0676483264,113.570828 C0.580992674,110.018686 3.87645986,107.554291 7.42916458,108.067636 C10.9818693,108.580981 13.445696,111.877017 12.9323517,115.429159" id="Fill-3" fill="#EF4136"></path>
                        <path d="M59.9323517,123.429159 C59.4190073,126.981867 56.1229748,129.445696 52.5708354,128.932352 C49.0181307,128.419007 46.554304,125.122971 47.0676483,121.570828 C47.5809927,118.018686 50.8764599,115.554291 54.4291646,116.067636 C57.9818693,116.580981 60.445696,119.877017 59.9323517,123.429159" id="Fill-5" fill="#EF4136"></path>
                        <path d="M27.9323517,98.4291594 C27.4190073,101.981867 24.1229748,104.445696 20.5708354,103.932352 C17.0181307,103.419007 14.554304,100.123537 15.0676483,96.5708285 C15.5809927,93.0186858 18.8764599,90.5542914 22.4291646,91.0676362 C25.9818693,91.5809811 28.445696,94.8770167 27.9323517,98.4291594" id="Fill-7" fill="#EF4136"></path>
                        <path d="M50.9323517,101.42947 C50.4190073,104.981695 47.1229748,107.446147 43.5708354,106.932225 C40.0181307,106.418868 37.554304,103.123321 38.0676483,99.5705303 C38.5809927,96.0183049 41.8764599,93.5538532 45.4291646,94.0677753 C48.9818693,94.5811321 51.445696,97.8766791 50.9323517,101.42947" id="Fill-9" fill="#EF4136"></path>
                        <path d="M73.9323513,104.429416 C73.4190069,107.981676 70.1235399,110.446151 66.5708353,109.932224 C63.0181306,109.419428 60.554304,106.123284 61.0676483,102.571024 C61.5809927,99.018199 64.8770251,96.5542889 68.4297297,97.0676506 C71.981869,97.5810123 74.4456956,100.876591 73.9323513,104.429416" id="Fill-11" fill="#EF4136"></path>
                        <path d="M109.932352,90.4291594 C109.419007,93.9818674 106.12354,96.4456964 102.570835,95.9323516 C99.0181307,95.4190068 96.554304,92.1229712 97.0676483,88.5708285 C97.5809927,85.0186858 100.877025,82.5542914 104.429165,83.0676362 C107.981869,83.5809811 110.445696,86.8770167 109.932352,90.4291594" id="Fill-13" fill="#EF4136"></path>
                        <path d="M19.9323513,76.429416 C19.4190069,79.9816756 16.1235399,82.4461511 12.5708353,81.932224 C9.01813064,81.4194277 6.55430399,78.1232836 7.06764832,74.571024 C7.58099266,71.018199 10.8770251,68.5542889 14.4297297,69.0676506 C17.981869,69.5810123 20.4456956,72.8771564 19.9323513,76.429416" id="Fill-15" fill="#EF4136"></path>
                        <path d="M42.9323517,79.4291646 C42.4190073,82.9818693 39.1235401,85.445696 35.5708354,84.9323517 C32.0181307,84.4190073 29.554304,81.1229748 30.0676483,77.5708354 C30.5809927,74.0181307 33.8770252,71.554304 37.4291646,72.0676483 C40.9818693,72.5809927 43.445696,75.8770252 42.9323517,79.4291646" id="Fill-17" fill="#EF4136"></path>
                        <path d="M65.9323517,82.4291594 C65.4190073,85.9818674 62.1229748,88.4456964 58.5708354,87.9323516 C55.0181307,87.4190068 52.554304,84.1235365 53.0676483,80.5708285 C53.5809927,77.0186858 56.8764599,74.5542914 60.4291646,75.0676362 C63.9818693,75.5809811 66.445696,78.8770167 65.9323517,82.4291594" id="Fill-19" fill="#EF4136"></path>
                        <path d="M88.9323517,86.4294697 C88.4190073,89.9816951 85.1229748,92.4461468 81.5708354,91.9322247 C78.0181307,91.4188679 75.554304,88.1233209 76.0676483,84.5705303 C76.5809927,81.0183049 79.8764599,78.5538532 83.4291646,79.0677753 C86.9818693,79.5811321 89.445696,82.8766791 88.9323517,86.4294697" id="Fill-21" fill="#EF4136"></path>
                        <path d="M33.9323517,57.4295412 C33.4190073,60.9818007 30.1229748,63.4457107 26.5708354,62.932349 C23.0181307,62.4189873 20.554304,59.1234087 21.0676483,55.5705838 C21.5809927,52.0183243 24.8764599,49.5538489 28.4291646,50.067776 C31.9818693,50.5805723 34.445696,53.8767163 33.9323517,57.4295412" id="Fill-23" fill="#EF4136"></path>
                        <path d="M56.9323517,60.4294697 C56.4190073,63.9816951 53.1229748,66.4461468 49.5708354,65.9322247 C46.0181307,65.4194333 43.554304,62.1233209 44.0676483,58.5705303 C44.5809927,55.0183049 47.8764599,52.5538532 51.4291646,53.0677753 C54.9818693,53.5811321 57.445696,56.8766791 56.9323517,60.4294697" id="Fill-25" fill="#EF4136"></path>
                        <path d="M79.9323517,64.429416 C79.4190073,67.9816756 76.1229748,70.4461511 72.5708354,69.932224 C69.0181307,69.4194277 66.554304,66.1232836 67.0676483,62.571024 C67.5809927,59.018199 70.8764599,56.5542889 74.4291646,57.0676506 C77.9818693,57.5810123 80.445696,60.8771564 79.9323517,64.429416" id="Fill-27" fill="#EF4136"></path>
                        <path d="M102.932352,67.4291646 C102.419007,70.9818693 99.1229748,73.445696 95.5708354,72.9323517 C92.0181307,72.4190073 89.554304,69.1229748 90.0676483,65.5708354 C90.5809927,62.0181307 93.8764599,59.554304 97.4291646,60.0676483 C100.981869,60.5809927 103.445696,63.8770252 102.932352,67.4291646" id="Fill-29" fill="#EF4136"></path>
                        <path d="M25.9323517,35.429416 C25.4190073,38.9816756 22.1229748,41.4461511 18.5708354,40.932224 C15.0181307,40.4194277 12.554304,37.1232836 13.0676483,33.571024 C13.5809927,30.018199 16.8764599,27.5542889 20.4291646,28.0676506 C23.9818693,28.5810123 26.445696,31.8771564 25.9323517,35.429416" id="Fill-31" fill="#EF4136"></path>
                        <path d="M48.9323513,38.4291594 C48.4190069,41.9818674 45.1235399,44.4456964 41.5708353,43.9323516 C38.0181306,43.4190068 35.554304,40.1229712 36.0676483,36.5708285 C36.5809927,33.0186858 39.8770251,30.5542914 43.4297297,31.0676362 C46.981869,31.5809811 49.4456956,34.8770167 48.9323513,38.4291594" id="Fill-33" fill="#EF4136"></path>
                        <path d="M71.9323513,42.4295412 C71.4190069,45.9818007 68.1235399,48.4457107 64.5708353,47.932349 C61.0181306,47.4189873 58.554304,44.1234087 59.0676483,40.5705838 C59.5809927,37.0183243 62.8770251,34.5538489 66.4297297,35.067776 C69.981869,35.5805723 72.4456956,38.8767163 71.9323513,42.4295412" id="Fill-35" fill="#EF4136"></path>
                        <path d="M93.9323517,45.4294697 C93.4190073,48.9816951 90.1235401,51.4461468 86.5708354,50.9322247 C83.0181307,50.4194333 80.554304,47.1233209 81.0676483,43.5705303 C81.5809927,40.0183049 84.8770252,37.5538532 88.4291646,38.0677753 C91.9818693,38.5811321 94.445696,41.8766791 93.9323517,45.4294697" id="Fill-37" fill="#EF4136"></path>
                        <path d="M116.932352,48.429416 C116.419007,51.9816756 113.122975,54.4461511 109.570835,53.932224 C106.018131,53.4194277 103.554304,50.1232836 104.067648,46.571024 C104.580993,43.018199 107.87646,40.5542889 111.429165,41.0676506 C114.981869,41.5810123 117.445696,44.8771564 116.932352,48.429416" id="Fill-39" fill="#EF4136"></path>
                        <path d="M62.9323517,20.4294162 C62.4190073,23.9816757 59.1235401,26.4461511 55.5708354,25.932224 C52.0181307,25.4194277 49.554304,22.1232837 50.0676483,18.5704588 C50.5809927,15.0181993 53.8770252,12.5542893 57.4291646,13.067651 C60.9818693,13.5810127 63.445696,16.8765913 62.9323517,20.4294162" id="Fill-41" fill="#EF4136"></path>
                        <path d="M85.9323517,23.429416 C85.4190073,26.9816756 82.1229748,29.4461511 78.5708354,28.932224 C75.0181307,28.4194277 72.554304,25.1232836 73.0676483,21.571024 C73.5809927,18.018199 76.8764599,15.5542889 80.4291646,16.0676506 C83.9818693,16.5810123 86.445696,19.8771564 85.9323517,23.429416" id="Fill-43" fill="#EF4136"></path>
                        <path d="M108.932352,26.4291594 C108.419007,29.9818674 105.122975,32.4456964 101.570835,31.9323516 C98.0181307,31.4190068 95.554304,28.1229712 96.0676483,24.5708285 C96.5809927,21.0186858 99.8764599,18.5542914 103.429165,19.0676362 C106.981869,19.5809811 109.445696,22.8770167 108.932352,26.4291594" id="Fill-45" fill="#EF4136"></path>
                        <path d="M131.932352,29.429416 C131.419007,32.9816756 128.12354,35.4461511 124.570835,34.932224 C121.018131,34.4194277 118.554304,31.1232836 119.067648,27.571024 C119.580993,24.018199 122.877025,21.5542889 126.429165,22.0676506 C129.981869,22.5810123 132.445696,25.8771564 131.932352,29.429416" id="Fill-47" fill="#EF4136"></path>
                        <g id="Group-51" stroke-width="1" fill="none" transform="translate(110.000000, 0.000000)">
                            <mask id="mask-4" fill="white">
                                <use xlink:href="#path-3"></use>
                            </mask>
                            <g id="Clip-50"></g>
                            <path d="M12.5882792,7.47527083 C12.0964458,10.8785625 8.93907083,13.2396875 5.5352375,12.7473125 C2.13140417,12.2560208 -0.229179167,9.09810417 0.262654167,5.6948125 C0.7544875,2.29097917 3.91240417,-0.0696041667 7.3162375,0.422229167 C10.7195292,0.9140625 13.0801125,4.07197917 12.5882792,7.47527083" id="Fill-49" fill="#EF4136" mask="url(#mask-4)"></path>
                        </g>
                    </g>
                </g>
                <g id="Page-1" mask="url(#mask-2)" stroke-linecap="round">
                    <g transform="translate(416.000000, 234.000000)">
                        <g id="Group-7" stroke="none" stroke-width="1" fill-rule="evenodd" transform="translate(0.000000, 0.672000)">
                            <path d="M18.6702,7.1712 L13.4892,31.4002" id="Stroke-1" stroke="#EF4136" stroke-width="8.432"></path>
                            <path d="M2.053,0.5442 L0.216,9.1342" id="Stroke-3" stroke="#EF4136" stroke-width="8.432"></path>
                            <path d="M36.3186,12.5726 L28.2666,50.2276" id="Stroke-5" stroke="#EF4136" stroke-width="8.432"></path>
                        </g>
                        <path d="M52.6526,24.7895 L42.9086,70.3625" id="Stroke-8" stroke="#EF4136" stroke-width="8.432"></path>
                        <path d="M68.6136,38.0844 L56.4176,95.1234" id="Stroke-9" stroke="#EF4136" stroke-width="8.432"></path>
                        <path d="M82.6145,60.5453 L70.6605,116.4503" id="Stroke-10" stroke="#EF4136" stroke-width="8.432"></path>
                        <path d="M95.1536,89.8383 L85.6136,134.4553" id="Stroke-11" stroke="#EF4136" stroke-width="8.432"></path>
                    </g>
                </g>
                <g id="Page-1" mask="url(#mask-2)" stroke-linecap="round">
                    <g transform="translate(227.000000, 189.000000)">
                        <g id="Group-9" stroke="none" stroke-width="1" fill-rule="evenodd" transform="translate(0.000000, 0.163800)">
                            <path d="M0.0774,8.054 L9.5014,0.913" id="Stroke-1" stroke="#FFFFFF" stroke-width="8.155"></path>
                            <path d="M17.3635,15.5531 L35.0025,2.1881" id="Stroke-3" stroke="#FFFFFF" stroke-width="8.155"></path>
                            <path d="M32.9138,24.3665 L58.7708,4.7745" id="Stroke-5" stroke="#FFFFFF" stroke-width="8.155"></path>
                            <path d="M48.9426,32.2689 L78.5186,10.4089" id="Stroke-7" stroke="#FFFFFF" stroke-width="8.155"></path>
                        </g>
                        <path d="M65.8699,40.1514 L98.2659,16.2054" id="Stroke-10" stroke="#FFFFFF" stroke-width="8.155"></path>
                        <path d="M84.8914,46.9346 L113.8284,25.0096" id="Stroke-11" stroke="#FFFFFF" stroke-width="8.155"></path>
                        <path d="M104.6394,52.5684 L130.3544,33.0854" id="Stroke-12" stroke="#FFFFFF" stroke-width="8.155"></path>
                        <path d="M120.1961,61.377 L143.1741,43.968" id="Stroke-13" stroke="#FFFFFF" stroke-width="8.155"></path>
                        <g id="Group-18" stroke="none" stroke-width="1" fill-rule="evenodd" transform="translate(137.000000, 57.163800)">
                            <path d="M0.241,14.097 L16.808,0.208" id="Stroke-14" stroke="#FFFFFF" stroke-width="8.155"></path>
                            <path d="M18.5662,20.9222 L25.0002,15.5292" id="Stroke-16" stroke="#FFFFFF" stroke-width="8.155"></path>
                        </g>
                    </g>
                </g>
                <g id="Page-1" mask="url(#mask-2)">
                    <g transform="translate(56.000000, 102.000000)">
                        <path d="M57.1638,3.1138 L69.2558,22.0168" id="Fill-1" stroke="none" fill="#ECEA64" fill-rule="evenodd"></path>
                        <path d="M57.1638,3.1138 L69.2558,22.0168" id="Stroke-2" stroke="#ECEA64" stroke-width="5.325" fill="none" stroke-linecap="round"></path>
                        <path d="M75.2585,12.8785 L77.1845,15.8895" id="Fill-4" stroke="none" fill="#ECEA64" fill-rule="evenodd"></path>
                        <path d="M75.2585,12.8785 L77.1845,15.8895" id="Stroke-5" stroke="#ECEA64" stroke-width="5.325" fill="none" stroke-linecap="round"></path>
                        <path d="M42.7883,0.6626 L54.8763,19.5586" id="Fill-7" stroke="none" fill="#ECEA64" fill-rule="evenodd"></path>
                        <path d="M42.7883,0.6626 L54.8763,19.5586" id="Stroke-8" stroke="#ECEA64" stroke-width="5.325" fill="none" stroke-linecap="round"></path>
                        <path d="M32.0017,4.0572 L41.4767,18.8702" id="Fill-10" stroke="none" fill="#ECEA64" fill-rule="evenodd"></path>
                        <path d="M32.0017,4.0572 L41.4767,18.8702" id="Stroke-11" stroke="#ECEA64" stroke-width="5.325" fill="none" stroke-linecap="round"></path>
                        <path d="M21.509,7.7945 L29.15,19.7385" id="Fill-13" stroke="none" fill="#ECEA64" fill-rule="evenodd"></path>
                        <path d="M21.509,7.7945 L29.15,19.7385" id="Stroke-14" stroke="#ECEA64" stroke-width="5.325" fill="none" stroke-linecap="round"></path>
                        <path d="M10.6936,11.0259 L16.5466,20.1759" id="Fill-16" stroke="none" fill="#ECEA64" fill-rule="evenodd"></path>
                        <path d="M10.6936,11.0259 L16.5466,20.1759" id="Stroke-17" stroke="#ECEA64" stroke-width="5.325" fill="none" stroke-linecap="round"></path>
                        <path d="M0.6628,15.2759 L4.9108,21.3129" id="Fill-19" stroke="none" fill="#ECEA64" fill-rule="evenodd"></path>
                        <path d="M0.6628,15.2759 L4.9108,21.3129" id="Stroke-20" stroke="#ECEA64" stroke-width="5.325" fill="none" stroke-linecap="round"></path>
                    </g>
                </g>
            </g>
        </g>
    </g>
</svg>