<?xml version="1.0" encoding="UTF-8"?>
<svg width="481px" height="320px" viewBox="0 0 481 320" version="1.1" xmlns="http://www.w3.org/2000/svg" xmlns:xlink="http://www.w3.org/1999/xlink">
    <!-- Generator: Sketch 47.1 (45422) - http://www.bohemiancoding.com/sketch -->
    <title>Artboard</title>
    <desc>Created with Sketch.</desc>
    <defs>
        <rect id="path-1" x="0" y="0" width="481" height="320"></rect>
        <polygon id="path-3" points="13.8333333 0.168618152 13.8333333 13.9545818 0.0476176877 13.9545818 0.0476176877 0.168618152 13.8333333 0.168618152"></polygon>
        <polygon id="path-5" points="13.8934342 14 0.106832477 14 0.106832477 0.214151021 13.8934342 0.214151021"></polygon>
    </defs>
    <g id="Welcome" stroke="none" stroke-width="1" fill="none" fill-rule="evenodd">
        <g id="Artboard">
            <g id="Page-1-+-Page-1-+-Page-1-Mask-Copy">
                <mask id="mask-2" fill="white">
                    <use xlink:href="#path-1"></use>
                </mask>
                <g id="Mask"></g>
                <g id="Page-1" mask="url(#mask-2)" stroke-linecap="round" stroke="#FFFFFF" stroke-width="7.622">
                    <g transform="translate(330.500000, 264.000000) rotate(-39.000000) translate(-330.500000, -264.000000) translate(306.000000, 220.000000)">
                        <path d="M0.0297280373,59.4918231 C8.46770668,83.5992449 9.67295076,87.8182343 9.67295076,87.8182343" id="Stroke-1"></path>
                        <path d="M10.6511162,33.8074239 C21.7256457,67.6609396 23.3080842,73.5855589 23.3080842,73.5855589" id="Stroke-3"></path>
                        <path d="M23.8350133,16.6027868 C34.9095428,50.4563025 36.4919813,56.3796518 36.4919813,56.3796518" id="Stroke-5"></path>
                        <path d="M35.9881664,0.0293470328 C47.0639659,33.8828628 48.6451343,39.806212 48.6451343,39.806212" id="Stroke-7"></path>
                    </g>
                </g>
                <g id="Page-1" mask="url(#mask-2)" stroke-linecap="round">
                    <g transform="translate(59.500000, 54.000000) scale(1, -1) rotate(-79.000000) translate(-59.500000, -54.000000) translate(1.000000, 21.000000)">
                        <g id="Group-7" stroke="none" stroke-width="1" fill-rule="evenodd" transform="translate(0.000000, 0.201700)">
                            <polyline id="Stroke-1" stroke="#008FB1" stroke-width="7.797" points="0.8981 19.4263 15.4695329 8.38676408 25.6191 0.6973"></polyline>
                            <path d="M16.2223,26.9819 L44.4973,6.0829" id="Stroke-3" stroke="#008FB1" stroke-width="7.797"></path>
                            <path d="M32.4049,34.3608 L63.3769,11.4678" id="Stroke-5" stroke="#008FB1" stroke-width="7.797"></path>
                        </g>
                        <path d="M50.5905,41.0479 L78.2545,20.0869" id="Stroke-8" stroke="#008FB1" stroke-width="7.797"></path>
                        <path d="M69.4694,46.4336 L94.0534,27.8066" id="Stroke-9" stroke="#008FB1" stroke-width="7.797"></path>
                        <g id="Group-14" stroke="none" stroke-width="1" fill-rule="evenodd" transform="translate(84.000000, 38.201700)">
                            <polyline id="Stroke-10" stroke="#008FB1" stroke-width="7.797" points="0.3425 16.6528 11.0955273 8.50542502 22.3095 0.0088"></polyline>
                            <path d="M16.6374,26.1021 L32.4754,12.8241" id="Stroke-12" stroke="#008FB1" stroke-width="7.797"></path>
                        </g>
                    </g>
                </g>
                <g id="Page-1" mask="url(#mask-2)">
                    <g transform="translate(359.500000, 76.500000) rotate(44.000000) translate(-359.500000, -76.500000) translate(314.000000, 24.000000)">
                        <path d="M13.9272391,42.0009235 C13.3747931,45.8258931 9.82451539,48.4796774 5.99936871,47.927257 C2.17354501,47.3741596 -0.479685058,43.8247232 0.0727609054,39.9990765 C0.625883886,36.1741069 4.17548461,33.5203226 8.00063129,34.072743 C11.826455,34.6251634 14.4796851,38.1752768 13.9272391,42.0009235" id="Fill-1" fill="#EF4136"></path>
                        <path d="M39.927257,45.0006313 C39.3748366,48.826455 35.8247232,51.4796851 31.9990765,50.9272391 C28.1741069,50.3741161 25.5203226,46.8245154 26.072743,42.9993687 C26.6258404,39.173545 30.1752768,36.5203149 34.0009235,37.0727609 C37.8258931,37.6252069 40.4796774,41.1754846 39.927257,45.0006313" id="Fill-3" fill="#EF4136"></path>
                        <path d="M64.9272391,49.0006398 C64.3747931,52.8257903 60.8245154,55.4797001 56.9993687,54.9272536 C53.173545,54.37413 50.5203149,50.8245257 51.0727609,46.9986982 C51.6258839,43.1735477 55.1754846,40.5203149 59.0006313,41.0727615 C62.826455,41.625208 65.4796851,45.1748123 64.9272391,49.0006398" id="Fill-5" fill="#EF4136"></path>
                        <g id="Group-9" stroke-width="1" fill="none" transform="translate(77.000000, 45.000000)">
                            <mask id="mask-4" fill="white">
                                <use xlink:href="#path-3"></use>
                            </mask>
                            <g id="Clip-8"></g>
                            <path d="M13.7619333,8.04693333 C13.2179333,11.8142667 9.72193333,14.4269333 5.9546,13.8829333 C2.18793333,13.3382667 -0.424733333,9.8436 0.119266667,6.07626667 C0.663933333,2.30893333 4.1586,-0.303733333 7.92593333,0.240266667 C11.6926,0.784266667 14.3059333,4.28026667 13.7619333,8.04693333" id="Fill-7" fill="#EF4136" mask="url(#mask-4)"></path>
                        </g>
                        <path d="M23.9272391,61.0006313 C23.3747931,64.826455 19.8251924,67.4796851 15.9993687,66.9272391 C12.173545,66.3741161 9.52031494,62.8245154 10.0727609,58.9993687 C10.6258839,55.173545 14.1754846,52.5203149 18.0006313,53.0727609 C21.826455,53.6252069 24.4796851,57.1748076 23.9272391,61.0006313" id="Fill-10" fill="#EF4136"></path>
                        <path d="M49.9272391,64.0009235 C49.3747932,67.8258931 45.8245155,70.4796774 41.998692,69.927257 C38.1735454,69.3741596 35.5203154,65.8247232 36.0727614,61.9990765 C36.6258843,58.1741069 40.1748079,55.5203226 44.0006315,56.072743 C47.8264551,56.6251634 50.479685,60.1752768 49.9272391,64.0009235" id="Fill-12" fill="#EF4136"></path>
                        <path d="M74.9272391,68.0006313 C74.3747931,71.826455 70.8251924,74.4796851 66.9993687,73.9272391 C63.173545,73.3741161 60.5203149,69.8245154 61.0727609,65.9993687 C61.6258839,62.173545 65.1754846,59.5203149 69.0006313,60.0727609 C72.826455,60.6252069 75.4796851,64.1754846 74.9272391,68.0006313" id="Fill-14" fill="#EF4136"></path>
                        <path d="M42.9272391,96.0006313 C42.3747931,99.826455 38.8245154,102.479685 34.9993687,101.927239 C31.173545,101.374116 28.5203149,97.8251924 29.0727609,93.9993687 C29.6258839,90.173545 33.1748076,87.5203149 37.0006313,88.0727609 C40.826455,88.6252069 43.4796851,92.1754846 42.9272391,96.0006313" id="Fill-16" fill="#EF4136"></path>
                        <g id="Group-20" stroke-width="1" fill="none" transform="translate(54.000000, 91.000000)">
                            <mask id="mask-6" fill="white">
                                <use xlink:href="#path-5"></use>
                            </mask>
                            <g id="Clip-19"></g>
                            <path d="M13.8218,8.09246667 C13.2778,11.8598 9.7818,14.4724667 6.01446667,13.9284667 C2.2478,13.3838 -0.365533333,9.88846667 0.178466667,6.12113333 C0.723133333,2.35446667 4.21846667,-0.2582 7.9858,0.2858 C11.7524667,0.8298 14.3658,4.32513333 13.8218,8.09246667" id="Fill-18" fill="#EF4136" mask="url(#mask-6)"></path>
                        </g>
                        <path d="M31.9272391,79.0006313 C31.3747932,82.826455 27.8245155,85.4796851 23.998692,84.9272391 C20.1735454,84.3741161 17.5203154,80.8251924 18.0727614,76.9993687 C18.6258843,73.173545 22.1748079,70.5203149 26.0006315,71.0727609 C29.8264551,71.6252069 32.479685,75.1754846 31.9272391,79.0006313" id="Fill-21" fill="#EF4136"></path>
                        <path d="M57.9272391,83.0006313 C57.3747931,86.826455 53.8251924,89.4796851 49.9993687,88.9272391 C46.173545,88.3741161 43.5203149,84.8245154 44.0727609,80.9993687 C44.6258839,77.173545 48.1754846,74.5203149 52.0006313,75.0727609 C55.826455,75.6252069 58.4796851,79.1748076 57.9272391,83.0006313" id="Fill-23" fill="#EF4136"></path>
                        <path d="M83.9272391,87.0006313 C83.3747931,90.826455 79.8245154,93.4796851 75.9993687,92.9272391 C72.173545,92.3741161 69.5203149,88.8251924 70.0727609,84.9993687 C70.6258839,81.173545 74.1748076,78.5203149 78.0006313,79.0727609 C81.826455,79.6252069 84.4796851,83.1754846 83.9272391,87.0006313" id="Fill-25" fill="#EF4136"></path>
                        <path d="M31.9272386,26.0006398 C31.3747927,29.8257903 27.8251921,32.4797001 23.9993685,31.9272536 C20.1735449,31.37413 17.520315,27.8245257 18.0727609,23.9986982 C18.6258839,20.1735477 22.1754845,17.5203149 26.001308,18.0727615 C29.8264546,18.625208 32.4796846,22.1748123 31.9272386,26.0006398" id="Fill-27" fill="#EF4136"></path>
                        <path d="M56.9272391,30.0006313 C56.3747931,33.826455 52.8245154,36.4796851 48.9993687,35.9272391 C45.173545,35.3741161 42.5203149,31.8251924 43.0727609,27.9993687 C43.6258839,24.173545 47.1748076,21.5203149 51.0006313,22.0727609 C54.826455,22.6252069 57.4796851,26.1754846 56.9272391,30.0006313" id="Fill-29" fill="#EF4136"></path>
                        <path d="M82.927257,33.0006313 C82.3748366,36.826455 78.8247232,39.4796851 74.9990765,38.9272391 C71.1741069,38.3741161 68.5203226,34.8245154 69.072743,30.9993687 C69.6258404,27.173545 73.1752768,24.5203149 77.0009235,25.0727609 C80.8258931,25.6252069 83.4796774,29.1748076 82.927257,33.0006313" id="Fill-31" fill="#EF4136"></path>
                        <path d="M42.9272391,8.00063129 C42.3747931,11.826455 38.8251924,14.4796851 34.9993687,13.9272391 C31.173545,13.3741161 28.5203149,9.82519241 29.0727609,5.99936871 C29.6258839,2.17354501 33.1754846,-0.479685058 37.0006313,0.0727609054 C40.826455,0.625206869 43.4796851,4.17548461 42.9272391,8.00063129" id="Fill-33" fill="#EF4136"></path>
                        <path d="M68.9272391,12.0006315 C68.3747931,15.8264551 64.8245154,18.479685 60.9993687,17.9272391 C57.173545,17.3741161 54.5203149,13.8245155 55.0727609,9.99869196 C55.6258839,6.1735454 59.1748076,3.52031543 63.0006313,4.07276137 C66.826455,4.62520732 69.4796851,8.17480792 68.9272391,12.0006315" id="Fill-35" fill="#EF4136"></path>
                    </g>
                </g>
            </g>
        </g>
    </g>
</svg>