<?xml version="1.0" encoding="UTF-8"?>
<svg width="532px" height="354px" viewBox="0 0 532 354" version="1.1" xmlns="http://www.w3.org/2000/svg" xmlns:xlink="http://www.w3.org/1999/xlink">
    <!-- Generator: Sketch 47.1 (45422) - http://www.bohemiancoding.com/sketch -->
    <title>Artboard 2</title>
    <desc>Created with Sketch.</desc>
    <defs>
        <rect id="path-1" x="0" y="0" width="532" height="354"></rect>
        <polygon id="path-3" points="12.5314397 13 0.472434185 13 0.472434185 0.941223567 12.5314397 0.941223567 12.5314397 13"></polygon>
        <polygon id="path-5" points="0 12.4024718 0 0.344 12.0588397 0.344 12.0588397 12.4024718"></polygon>
    </defs>
    <g id="Welcome" stroke="none" stroke-width="1" fill="none" fill-rule="evenodd">
        <g id="Artboard-2">
            <g id="Group-5-Copy" transform="translate(266.000000, 177.000000) scale(-1, 1) translate(-266.000000, -177.000000) ">
                <g id="Page-1-Copy-4-+-Page-1-Copy-5-+-Page-1-Copy-6-+-Page-1-Copy-7-+-Page-1-Copy-8-Mask">
                    <mask id="mask-2" fill="white">
                        <use xlink:href="#path-1"></use>
                    </mask>
                    <g id="Mask"></g>
                    <g id="Page-1-Copy-4" mask="url(#mask-2)" fill="#008FB1">
                        <g transform="translate(74.000000, 227.000000)">
                            <path d="M36.9323517,107.429165 C36.4190073,110.981869 33.1229748,113.445696 29.5708354,112.932352 C26.0181307,112.419007 23.554304,109.122975 24.0676483,105.570835 C24.5809927,102.018131 27.8764599,99.554304 31.4291646,100.067648 C34.9818693,100.580993 37.445696,103.877025 36.9323517,107.429165" id="Fill-1"></path>
                            <path d="M12.9323517,102.429159 C12.4190073,105.981867 9.12297478,108.445696 5.57083542,107.932352 C2.01813071,107.419007 -0.445696022,104.122971 0.0676483264,100.570828 C0.580992674,97.0186858 3.87645986,94.5542914 7.42916458,95.0676362 C10.9818693,95.5809811 13.445696,98.8770167 12.9323517,102.429159" id="Fill-3"></path>
                            <path d="M59.9323517,110.429159 C59.4190073,113.981867 56.1229748,116.445696 52.5708354,115.932352 C49.0181307,115.419007 46.554304,112.122971 47.0676483,108.570828 C47.5809927,105.018686 50.8764599,102.554291 54.4291646,103.067636 C57.9818693,103.580981 60.445696,106.877017 59.9323517,110.429159" id="Fill-5"></path>
                            <path d="M27.9323517,85.4291594 C27.4190073,88.9818674 24.1229748,91.4456964 20.5708354,90.9323516 C17.0181307,90.4190068 14.554304,87.1235365 15.0676483,83.5708285 C15.5809927,80.0186858 18.8764599,77.5542914 22.4291646,78.0676362 C25.9818693,78.5809811 28.445696,81.8770167 27.9323517,85.4291594" id="Fill-7"></path>
                            <path d="M50.9323517,88.4294697 C50.4190073,91.9816951 47.1229748,94.4461468 43.5708354,93.9322247 C40.0181307,93.4188679 37.554304,90.1233209 38.0676483,86.5705303 C38.5809927,83.0183049 41.8764599,80.5538532 45.4291646,81.0677753 C48.9818693,81.5811321 51.445696,84.8766791 50.9323517,88.4294697" id="Fill-9"></path>
                            <path d="M73.9323513,91.429416 C73.4190069,94.9816756 70.1235399,97.4461511 66.5708353,96.932224 C63.0181306,96.4194277 60.554304,93.1232836 61.0676483,89.571024 C61.5809927,86.018199 64.8770251,83.5542889 68.4297297,84.0676506 C71.981869,84.5810123 74.4456956,87.8765911 73.9323513,91.429416" id="Fill-11"></path>
                            <path d="M109.932352,77.4291594 C109.419007,80.9818674 106.12354,83.4456964 102.570835,82.9323516 C99.0181307,82.4190068 96.554304,79.1229712 97.0676483,75.5708285 C97.5809927,72.0186858 100.877025,69.5542914 104.429165,70.0676362 C107.981869,70.5809811 110.445696,73.8770167 109.932352,77.4291594" id="Fill-13"></path>
                            <path d="M19.9323513,63.429416 C19.4190069,66.9816756 16.1235399,69.4461511 12.5708353,68.932224 C9.01813064,68.4194277 6.55430399,65.1232836 7.06764832,61.571024 C7.58099266,58.018199 10.8770251,55.5542889 14.4297297,56.0676506 C17.981869,56.5810123 20.4456956,59.8771564 19.9323513,63.429416" id="Fill-15"></path>
                            <path d="M42.9323517,66.4291646 C42.4190073,69.9818693 39.1235401,72.445696 35.5708354,71.9323517 C32.0181307,71.4190073 29.554304,68.1229748 30.0676483,64.5708354 C30.5809927,61.0181307 33.8770252,58.554304 37.4291646,59.0676483 C40.9818693,59.5809927 43.445696,62.8770252 42.9323517,66.4291646" id="Fill-17"></path>
                            <path d="M65.9323517,69.4291594 C65.4190073,72.9818674 62.1229748,75.4456964 58.5708354,74.9323516 C55.0181307,74.4190068 52.554304,71.1235365 53.0676483,67.5708285 C53.5809927,64.0186858 56.8764599,61.5542914 60.4291646,62.0676362 C63.9818693,62.5809811 66.445696,65.8770167 65.9323517,69.4291594" id="Fill-19"></path>
                            <path d="M81.5708354,78.9322247 C78.0181307,78.4188679 75.554304,75.1233209 76.0676483,71.5705303 C76.5809927,68.0183049 79.8764599,65.5538532 83.4291646,66.0677753 C86.9818693,66.5811321 89.445696,69.8766791 88.9323517,73.4294697 C88.4190073,76.9816951 85.1229748,79.4461468 81.5708354,78.9322247 Z" id="Fill-21"></path>
                            <path d="M33.9323517,44.4295412 C33.4190073,47.9818007 30.1229748,50.4457107 26.5708354,49.932349 C23.0181307,49.4189873 20.554304,46.1234087 21.0676483,42.5705838 C21.5809927,39.0183243 24.8764599,36.5538489 28.4291646,37.067776 C31.9818693,37.5805723 34.445696,40.8767163 33.9323517,44.4295412" id="Fill-23"></path>
                            <path d="M56.9323517,47.4294697 C56.4190073,50.9816951 53.1229748,53.4461468 49.5708354,52.9322247 C46.0181307,52.4194333 43.554304,49.1233209 44.0676483,45.5705303 C44.5809927,42.0183049 47.8764599,39.5538532 51.4291646,40.0677753 C54.9818693,40.5811321 57.445696,43.8766791 56.9323517,47.4294697" id="Fill-25"></path>
                            <path d="M79.9323517,51.429416 C79.4190073,54.9816756 76.1229748,57.4461511 72.5708354,56.932224 C69.0181307,56.4194277 66.554304,53.1232836 67.0676483,49.571024 C67.5809927,46.018199 70.8764599,43.5542889 74.4291646,44.0676506 C77.9818693,44.5810123 80.445696,47.8771564 79.9323517,51.429416" id="Fill-27"></path>
                            <path d="M95.5708354,59.9323517 C92.0181307,59.4190073 89.554304,56.1229748 90.0676483,52.5708354 C90.5809927,49.0181307 93.8764599,46.554304 97.4291646,47.0676483 C100.981869,47.5809927 103.445696,50.8770252 102.932352,54.4291646 C102.419007,57.9818693 99.1229748,60.445696 95.5708354,59.9323517 Z" id="Fill-29"></path>
                            <path d="M25.9323517,22.429416 C25.4190073,25.9816756 22.1229748,28.4461511 18.5708354,27.932224 C15.0181307,27.4194277 12.554304,24.1232836 13.0676483,20.571024 C13.5809927,17.018199 16.8764599,14.5542889 20.4291646,15.0676506 C23.9818693,15.5810123 26.445696,18.8771564 25.9323517,22.429416" id="Fill-31"></path>
                            <path d="M48.9323513,25.4291594 C48.4190069,28.9818674 45.1235399,31.4456964 41.5708353,30.9323516 C38.0181306,30.4190068 35.554304,27.1229712 36.0676483,23.5708285 C36.5809927,20.0186858 39.8770251,17.5542914 43.4297297,18.0676362 C46.981869,18.5809811 49.4456956,21.8770167 48.9323513,25.4291594" id="Fill-33"></path>
                            <path d="M71.9323513,29.4295412 C71.4190069,32.9818007 68.1235399,35.4457107 64.5708353,34.932349 C61.0181306,34.4189873 58.554304,31.1234087 59.0676483,27.5705838 C59.5809927,24.0183243 62.8770251,21.5538489 66.4297297,22.067776 C69.981869,22.5805723 72.4456956,25.8767163 71.9323513,29.4295412" id="Fill-35"></path>
                            <path d="M93.9323517,32.4294697 C93.4190073,35.9816951 90.1235401,38.4461468 86.5708354,37.9322247 C83.0181307,37.4194333 80.554304,34.1233209 81.0676483,30.5705303 C81.5809927,27.0183049 84.8770252,24.5538532 88.4291646,25.0677753 C91.9818693,25.5811321 94.445696,28.8766791 93.9323517,32.4294697" id="Fill-37"></path>
                            <path d="M116.932352,35.429416 C116.419007,38.9816756 113.122975,41.4461511 109.570835,40.932224 C106.018131,40.4194277 103.554304,37.1232836 104.067648,33.571024 C104.580993,30.018199 107.87646,27.5542889 111.429165,28.0676506 C114.981869,28.5810123 117.445696,31.8771564 116.932352,35.429416" id="Fill-39"></path>
                            <path d="M62.9323517,7.42941619 C62.4190073,10.9816757 59.1235401,13.4461511 55.5708354,12.932224 C52.0181307,12.4194277 49.554304,9.12328367 50.0676483,5.57045882 C50.5809927,2.01819934 53.8770252,-0.445710698 57.4291646,0.0676510086 C60.9818693,0.581012715 63.445696,3.87659134 62.9323517,7.42941619" id="Fill-41"></path>
                            <path d="M85.9323517,10.429416 C85.4190073,13.9816756 82.1229748,16.4461511 78.5708354,15.932224 C75.0181307,15.4194277 72.554304,12.1232836 73.0676483,8.57102397 C73.5809927,5.01819901 76.8764599,2.55428889 80.4291646,3.06765062 C83.9818693,3.58101234 86.445696,6.87715644 85.9323517,10.429416" id="Fill-43"></path>
                            <path d="M108.932352,13.4291594 C108.419007,16.9818674 105.122975,19.4456964 101.570835,18.9323516 C98.0181307,18.4190068 95.554304,15.1229712 96.0676483,11.5708285 C96.5809927,8.01868579 99.8764599,5.5542914 103.429165,6.06763623 C106.981869,6.58098106 109.445696,9.87701668 108.932352,13.4291594" id="Fill-45"></path>
                            <path d="M131.932352,16.429416 C131.419007,19.9816756 128.12354,22.4461511 124.570835,21.932224 C121.018131,21.4194277 118.554304,18.1232836 119.067648,14.571024 C119.580993,11.018199 122.877025,8.55428889 126.429165,9.06765062 C129.981869,9.58101234 132.445696,12.8771564 131.932352,16.429416" id="Fill-47"></path>
                        </g>
                    </g>
                    <g id="Page-1-Copy-5" mask="url(#mask-2)" stroke-linecap="round">
                        <g transform="translate(416.000000, 234.000000)">
                            <g id="Group-7" stroke="none" stroke-width="1" fill-rule="evenodd" transform="translate(0.000000, 0.672000)">
                                <path d="M18.6702,7.1712 L13.4892,31.4002" id="Stroke-1" stroke="#ECEA64" stroke-width="8.432"></path>
                                <path d="M2.053,0.5442 L0.216,9.1342" id="Stroke-3" stroke="#ECEA64" stroke-width="8.432"></path>
                                <path d="M36.3186,12.5726 L28.2666,50.2276" id="Stroke-5" stroke="#ECEA64" stroke-width="8.432"></path>
                            </g>
                            <path d="M52.6526,24.7895 L42.9086,70.3625" id="Stroke-8" stroke="#ECEA64" stroke-width="8.432"></path>
                            <path d="M68.6136,38.0844 L56.4176,95.1234" id="Stroke-9" stroke="#ECEA64" stroke-width="8.432"></path>
                            <path d="M82.6145,60.5453 L70.6605,116.4503" id="Stroke-10" stroke="#ECEA64" stroke-width="8.432"></path>
                            <path d="M95.1536,89.8383 L85.6136,134.4553" id="Stroke-11" stroke="#ECEA64" stroke-width="8.432"></path>
                        </g>
                    </g>
                    <g id="Page-1-Copy-6" mask="url(#mask-2)" stroke-linecap="round">
                        <g transform="translate(227.000000, 189.000000)">
                            <g id="Group-9" stroke="none" stroke-width="1" fill-rule="evenodd" transform="translate(0.000000, 0.163800)">
                                <path d="M0.0774,8.054 L9.5014,0.913" id="Stroke-1" stroke="#FFFFFF" stroke-width="8.155"></path>
                                <path d="M17.3635,15.5531 L35.0025,2.1881" id="Stroke-3" stroke="#FFFFFF" stroke-width="8.155"></path>
                                <path d="M32.9138,24.3665 L58.7708,4.7745" id="Stroke-5" stroke="#FFFFFF" stroke-width="8.155"></path>
                                <path d="M48.9426,32.2689 L78.5186,10.4089" id="Stroke-7" stroke="#FFFFFF" stroke-width="8.155"></path>
                            </g>
                            <path d="M65.8699,40.1514 L98.2659,16.2054" id="Stroke-10" stroke="#FFFFFF" stroke-width="8.155"></path>
                            <path d="M84.8914,46.9346 L113.8284,25.0096" id="Stroke-11" stroke="#FFFFFF" stroke-width="8.155"></path>
                            <path d="M104.6394,52.5684 L130.3544,33.0854" id="Stroke-12" stroke="#FFFFFF" stroke-width="8.155"></path>
                            <path d="M120.1961,61.377 L143.1741,43.968" id="Stroke-13" stroke="#FFFFFF" stroke-width="8.155"></path>
                            <g id="Group-18" stroke="none" stroke-width="1" fill-rule="evenodd" transform="translate(137.000000, 57.163800)">
                                <path d="M0.241,14.097 L16.808,0.208" id="Stroke-14" stroke="#FFFFFF" stroke-width="8.155"></path>
                                <path d="M18.5662,20.9222 L25.0002,15.5292" id="Stroke-16" stroke="#FFFFFF" stroke-width="8.155"></path>
                            </g>
                        </g>
                    </g>
                    <g id="Page-1-Copy-7" mask="url(#mask-2)">
                        <g transform="translate(17.481120, 61.624029) rotate(11.000000) translate(-17.481120, -61.624029) translate(-6.518880, 9.624029)">
                            <g id="Group-3" stroke-width="1" fill="none" transform="translate(19.000000, 89.656000)">
                                <mask id="mask-4" fill="white">
                                    <use xlink:href="#path-3"></use>
                                </mask>
                                <g id="Clip-2"></g>
                                <path d="M11.4428,3.5163 C13.3508,6.2453 12.6858,10.0033 9.9568,11.9123 C7.2278,13.8193 3.4688,13.1543 1.5608,10.4253 C-0.3472,7.6963 0.3188,3.9373 3.0468,2.0303 C5.7758,0.1213 9.5348,0.7873 11.4428,3.5163" id="Fill-1" fill="#008FB1" mask="url(#mask-4)"></path>
                            </g>
                            <path d="M28.2333,70.7572 C30.1413,73.4862 29.4753,77.2442 26.7473,79.1532 C24.0183,81.0602 20.2593,80.3952 18.3513,77.6662 C16.4433,74.9372 17.1093,71.1782 19.8373,69.2712 C22.5663,67.3622 26.3253,68.0282 28.2333,70.7572" id="Fill-4" fill="#008FB1"></path>
                            <g id="Group-8" stroke-width="1" fill="none" transform="translate(35.000000, 54.656000)">
                                <path d="M11.2724,3.4889 C13.1804,6.2179 12.5154,9.9759 9.7864,11.8849 C7.0574,13.7919 3.2984,13.1269 1.3904,10.3979 C-0.5176,7.6689 0.1484,3.9099 2.8774,2.0029 C5.6054,0.0939 9.3644,0.7599 11.2724,3.4889" id="Fill-6" fill="#008FB1"></path>
                            </g>
                            <path d="M25.9789,48.3734 C27.8869,51.1024 27.2209,54.8604 24.4919,56.7694 C21.7639,58.6764 18.0049,58.0114 16.0969,55.2824 C14.1889,52.5534 14.8539,48.7944 17.5829,46.8874 C20.3119,44.9784 24.0709,45.6444 25.9789,48.3734" id="Fill-9" fill="#008FB1"></path>
                            <path d="M44.018,35.7611 C45.926,38.4901 45.26,42.2481 42.532,44.1571 C39.803,46.0641 36.044,45.3991 34.136,42.6701 C32.228,39.9411 32.894,36.1821 35.622,34.2751 C38.351,32.3661 42.11,33.0321 44.018,35.7611" id="Fill-11" fill="#008FB1"></path>
                            <path d="M23.769,25.9584 C25.677,28.6874 25.012,32.4454 22.283,34.3544 C19.554,36.2614 15.795,35.5964 13.887,32.8664 C11.979,30.1384 12.645,26.3794 15.374,24.4724 C18.102,22.5634 21.861,23.2294 23.769,25.9584" id="Fill-13" fill="#008FB1"></path>
                            <g id="Group-17" stroke-width="1" fill="none" transform="translate(0.000000, 0.656000)">
                                <mask id="mask-6" fill="white">
                                    <use xlink:href="#path-5"></use>
                                </mask>
                                <g id="Clip-16"></g>
                                <path d="M10.9702,2.9186 C12.8782,5.6476 12.2132,9.4056 9.4842,11.3146 C6.7552,13.2216 2.9962,12.5566 1.0882,9.8276 C-0.8198,7.0986 -0.1538,3.3396 2.5742,1.4326 C5.3032,-0.4764 9.0622,0.1896 10.9702,2.9186" id="Fill-15" fill="#008FB1" mask="url(#mask-6)"></path>
                            </g>
                        </g>
                    </g>
                    <g id="Page-1-Copy-8" mask="url(#mask-2)">
                        <g transform="translate(56.000000, 102.000000)">
                            <path d="M57.1638,3.1138 L69.2558,22.0168" id="Fill-1" stroke="none" fill="#ECEA64" fill-rule="evenodd"></path>
                            <path d="M57.1638,3.1138 L69.2558,22.0168" id="Stroke-2" stroke="#ECEA64" stroke-width="5.325" fill="none" stroke-linecap="round"></path>
                            <path d="M75.2585,12.8785 L77.1845,15.8895" id="Fill-4" stroke="none" fill="#ECEA64" fill-rule="evenodd"></path>
                            <path d="M75.2585,12.8785 L77.1845,15.8895" id="Stroke-5" stroke="#ECEA64" stroke-width="5.325" fill="none" stroke-linecap="round"></path>
                            <path d="M42.7883,0.6626 L54.8763,19.5586" id="Fill-7" stroke="none" fill="#ECEA64" fill-rule="evenodd"></path>
                            <path d="M42.7883,0.6626 L54.8763,19.5586" id="Stroke-8" stroke="#ECEA64" stroke-width="5.325" fill="none" stroke-linecap="round"></path>
                            <path d="M32.0017,4.0572 L41.4767,18.8702" id="Fill-10" stroke="none" fill="#ECEA64" fill-rule="evenodd"></path>
                            <path d="M32.0017,4.0572 L41.4767,18.8702" id="Stroke-11" stroke="#ECEA64" stroke-width="5.325" fill="none" stroke-linecap="round"></path>
                            <path d="M21.509,7.7945 L29.15,19.7385" id="Fill-13" stroke="none" fill="#ECEA64" fill-rule="evenodd"></path>
                            <path d="M21.509,7.7945 L29.15,19.7385" id="Stroke-14" stroke="#ECEA64" stroke-width="5.325" fill="none" stroke-linecap="round"></path>
                            <path d="M10.6936,11.0259 L16.5466,20.1759" id="Fill-16" stroke="none" fill="#ECEA64" fill-rule="evenodd"></path>
                            <path d="M10.6936,11.0259 L16.5466,20.1759" id="Stroke-17" stroke="#ECEA64" stroke-width="5.325" fill="none" stroke-linecap="round"></path>
                            <path d="M0.6628,15.2759 L4.9108,21.3129" id="Fill-19" stroke="none" fill="#ECEA64" fill-rule="evenodd"></path>
                            <path d="M0.6628,15.2759 L4.9108,21.3129" id="Stroke-20" stroke="#ECEA64" stroke-width="5.325" fill="none" stroke-linecap="round"></path>
                        </g>
                    </g>
                </g>
            </g>
        </g>
    </g>
</svg>