<?xml version="1.0" encoding="utf-8"?>
<!-- Generator: Adobe Illustrator 18.0.0, SVG Export Plug-In . SVG Version: 6.00 Build 0)  -->
<!DOCTYPE svg PUBLIC "-//W3C//DTD SVG 1.1//EN" "http://www.w3.org/Graphics/SVG/1.1/DTD/svg11.dtd">
<svg version="1.1" id="Layer_1" xmlns="http://www.w3.org/2000/svg" xmlns:xlink="http://www.w3.org/1999/xlink" x="0px" y="0px"
	 viewBox="0 0 167 33" enable-background="new 0 0 167 33" xml:space="preserve">
<g>
	<path d="M27.5,10.6c0,0-2.6,0-2.7,0c0-0.1,0-3.6,0-3.6c0-3.6-3-6.6-6.6-6.6c-3.6,0-6.6,3-6.6,6.6c0,0,0,3.6,0,3.6
		c-0.1,0-2.6,0-2.6,0c-3.6,0-6.6,3-6.6,6.6c0,3.6,3,6.6,6.6,6.6c0,0,2.5,0,2.6,0c0,0.1,0,2.4,0,2.4c0,3.6,3,6.6,6.6,6.6
		c3.6,0,6.6-2.9,6.6-6.6c0,0,0-2.3,0-2.4c0.1,0,2.7,0,2.7,0c3.6,0,6.6-3,6.6-6.6C34.1,13.5,31.1,10.6,27.5,10.6z M14.2,6.9
		c0-2.2,1.8-4.1,4.1-4.1c2.3,0,4.1,1.8,4.1,4c0,2.2-1.9,4.1-4.1,4.1h-0.5v-2h0.5c1.2,0,2.1-1,2.1-2.1c0-1.1-1-2-2.1-2
		c-1.1,0-2.1,0.9-2.1,2.1v7.8l-2,1.6V6.9z M22.3,26.1c0,2.2-1.8,4.1-4.1,4.1c-2.2,0-4.1-1.8-4.1-4.1v-2.5h2v2.5
		c0,1.1,0.9,2.1,2.1,2.1c1.1,0,2.1-0.9,2.1-2.1v-6.5l2-1.6V26.1z M27.5,21.2h-2.7v-2h2.7c1.1,0,2.1-0.9,2.1-2.1
		c0-1.2-0.9-2.1-2.1-2.1h-4c-0.5,0-1,0.2-1.7,0.5c-0.1,0.1-0.6,0.4-0.8,0.5c-4,3.2-4.6,3.7-4.6,3.7c-0.2,0.1-0.6,0.4-0.8,0.6
		c-0.7,0.5-1.5,0.7-2.3,0.8H9.1c-2.2,0-4.1-1.8-4.1-4.1c0-2.3,1.8-4.1,4.1-4.1h2.7v2H9.1C7.9,15.1,7,16,7,17.1
		c0,1.1,0.9,2.1,2.1,2.1c0,0,4.1,0,4.1,0c0.5,0,0.9-0.2,1.5-0.5l0.5-0.4c0,0,4.6-3.7,4.6-3.7c0,0,0.7-0.6,1.1-0.8
		c0.9-0.5,1.7-0.7,2.6-0.7h4c2.2,0,4.1,1.8,4.1,4.1C31.6,19.4,29.7,21.2,27.5,21.2z"/>
	<path d="M56.9,11.6c-2.5,0-4.5,2.1-4.5,5c0,2.8,1.9,5,4.5,5c2.5,0,4.4-2.2,4.4-5C61.4,13.7,59.5,11.6,56.9,11.6z M56.9,20.8
		c-1.9,0-2.6-1.2-2.6-4.2s0.7-4.2,2.6-4.2c1.8,0,2.6,1.2,2.6,4.2S58.8,20.8,56.9,20.8z"/>
	<path d="M148.5,20.5L148.5,20.5c0-0.1-0.1-0.1-0.1-0.1c0,0-0.1,0-0.1,0.1c-0.2,0.2-0.4,0.3-0.5,0.3c-0.3,0-0.4-0.2-0.4-0.9v-5.2
		c0-2.1-1.1-3.2-3.2-3.2c-1.4,0-3,0.9-3,2.1c0,0.6,0.4,1,1,1c0.5,0,1-0.4,1-1c0-0.3-0.2-0.6-0.4-0.8c0,0,0,0,0,0l0,0
		c0.1-0.1,0.5-0.6,1.5-0.6c1,0,1.5,0.5,1.5,1.6v2h0c-2.6,0-5.3,1-5.3,3.3c0,1.4,1,2.3,2.3,2.3c1,0,2.1-0.5,3.1-1.4l0,0v0
		c0.1,0.8,0.8,1.4,1.6,1.4c0.5,0,1-0.3,1.3-0.6c0.1-0.1,0.1-0.1,0-0.2L148.5,20.5z M145.7,19.3L145.7,19.3c-1.1,1-1.9,1.1-2.3,1.1
		c-0.7,0-1.3-0.7-1.3-1.6c0-1.5,1.2-2.3,3.6-2.3h0V19.3z"/>
	<path d="M92.6,20.6l-0.1-0.2c0,0-0.1-0.1-0.1-0.1c0,0-0.1,0-0.1,0.1c-0.2,0.2-0.4,0.3-0.5,0.3c-0.3,0-0.4-0.2-0.4-0.9v-5.2
		c0-2.1-1.1-3.2-3.2-3.2c-1.4,0-3,0.9-3,2.1c0,0.6,0.4,1,1,1c0.5,0,1-0.4,1-1c0-0.3-0.2-0.6-0.4-0.8c0,0,0,0,0,0l0,0
		c0.1-0.1,0.5-0.6,1.5-0.6c1,0,1.5,0.5,1.5,1.6v2h0c-2.6,0-5.3,1-5.3,3.3c0,1.4,1,2.3,2.3,2.3c1,0,2.1-0.5,3.1-1.4l0,0l0,0
		c0.1,0.8,0.8,1.4,1.6,1.4c0.5,0,1-0.3,1.3-0.6C92.6,20.8,92.6,20.7,92.6,20.6L92.6,20.6z M89.6,19.3L89.6,19.3
		c-1.1,1-1.9,1.1-2.3,1.1c-0.7,0-1.3-0.7-1.3-1.6c0-1.5,1.2-2.3,3.6-2.3h0V19.3z"/>
	<path d="M127.9,12.5l-1.1-0.4c-1.5-0.4-2.4-1.4-2.4-2.7c0-1.7,1.2-2.8,2.9-2.8c2.4,0,3.3,1.7,3.3,3.3c0,0.2,0.1,0.4,0.3,0.4
		c0.2,0,0.3-0.1,0.3-0.4V6.1c0-0.2,0-0.3-0.4-0.3c-0.3,0-0.3,0.2-0.3,0.4c0,0.3-0.2,0.5-0.4,0.7l0,0l0,0c-0.4-0.4-1.2-1.1-2.9-1.1
		c-2.1,0-4.3,1.6-4.3,4.1c0,2.3,1.4,3.9,4,4.7c0,0,0,0,0,0c0,0,0,0,0,0c0,0,0,0,0,0l0.9,0.3c1,0.3,2.8,1.1,2.8,3
		c0,1.8-1.6,2.8-3.1,2.8c-2.3,0-3.8-1.5-3.8-3.8c0-0.2,0-0.4-0.3-0.4c-0.2,0-0.3,0.1-0.3,0.4v4.4c0,0.1,0,0.4,0.4,0.4
		c0.2,0,0.3-0.1,0.3-0.4c0-0.4,0.2-0.7,0.5-0.8l0,0l0,0c0.4,0.4,1.6,1.3,3.2,1.3c2.8,0,4.9-1.9,4.9-4.5
		C132.2,14.9,130.7,13.3,127.9,12.5z M127,14.4C127,14.4,127,14.4,127,14.4C127,14.4,127,14.4,127,14.4L127,14.4z"/>
	<path d="M164.1,18.4c-0.2,0-0.3,0.2-0.4,0.4c-0.5,1.3-1.4,2-2.8,2c-1.8,0-2.7-1.4-2.7-4c0,0,0-0.6,0-0.9c0.1,0,6,0,6,0
		c0.1,0,0.2-0.1,0.2-0.1l0,0c0-0.1,0-0.2,0-0.3c0-1-0.3-1.9-1-2.6c-0.7-0.8-1.7-1.2-2.8-1.2c-2.1,0-4.3,1.9-4.3,5c0,3.1,2.2,5,4.3,5
		c1,0,2.9-0.3,3.8-2.3c0-0.1,0.1-0.3,0.1-0.4C164.5,18.6,164.4,18.4,164.1,18.4z M158.4,15c0.3-1.8,1.2-2.7,2.5-2.7
		c2,0,2.1,2.7,2.1,2.7c0,0,0,0,0,0L158.4,15C158.4,15,158.4,15,158.4,15z"/>
	<path d="M82.4,20.4l-1.3,0v0c0,0,0-14,0-14c0-0.3-0.2-0.4-0.3-0.4c0,0-0.5,0-0.5,0l-0.8,0.1c0,0-1.3,0-1.3,0c0,0-0.1,0-0.1,0
		c0,0-0.1,0-0.1,0c0,0,0,0.1,0,0.1v0.5c0,0,0,0.1,0.1,0.1c0,0,0.1,0,0.1,0l0.1,0c0.2,0,0.5-0.1,1.3-0.1h0v13.7l-1.3,0l-0.1,0
		c0,0-0.1,0-0.1,0c0,0,0,0.1,0,0.1v0.5c0,0,0,0.1,0,0.1c0,0,0.1,0,0.1,0l0.1,0c0.2,0,0.7-0.1,2.1-0.1h0.1c1.2,0,1.8,0,2.1,0.1
		c0,0,0.1,0,0.1,0c0,0,0-0.1,0-0.1v-0.5c0,0,0-0.1,0-0.1C82.5,20.4,82.5,20.4,82.4,20.4z"/>
	<path d="M68.2,11.6c-1.2,0-2.2,0.7-2.6,1.9l0,0v-1.2c0-0.2-0.2-0.4-0.3-0.4c0,0-0.5,0-0.5,0L63.9,12c0,0-1.2,0-1.2,0
		c0,0-0.1,0-0.1,0c0,0,0,0.1,0,0.1v0.5c0,0,0,0.1,0.1,0.1c0,0,0.1,0,0.1,0c0.2,0,0.5,0,1.2,0h0v7.8l-1.2,0c0,0-0.1,0-0.1,0
		c0,0,0,0.1,0,0.1V21c0,0,0,0.1,0,0.1c0,0,0.1,0,0.1,0c0.3,0,0.9-0.1,2-0.1h0.1c1.1,0,1.7,0,2,0.1c0,0,0.1,0,0.1,0c0,0,0-0.1,0-0.1
		v-0.5c0,0,0-0.1,0-0.1c0,0-0.1,0-0.1,0l-1.2,0v0c0,0,0-4,0-4c0-1.8,0.5-3.1,1.4-3.7c0.4-0.3,0.8-0.4,1.2-0.3l0,0l0,0
		c-0.2,0.2-0.3,0.3-0.3,0.7c0,0.6,0.4,1,1,1c0.6,0,1-0.5,1-1.2C70,12.1,69.3,11.6,68.2,11.6z"/>
	<path d="M47.3,6.1l-1.8,0l-0.9,0c-1.3,0-2,0-2.3-0.1c0,0-0.1,0-0.1,0c0,0-0.1,0.1-0.1,0.1v0.4c0,0,0,0.1,0,0.1c0,0,0.1,0,0.1,0
		l1.5,0v0c0,0,0,12.1,0,13.6l-1.2,0c0,0-0.1,0-0.1,0c0,0,0,0.1,0,0.1V21c0,0,0,0.1,0,0.1c0,0,0.1,0,0.1,0c0.2,0,0.8-0.1,1.9-0.1h0.3
		c1.2,0,1.8,0,2,0.1c0,0,0.1,0,0.1,0c0,0,0-0.1,0-0.1v-0.5c0,0,0-0.1,0-0.1c0,0-0.1,0-0.1,0h0c0,0-0.9,0-1.2,0v0c0,0,0-4.7,0-5.6
		h1.6c3.3,0,5.2-1.7,5.2-4.4C52.5,7.7,50.6,6.1,47.3,6.1z M47.3,14h-1.6V6.9h1.6c2.4,0,3.2,0.9,3.2,3.5C50.5,13.1,49.7,14,47.3,14z"
		/>
	<path d="M76.4,11.9c0,0-1.8,0-2.3,0v0c0,0,0-2.4,0-2.4c0-0.4,0-0.7-0.3-0.7c-0.3,0-0.4,0.2-0.6,1.5c0,0,0,0,0,0
		c-0.2,1.2-0.6,1.5-1.7,1.6c-0.1,0-0.1,0.1-0.1,0.2v0.5c0,0.1,0.1,0.2,0.2,0.2l0.3,0c0,0,0.4,0,0.7,0v0c0,0,0,6.6,0,6.6
		c0,1.2,0.7,2,1.9,2c1.2,0,1.7-0.5,1.8-0.7c0,0,0-0.1,0-0.2l-0.1-0.3c0,0-0.1-0.1-0.1-0.1c-0.1,0-0.1,0-0.1,0
		c-0.2,0.2-0.6,0.5-1,0.5c-0.3,0-0.7-0.1-0.7-0.9v-7l1.9,0l0.4,0c0.2,0,0.3-0.1,0.3-0.4C76.8,12.1,76.6,11.9,76.4,11.9z"/>
	<path d="M138.7,11.9c0,0-1.8,0-2.3,0v0c0,0,0-2.4,0-2.4c0-0.4,0-0.7-0.3-0.7c-0.3,0-0.4,0.2-0.6,1.3c0,0,0,0,0,0
		c-0.2,1.2-0.6,1.6-1.7,1.7c-0.1,0-0.1,0.1-0.1,0.2v0.5c0,0,0,0.1,0,0.1c0,0,0.1,0,0.1,0l1,0v0c0,0,0,6.7,0,6.7c0,1.2,0.7,2,1.9,2
		c1.2,0,1.7-0.5,1.8-0.7c0,0,0-0.1,0-0.2l0,0l-0.1-0.3c0,0-0.1-0.1-0.1-0.1c-0.1,0-0.1,0-0.1,0c-0.2,0.2-0.6,0.5-1,0.5
		c-0.3,0-0.7-0.1-0.7-0.9v-7.1l1.9,0c0,0,0.4,0,0.4,0c0.2,0,0.3-0.1,0.3-0.4C139,12.1,138.9,11.9,138.7,11.9z"/>
	<path d="M154.8,20.7c0,0,0-0.1,0-0.2l0-0.1l-0.1-0.2c0,0-0.1-0.1-0.1-0.1c0,0-0.1,0-0.1,0c-0.2,0.2-0.6,0.5-1,0.5
		c-0.3,0-0.7-0.1-0.7-0.9v-7.1l1.9,0l0.4,0c0.2,0,0.4-0.1,0.4-0.4c0-0.2-0.2-0.4-0.3-0.4c0,0-1.8,0-2.3,0v0c0,0,0-2.4,0-2.4
		c0-0.4,0-0.7-0.3-0.7c-0.3,0-0.4,0.2-0.6,1.3v0c0,0,0,0,0,0c-0.2,1.2-0.6,1.6-1.7,1.7c-0.1,0-0.1,0.1-0.1,0.2v0.5c0,0,0,0.1,0,0.1
		c0,0,0.1,0,0.1,0l1,0v0c0,0,0,6.7,0,6.7c0,1.2,0.7,2,1.9,2C154.2,21.3,154.7,20.9,154.8,20.7z"/>
	<path d="M104.7,20.4l-1.3,0v0c0,0,0-5.4,0-5.4c0-1.6-0.5-3.5-2.9-3.5c-1.5,0-2.9,1.3-3.4,2.7l0,0v-2c0-0.2-0.2-0.4-0.3-0.4
		c0,0-0.5,0-0.5,0c0,0-0.8,0.1-0.8,0.1c0,0-1.2,0-1.2,0s0,0,0,0c0,0-0.1,0-0.1,0c0,0,0,0.1,0,0.1v0.5c0,0,0,0.1,0,0.1
		c0,0,0.1,0,0.1,0l0,0c0,0,0.9,0,1.2,0v0c0,0,0,6.6,0,7.7l-1.2,0c0,0,0,0,0,0c0,0-0.1,0-0.1,0c0,0,0,0.1,0,0.1v0.5
		c0,0.1,0.1,0.2,0.2,0.2c0,0,0,0,0,0c0.2,0,0.6-0.1,2-0.1h0.1c1.3,0,1.8,0,2,0.1c0,0,0.1,0,0.1,0c0,0,0.1-0.1,0.1-0.1v-0.5
		c0,0,0-0.1,0-0.1c0,0-0.1,0-0.1,0l-1.2,0v0c0,0,0-3.5,0-3.5c0-2.3,1.6-4.5,3.3-4.5c1,0,1.4,0.5,1.4,1.8v6.2l-1.3,0c0,0-0.1,0-0.1,0
		c0,0,0,0.1,0,0.1v0.5c0,0,0,0.1,0.1,0.1c0,0,0.1,0,0.1,0c0.3,0,0.8-0.1,2-0.1h0.1c1,0,1.7,0,2,0c0,0,0.1,0,0.1,0c0,0,0-0.1,0-0.1
		v-0.5c0,0,0-0.1,0-0.1C104.8,20.4,104.8,20.4,104.7,20.4z"/>
	<path d="M116,21.1v-0.5c0,0,0-0.1-0.1-0.1c0,0-0.1,0-0.1,0c-0.2,0-0.5,0.1-1.3,0.1h0V6.4c0-0.2-0.2-0.4-0.3-0.4c0,0-0.5,0-0.5,0
		l-0.8,0.1c0,0-1.1,0-1.1,0c0,0-0.1,0-0.1,0c0,0,0,0.1,0,0.1v0.5c0,0,0,0.1,0,0.1c0,0,0.1,0,0.1,0c0.2,0,0.5,0,1.1,0h0v6.5l0,0
		c-0.6-1.1-1.7-1.7-2.8-1.7c-2.4,0-4,2-4,5c0,2.9,1.6,5,4,5c1.1,0,2.1-0.6,2.8-1.7l0,0v1c0,0.3,0.2,0.4,0.3,0.4c0,0,0.5,0,0.5,0
		l0.8,0c0,0,1.3,0,1.3,0c0,0,0.1,0,0.1,0C116,21.1,116,21.1,116,21.1z M110.1,20.8c-1.5,0-2.1-1.3-2.1-4.2s0.7-4.2,2.1-4.2
		c1.7,0,2.8,1.7,2.8,4.2C112.9,19.1,111.8,20.8,110.1,20.8z"/>
	<path d="M109.4,28.4c0,0.7-0.4,1.2-1.1,1.2c-0.7,0-1.1-0.4-1.1-1.2v-3.1h-0.7v3.1c0,1.3,0.9,1.8,1.8,1.8c0.9,0,1.8-0.5,1.8-1.8
		v-3.1h-0.7V28.4z"/>
	<path d="M116.6,29.1c-0.2-0.3-2.2-3.8-2.2-3.8h-0.7v4.8h0.7c0,0,0-3.4,0-3.7c0.2,0.3,2.1,3.7,2.1,3.7h0.8v-4.8h-0.7
		C116.6,25.3,116.6,28.8,116.6,29.1z"/>
	<rect x="121" y="25.3" width="0.7" height="4.8"/>
	<path d="M126.9,29.3c-0.1-0.2-1.4-3.9-1.4-3.9h-0.7l1.8,4.8h0.6l1.8-4.8h-0.7C128.4,25.3,127.2,28.6,126.9,29.3z"/>
	<path d="M132.7,28c0.1,0,1.7,0,1.7,0v-0.6c0,0-1.6,0-1.7,0c0-0.1,0-1.3,0-1.4c0.1,0,1.8,0,1.8,0v-0.6h-2.5v4.8h2.5v-0.6
		c0,0-1.8,0-1.9,0C132.7,29.5,132.7,28.1,132.7,28z"/>
	<path d="M140.4,28.2C140.4,28.2,140.4,28.2,140.4,28.2c-0.1-0.2-0.2-0.4-0.4-0.5c0.5-0.2,0.8-0.6,0.8-1.1c0-0.8-0.5-1.3-1.5-1.3
		h-1.3v4.8h0.7c0,0,0-2.1,0-2.2c0.1,0,0.3,0,0.3,0c0.4,0,0.5,0,0.8,0.5c0,0,0,0.1,0.7,1.6l0,0.1h0.7l-0.1-0.2L140.4,28.2z
		 M139.2,27.4c0,0-0.3,0-0.4,0c0-0.1,0-1.3,0-1.4c0.1,0,0.4,0,0.4,0c0.6,0,1.1,0,1.1,0.7C140.2,27.3,139.4,27.4,139.2,27.4z"/>
	<rect x="150.5" y="25.3" width="0.7" height="4.8"/>
	<path d="M145.8,27.4c-0.5-0.2-0.9-0.5-0.9-0.8c0-0.6,0.7-0.7,0.9-0.7c0.3,0,0.6,0.1,0.8,0.2l0.1,0.1l0.1-0.6c0,0,0-0.1,0-0.1
		l-0.1,0c-0.4-0.1-0.8-0.2-0.9-0.2c-0.9,0-1.6,0.5-1.6,1.3c0,0.7,0.6,1.1,1.2,1.4c0.5,0.3,0.9,0.5,0.9,0.8c0,0.5-0.3,0.8-0.9,0.8
		c-0.4,0-0.7-0.1-1-0.3l-0.1-0.1l-0.1,0.7l0.1,0c0.2,0.1,0.6,0.2,1.1,0.2c0.8,0,1.6-0.4,1.6-1.4C147.1,28,146.4,27.7,145.8,27.4z"/>
	<path d="M154,25.9c0,0,1.3,0,1.4,0c0,0.1,0,4.2,0,4.2h0.7c0,0,0-4.1,0-4.2c0.1,0,1.4,0,1.4,0v-0.6H154V25.9z"/>
	<path d="M161.8,27.5c-0.1-0.1-1.3-2.1-1.3-2.1l0,0h-0.8l1.8,2.8l0,2h0.7v-2c0,0,1.7-2.6,1.7-2.6l0.1-0.2h-0.7
		C163.2,25.3,161.9,27.4,161.8,27.5z"/>
</g>
</svg>
