<?xml version="1.0" encoding="utf-8"?>
<!-- Generator: Adobe Illustrator 22.0.1, SVG Export Plug-In . SVG Version: 6.00 Build 0)  -->
<svg version="1.1" id="Layer_1" xmlns="http://www.w3.org/2000/svg" xmlns:xlink="http://www.w3.org/1999/xlink" x="0px" y="0px"
	 viewBox="0 0 476.8 1043.2" style="enable-background:new 0 0 476.8 1043.2;" xml:space="preserve">
<g id="Layer_2_1_">
	<g id="Layer_1-2">
		<polygon points="420.5,51 239.4,340.4 239.4,310.7 404.7,46.7 		"/>
		<polygon points="453.4,59.9 239.4,401.9 239.4,372.2 437.5,55.6 		"/>
		<polygon points="387.7,42 239.4,278.9 239.4,249.2 371.8,37.7 		"/>
		<polygon points="486.3,68.9 239.4,463.3 239.4,433.7 470.4,64.6 		"/>
		<polygon points="289,15.2 239.4,94.3 239.4,64.7 273.1,10.8 		"/>
		<polygon points="256.1,6.2 239.4,32.9 239.4,3.2 240.2,1.9 		"/>
		<polygon points="354.8,33.1 239.4,217.4 239.4,187.7 338.9,28.8 		"/>
		<polygon points="512.8,76.1 507,97.4 239.4,524.9 239.4,495.2 503.3,73.5 		"/>
		<polygon points="321.9,24.1 239.4,155.9 239.4,126.2 306,19.8 		"/>
		<polygon points="312.7,808.6 298.3,861.3 239.4,955.3 239.4,925.7 		"/>
		<polygon points="342.5,699.4 328.1,752.1 239.4,893.8 239.4,864.2 		"/>
		<polygon points="372.3,590.3 357.9,643 239.4,832.3 239.4,802.7 		"/>
		<polygon points="282.9,917.7 268.5,970.4 239.4,1016.8 239.4,987.2 		"/>
		<polygon points="253.1,1026.8 244,1060.1 239.4,1058.8 239.4,1048.6 		"/>
		<polygon points="432,372 417.6,424.7 239.4,709.4 239.4,679.7 		"/>
		<polygon points="402.1,481.2 387.7,533.9 239.4,770.8 239.4,741.2 		"/>
		<polygon points="461.8,262.9 447.4,315.6 239.4,647.8 239.4,618.2 		"/>
		<polygon points="491.6,153.8 477.2,206.5 239.4,586.3 239.4,556.7 		"/>
	</g>
</g>
</svg>
