<svg xmlns="http://www.w3.org/2000/svg" viewBox="0 0 618.69 216.04"><defs><clipPath id="a"><path d="M426.23 112a11 11 0 0 1 .37 2.75c0 7.61-5.65 12.77-14.73 12.77A15.36 15.36 0 0 1 396.64 112h-35.11c0 26.52 18.17 48.13 50.34 48.13 27.75 0 49.85-21.61 49.85-47.64v-.54z" fill="none"/></clipPath><clipPath id="b"><path fill="none" d="M146.09 98.35V68.89h23.03l62.75 86.36h-46.84l-38.94-56.9z"/></clipPath></defs><g data-name="Layer 2"><g data-name="Layer 1"><g clip-path="url(#a)" fill="none" stroke="#000" stroke-width="2.99"><path d="M387.12 99.81v116.23M378.71 99.81v116.23M371.15 99.81v116.23"/></g><path fill="#9bd3ad" d="M576.76 94.49h-51.74v-30.2h51.81l-.07 30.2z"/><path fill="#f89a2e" d="M486.03 7.91h36.1v34.28h-36.1z"/><path fill="none" stroke="#010101" stroke-width="5.99" d="M486.03 7.91h36.1v34.28h-36.1z"/><path fill="none" stroke="#000" stroke-width="5.99" d="M579.84 6.39v57.96h-57.71V40.67h-36.1v113.07h36.1V95.53h57.71v58.21h35.85V6.39h-35.85z"/><path d="M393.45 115.02l-.68 42.2 14.19 4.08 17.91-2.02 17.23-7.44 15.2-18.24 4.73-17.91-.33-3.71h-35.47l-.35 7.43-5.4 6.76-8.61 1.33-7.95-2.35-7.09-9.46-3.38-.67z"/><path fill="#f89a2e" d="M277.93 154h-16.8V89.47l16.8 6.93V154z"/><path d="M277.8 125.13h66.22v28.82H277.8z"/><path fill="#9bd3ad" d="M280.94 66.21l-.32-26.58h-23.06v34.86l23.38-8.28z"/><path fill="none" stroke="#9bd3ad" stroke-width="8.98" d="M340.69 22.87h-78.17"/><path stroke="#000" stroke-width=".48" d="M244.52 7.01h18.12v147.05h-18.12z"/><path fill="#f89a2e" d="M185.03 155.25h46.84l-59.18-84.34h-23.58v29.33l35.92 55.01zM38.66 71.63l-19.11 7.59V24.89h19.11v46.74z"/><path fill="#f89a2e" d="M97.98 24.72H19.76v14.8h78.27l-.05-14.8z"/><path fill="#9bd3ad" d="M13.76 154l.27-58.61 23.79 5.02V154H13.76z"/><path d="M178.09 71.75c8.1 0 13.51-8.34 13.51-16.94s-6.39-16.21-14.49-16.21h-28v33.15zM113 7.91h61.64c31.68 0 52.31 19.15 52.31 46.9 0 25.79-13 40.27-34.87 45.68l39.78 54.76h-45.18l-37.57-55v55H113z" fill="none" stroke="#010101" stroke-width="5.99"/><path d="M244.64 7.91h97.49v31.92h-61.39v26.52h56.72v31.44h-56.72v26.52h64.09v30.94H244.64z" fill="none" stroke="#000" stroke-width="5.99"/><path d="M3 7.91h95v31.92H39.09v31.43h54.28v31.44H39.09v52.55H3z" fill="none" stroke="#010101" stroke-width="5.99"/><path fill="none" stroke="#010101" stroke-width="2.99" d="M93.06 79.88H19.5l20.22-8.09M18.86 86.69h74.38M93.06 94.62H19.6"/><path fill="#010101" d="M3 155.25V7.91h95.03l.07 17H19.76v130.33L3 155.25z"/><path fill="none" stroke="#fff" stroke-width="5.99" d="M11.98 141.49V18.1h71.08"/><path fill="#010101" d="M110.02 5.13h41.9v153.02h-41.9z"/><path d="M131.15 23h47c42.5 0 42.7 64.49 4 64.49h-10.21" fill="none" stroke="#9bd3ad" stroke-width="8.98"/><path fill="#f89a2e" d="M191.59 97.71l-12.45-17.7-12.49.47.23 24.72 24.71-7.49z"/><g clip-path="url(#b)" fill="none" stroke="#010101" stroke-width="2.99"><path d="M152.81 61.4l75.04 103.27M142.24 61.4l75.04 103.27M131.67 61.4l75.03 103.27"/></g><path fill="#fff" d="M119.09 18.51h12.07v126.98h-12.07z"/><path fill="none" stroke="#000" stroke-width="5.99" d="M280.74 39.83h-34.16"/><path fill="none" stroke="#000" stroke-width="2.99" d="M336.19 81.77h-76.62M336.19 89.47h-76.62l21.67 7.79"/><path fill="none" stroke="#fff" stroke-width="8.98" d="M251.28 144.1V22.94h11.6"/><path fill="none" stroke="#000" stroke-width="2.99" d="M279.93 67.27l-20.36 7.22h76.62"/><path fill="none" stroke="#010101" stroke-width="2.99" d="M19.6 94.62l19.13 6.71"/><path d="M412.6 35.9c10.07 0 15.23 6.88 15.23 15.23h33.89C459.75 23.87 444.28 3 411.62 3c-27.57 0-49.79 21.35-50.07 47.16h35.58c0-9.59 7.62-14.26 15.47-14.26z" fill="#9bd3ad" stroke="#000" stroke-width="5.99"/><path d="M426.23 112a11 11 0 0 1 .37 2.75c0 7.61-5.65 12.77-14.73 12.77A15.36 15.36 0 0 1 396.64 112h-35.11c0 20.71 11.07 38.42 31.24 45.19a59.91 59.91 0 0 0 19.1 2.94c27.75 0 49.85-21.61 49.85-47.64v-.54z" fill="none" stroke="#000" stroke-width="5.99"/><path d="M423.17 66.84c-12.53-3.68-26-5.64-26-16.69h-35.62v.49c0 25.29 13.75 36.83 38.55 45.67 11 3.81 23.92 6.81 26.15 15.67h35.45c-.19-22.77-12.47-37.34-38.53-45.14z" fill="none" stroke="#000" stroke-width="5.99"/><path d="M412.61 24c11.38 0 20.51 6 24.7 15.22h10.13C443.43 26.36 433.65 15 411.62 15c-19.67 0-35.9 14.23-37.9 32.15h11.63C386.87 33.65 397.86 24 412.61 24z" fill="#fff"/><path d="M419.78 78.36c-1.61-.47-3.24-.92-4.85-1.36-11.86-3.23-29.78-8.12-29.78-26.83a24.51 24.51 0 0 1 .2-3h-11.63a31.35 31.35 0 0 0-.21 3.51c0 17.56 7.72 26.24 30.5 34.36 1.44.5 2.91 1 4.38 1.47 12 4 30.19 9.92 30.19 28.27 0 14.34 11.16 17.45 11.16-2.21 0-12.5-3.56-26.32-29.96-34.21z"/><path fill="#010101" d="M505.59 43.58h19.43v107.74h-19.43zM615.33 154.83h-38.5V64.06l38.5.23v90.54z"/><path fill="none" stroke="#010101" stroke-miterlimit="10" stroke-width="2.99" d="M588.47 83.45V18.66l-8.63-12.27M606.17 83.45V18.66l8.64-12.27M597.18 83.9V18.18"/><path fill="none" stroke="#9bd3ad" stroke-width="8.98" d="M608.48 90.07v60.48"/><path fill="none" stroke="#f89a2e" stroke-width="8.98" d="M595.39 116.22v34.33"/><path fill="none" stroke="#010101" stroke-miterlimit="10" stroke-width="2.99" d="M588.47 18.66h17.7"/></g></g></svg>