<?xml version="1.0" encoding="utf-8"?>
<!-- Generator: Adobe Illustrator 22.0.1, SVG Export Plug-In . SVG Version: 6.00 Build 0)  -->
<svg version="1.1" id="Layer_1" xmlns="http://www.w3.org/2000/svg" xmlns:xlink="http://www.w3.org/1999/xlink" x="0px" y="0px"
	 viewBox="0 0 476.8 1043.2" style="enable-background:new 0 0 476.8 1043.2;" xml:space="preserve">
<style type="text/css">
	.st0{display:none;}
	.st1{display:inline;}
</style>
<title>stripes-top-right</title>
<g id="Layer_2_1_">
	<g id="Layer_1-2">
		<polygon points="227,721.8 212.8,730 54.6,578 27.7,530.5 		"/>
		<polygon points="285.9,687.8 271.6,696 55.6,488.6 78.4,488.6 		"/>
		<polygon points="197.6,738.8 183.4,747 110.1,676.6 83.2,629 		"/>
		<polygon points="256.5,704.8 242.2,713 8.5,488.6 31.3,488.6 		"/>
		<polygon points="168.2,755.7 158,761.6 138.8,727.6 		"/>
		<polygon points="315.3,670.8 301.1,679 102.7,488.6 125.5,488.6 		"/>
		<polygon points="338.3,647.7 338.3,657.5 330.5,662 149.8,488.6 172.6,488.6 		"/>
		<polygon points="338.3,602.5 338.3,624.4 196.9,488.6 219.7,488.6 		"/>
		<polygon points="338.3,557.2 338.3,579.1 244.1,488.6 266.8,488.6 		"/>
		<polygon points="338.3,512 338.3,533.9 291.2,488.6 314,488.6 		"/>
	</g>
</g>
<g class="st0">
	<title>stripes-top-right</title>
	<g class="st1">
		<polygon points="148.5,529.3 302,678 316.4,669.7 171.5,529.3 		"/>
		<polygon points="244,529.3 324.3,607.1 324.3,584.7 267.2,529.3 		"/>
		<polygon points="100.7,529.3 272.1,695.3 286.5,687 123.8,529.3 		"/>
		<polygon points="196.3,529.3 324.3,653.4 324.3,631 219.4,529.3 		"/>
		<polygon points="53,529.3 242.1,712.6 256.6,704.2 76.1,529.3 		"/>
		<polygon points="111.5,678.6 182.3,747.2 196.7,738.8 84.4,630 		"/>
		<polygon points="55.4,578 212.2,729.9 226.6,721.5 28.3,529.3 		"/>
		<polygon points="157.6,761.4 166.8,756.1 140.6,730.7 		"/>
		<polygon points="314.9,529.3 291.9,529.3 324.3,560.7 324.3,538.4 		"/>
	</g>
</g>
</svg>
