<?xml version="1.0" standalone="no"?>
<!DOCTYPE svg PUBLIC "-//W3C//DTD SVG 20010904//EN"
 "http://www.w3.org/TR/2001/REC-SVG-20010904/DTD/svg10.dtd">
<svg version="1.0" xmlns="http://www.w3.org/2000/svg"
 width="300.000000pt" height="300.000000pt" viewBox="0 0 300.000000 300.000000"
 preserveAspectRatio="xMidYMid meet">
<metadata>
Created by potrace 1.11, written by Peter Selinger 2001-2013
</metadata>
<g transform="translate(0.000000,300.000000) scale(0.100000,-0.100000)"
fill="#000000" stroke="none">
<path d="M1498 2722 l-488 -277 0 -1222 0 -1221 323 182 c177 100 397 224 489
276 l168 95 0 1223 c0 672 -1 1222 -2 1221 -2 0 -222 -125 -490 -277z m330
-204 l-3 -92 -212 -121 -212 -120 -1 -309 c0 -263 2 -307 14 -303 8 3 90 49
181 101 92 53 169 96 171 96 3 0 3 -43 2 -96 l-3 -97 -182 -104 -183 -105 0
-431 0 -432 -84 -47 c-46 -27 -86 -48 -90 -48 -3 0 -6 418 -6 929 l0 929 298
171 c163 94 301 171 305 171 4 0 6 -42 5 -92z"/>
</g>
</svg>
