<?xml version="1.0" encoding="utf-8"?>
<!-- Generator: Adobe Illustrator 17.0.0, SVG Export Plug-In . SVG Version: 6.00 Build 0)  -->
<!DOCTYPE svg PUBLIC "-//W3C//DTD SVG 1.1//EN" "http://www.w3.org/Graphics/SVG/1.1/DTD/svg11.dtd">
<svg version="1.1" id="Layer_1" xmlns="http://www.w3.org/2000/svg" xmlns:xlink="http://www.w3.org/1999/xlink" x="0px" y="0px"
	 width="193.65px" height="49.207px" viewBox="0 0 193.65 49.207" enable-background="new 0 0 193.65 49.207" xml:space="preserve">
<path fill="#9BD098" d="M55.083,6.607H40.267v36.77h-1.418V5.191h16.233c10.02,0,15.766,4.767,15.766,13.08
	c0,5.849-2.928,10.07-8.271,11.982l8.731,13.121h-1.701L60.35,29.462l0.92-0.272c5.339-1.575,8.16-5.35,8.16-10.918
	C69.43,10.75,64.334,6.607,55.083,6.607 M62.268,18.331c0,4.012-2.465,5.962-7.536,5.962h-7.068V12.311h7.068
	C59.734,12.311,62.268,14.336,62.268,18.331 M60.852,18.331c0-2.144-0.697-4.603-6.12-4.603H49.08v9.146h5.652
	C59.021,22.875,60.852,21.518,60.852,18.331 M61.374,43.376l-8.906-13.379h-4.805v13.379h1.416V31.412h2.63l7.963,11.965
	L61.374,43.376L61.374,43.376z M14.4,28.552h11.942v-1.415H12.984v16.239H14.4V28.552z M5.586,6.607h27.131V5.191H4.169v38.186
	h1.417C5.586,43.377,5.586,6.607,5.586,6.607z M26.342,20.016H14.4v-6.287h18.317v-1.418H12.984v9.122h13.358V20.016z
	 M107.538,41.958H80.406V6.607h27.133V5.191H78.99v38.186h28.548C107.538,43.377,107.538,41.958,107.538,41.958z M107.538,34.839
	H89.22v-6.287h11.944v-1.415H87.803v9.118h19.734L107.538,34.839L107.538,34.839z M101.165,20.016H89.22v-6.287h18.317v-1.418
	H87.803v9.122h13.361L101.165,20.016L101.165,20.016z M154.074,5.191h-1.416v38.186h1.416V5.191z M178.3,27.137h-16.828v16.239
	h1.416V28.552h13.997v14.824h1.415L178.3,27.137L178.3,27.137z M187.115,5.191h-1.417v38.186h1.417V5.191z M178.3,5.191h-1.415
	v14.824h-13.997V5.191h-1.416v16.241H178.3V5.191z M134.405,20.085l-6.875-1.225c-2.802-0.548-3.745-1.227-3.745-2.688
	c0-2.995,3.585-3.319,5.126-3.319c1.911,0,5.067,0.482,6.282,3.462l1.403-0.288c-1.073-2.936-3.806-4.591-7.687-4.591
	c-4.098,0-6.543,1.77-6.543,4.736c0,2.742,2.351,3.582,4.902,4.082l6.888,1.227c6.986,1.246,10.386,4.646,10.386,10.392
	c0,5.215-3.753,10.787-14.288,10.787c-8.381,0-14.019-3.445-15.628-9.361l-1.386,0.287c1.756,6.543,8.009,10.492,17.014,10.492
	c9.54,0,15.706-4.791,15.706-12.205C145.96,25.417,142.071,21.451,134.405,20.085 M131.37,28.082l-6.88-1.225
	c-4.289-0.816-9.403-3.199-9.403-9.928c0-6.799,5.318-11.021,13.883-11.021c7.808,0,12.802,3.074,14.356,8.73l1.388-0.287
	c-1.697-6.309-7.279-9.862-15.744-9.862c-9.294,0-15.298,4.884-15.298,12.44c0,6.006,3.748,10.023,10.562,11.32l6.872,1.221
	c3.54,0.709,4.799,1.266,4.799,2.982c0,2.012-2.164,3.26-5.65,3.26c-2.287,0-6.089-0.564-7.483-4.096l-1.396,0.287
	c1.207,3.338,4.369,5.225,8.88,5.225c4.358,0,7.066-1.789,7.066-4.676C137.322,29.272,134.303,28.667,131.37,28.082"/>
</svg>
