<?xml version="1.0" encoding="utf-8"?>
<!-- Generator: Adobe Illustrator 17.0.0, SVG Export Plug-In . SVG Version: 6.00 Build 0)  -->
<!DOCTYPE svg PUBLIC "-//W3C//DTD SVG 1.1//EN" "http://www.w3.org/Graphics/SVG/1.1/DTD/svg11.dtd">
<svg version="1.1" id="Layer_1" xmlns="http://www.w3.org/2000/svg" xmlns:xlink="http://www.w3.org/1999/xlink" x="0px" y="0px"
	 width="489.5px" height="36px" viewBox="0 0 489.5 36" enable-background="new 0 0 489.5 36" xml:space="preserve">
<path fill="#9BD098" d="M45.552,4.178H34.646v27.07h-1.043V3.135h11.949c7.377,0,11.604,3.51,11.604,9.631
	c0,4.305-2.153,7.414-6.085,8.822l6.428,9.66h-1.252l-6.816-10.242l0.677-0.201c3.931-1.162,6.007-3.938,6.007-8.039
	C56.114,7.229,52.364,4.178,45.552,4.178 M50.842,12.809c0,2.953-1.813,4.389-5.548,4.389h-5.205v-8.82h5.205
	C48.975,8.377,50.842,9.867,50.842,12.809 M49.8,12.809c0-1.578-0.514-3.389-4.506-3.389h-4.162v6.734h4.162
	C48.452,16.154,49.8,15.154,49.8,12.809 M50.183,31.248l-6.558-9.85h-3.536v9.85h1.043v-8.807h1.936l5.863,8.807
	C48.931,31.248,50.183,31.248,50.183,31.248z M15.601,20.334h8.792v-1.043h-9.835v11.957h1.043V20.334z M9.114,4.178h19.973V3.135
	H8.071v28.113h1.043V4.178z M24.393,14.049h-8.792V9.42h13.486V8.377H14.558v6.715h9.835V14.049z M84.169,30.205H64.196V4.178
	h19.973V3.135H63.153v28.113h21.016V30.205z M84.169,24.965H70.685v-4.631h8.793v-1.043h-9.836v6.715h14.527V24.965z M79.478,14.049
	h-8.793V9.42h13.484V8.377H69.642v6.715h9.836V14.049z M118.431,3.135h-1.043v28.113h1.043V3.135z M136.265,19.291h-12.39v11.957
	h1.044V20.334h10.303v10.914h1.043V19.291z M142.753,3.135h-1.044v28.113h1.044V3.135z M136.265,3.135h-1.043v10.914h-10.303V3.135
	h-1.044v11.957h12.39V3.135z M103.948,14.1l-5.061-0.9c-2.063-0.404-2.758-0.904-2.758-1.98c0-2.205,2.639-2.443,3.773-2.443
	c1.408,0,3.73,0.355,4.625,2.549l1.033-0.213c-0.79-2.16-2.801-3.379-5.658-3.379c-3.016,0-4.816,1.303-4.816,3.486
	c0,2.021,1.73,2.637,3.609,3.006l5.07,0.902c5.145,0.918,7.646,3.42,7.646,7.652c0,3.84-2.764,7.94-10.521,7.94
	c-6.17,0-10.32-2.537-11.505-6.893l-1.02,0.211c1.293,4.818,5.896,7.725,12.524,7.725c7.024,0,11.563-3.527,11.563-8.983
	C112.456,18.025,109.592,15.105,103.948,14.1 M101.714,19.986l-5.064-0.9c-3.158-0.602-6.922-2.355-6.922-7.309
	c0-5.006,3.915-8.115,10.219-8.115c5.75,0,9.426,2.264,10.57,6.428l1.021-0.211c-1.25-4.645-5.359-7.26-11.592-7.26
	c-6.84,0-11.262,3.596-11.262,9.158c0,4.422,2.76,7.379,7.777,8.334l5.059,0.899c2.607,0.521,3.533,0.933,3.533,2.197
	c0,1.479-1.595,2.397-4.161,2.397c-1.684,0-4.481-0.416-5.509-3.016l-1.028,0.213c0.89,2.455,3.217,3.846,6.537,3.846
	c3.21,0,5.204-1.317,5.204-3.44C106.097,20.865,103.874,20.42,101.714,19.986"/>
<g>
	<g>
		<path fill="#FFFFFF" d="M236.132,13.235c0-0.14,0.112-0.266,0.266-0.266h3.096c1.723,0,3.138,1.401,3.138,3.096
			c0,1.737-1.415,3.151-3.124,3.151h-2.312v3.292c0,0.141-0.126,0.266-0.266,0.266h-0.532c-0.154,0-0.266-0.125-0.266-0.266V13.235z
			 M239.424,18.18c1.148,0,2.129-0.939,2.129-2.144c0-1.134-0.98-2.003-2.129-2.003h-2.228v4.146L239.424,18.18L239.424,18.18z"/>
		<path fill="#FFFFFF" d="M245.246,21.303c0.07-0.084,0.141-0.182,0.21-0.266c0.14-0.182,0.294-0.295,0.489-0.126
			c0.099,0.084,1.121,1.063,2.367,1.063c1.135,0,1.877-0.714,1.877-1.541c0-0.966-0.84-1.539-2.45-2.212
			c-1.541-0.672-2.466-1.303-2.466-2.9c0-0.952,0.756-2.493,2.983-2.493c1.372,0,2.396,0.714,2.396,0.714
			c0.084,0.042,0.252,0.21,0.084,0.476c-0.057,0.084-0.111,0.182-0.168,0.266c-0.127,0.196-0.267,0.252-0.49,0.126
			c-0.098-0.056-0.98-0.645-1.835-0.645c-1.485,0-1.933,0.953-1.933,1.541c0,0.938,0.713,1.484,1.891,1.975
			c1.891,0.77,3.109,1.484,3.109,3.109c0,1.457-1.388,2.521-3.025,2.521c-1.652,0-2.773-0.967-2.955-1.135
			C245.218,21.682,245.078,21.568,245.246,21.303z"/>
		<path fill="#FFFFFF" d="M254.611,13.235c0-0.14,0.127-0.266,0.267-0.266h0.532c0.154,0,0.266,0.126,0.266,0.266v5.841
			c0,1.597,0.995,2.844,2.635,2.844c1.652,0,2.66-1.219,2.66-2.816v-5.869c0-0.14,0.113-0.266,0.268-0.266h0.531
			c0.142,0,0.267,0.126,0.267,0.266v5.925c0,2.129-1.513,3.754-3.726,3.754c-2.199,0-3.699-1.625-3.699-3.754v-5.925H254.611z"/>
		<path fill="#FFFFFF" d="M265.966,21.316c0.448,0,0.798,0.352,0.798,0.799c0,0.435-0.35,0.799-0.798,0.799
			c-0.435,0-0.799-0.364-0.799-0.799C265.167,21.668,265.531,21.316,265.966,21.316z"/>
		<path fill="#FFFFFF" d="M274.354,12.829c1.416,0,2.438,0.49,3.392,1.303c0.11,0.112,0.126,0.28,0.014,0.392
			c-0.126,0.126-0.278,0.266-0.393,0.392c-0.125,0.14-0.209,0.126-0.363-0.014c-0.715-0.63-1.724-1.093-2.662-1.093
			c-2.213,0-3.896,1.849-3.896,4.02c0,2.157,1.683,4.048,3.896,4.048c1.541,0,2.521-0.588,2.521-0.588v-1.961h-1.61
			c-0.153,0-0.267-0.112-0.267-0.252v-0.52c0-0.153,0.113-0.267,0.267-0.267h2.424c0.142,0,0.253,0.127,0.253,0.267v3.209
			c0,0.069-0.057,0.182-0.111,0.225c0,0-1.43,0.924-3.461,0.924c-2.801,0-5.058-2.227-5.058-5.029
			C269.297,15.084,271.553,12.829,274.354,12.829z"/>
		<path fill="#FFFFFF" d="M281.66,13.235c0-0.14,0.111-0.266,0.252-0.266h3.138c2.703,0,4.917,2.199,4.917,4.889
			c0,2.717-2.214,4.916-4.917,4.916h-3.138c-0.141,0-0.252-0.125-0.252-0.266V13.235z M284.825,21.809
			c2.298,0,3.964-1.641,3.964-3.951c0-2.297-1.666-3.936-3.964-3.936h-2.101v7.887H284.825z"/>
		<path fill="#FFFFFF" d="M302.367,12.829c1.416,0,2.438,0.49,3.391,1.303c0.111,0.112,0.126,0.28,0.014,0.392
			c-0.125,0.126-0.278,0.266-0.393,0.392c-0.125,0.14-0.209,0.126-0.363-0.014c-0.715-0.63-1.723-1.093-2.662-1.093
			c-2.213,0-3.895,1.849-3.895,4.02c0,2.157,1.682,4.048,3.895,4.048c1.541,0,2.521-0.588,2.521-0.588v-1.961h-1.611
			c-0.152,0-0.266-0.112-0.266-0.252v-0.52c0-0.153,0.111-0.267,0.266-0.267h2.424c0.142,0,0.252,0.127,0.252,0.267v3.209
			c0,0.069-0.056,0.182-0.11,0.225c0,0-1.431,0.924-3.461,0.924c-2.802,0-5.058-2.227-5.058-5.029
			C297.311,15.084,299.566,12.829,302.367,12.829z"/>
		<path fill="#FFFFFF" d="M309.674,13.235c0-0.14,0.111-0.266,0.266-0.266h3.629c1.681,0,3.054,1.316,3.054,2.983
			c0,1.289-0.854,2.367-2.073,2.856l1.919,3.559c0.099,0.183,0,0.406-0.237,0.406h-0.715c-0.125,0-0.195-0.069-0.224-0.125
			l-1.862-3.713h-2.677v3.571c0,0.142-0.126,0.267-0.267,0.267h-0.547c-0.153,0-0.266-0.125-0.266-0.267V13.235z M313.498,18.012
			c1.078,0,2.018-0.897,2.018-2.045c0-1.064-0.938-1.975-2.018-1.975h-2.719v4.021L313.498,18.012L313.498,18.012z"/>
		<path fill="#FFFFFF" d="M318.982,22.41l4.258-9.428c0.043-0.084,0.113-0.154,0.238-0.154h0.141c0.126,0,0.195,0.07,0.238,0.154
			l4.229,9.428c0.084,0.182-0.028,0.363-0.237,0.363h-0.562c-0.126,0-0.21-0.084-0.238-0.154l-1.036-2.311h-4.974l-1.021,2.311
			c-0.028,0.07-0.112,0.154-0.238,0.154h-0.561C319.011,22.773,318.898,22.592,318.982,22.41z M325.637,19.439
			c-0.688-1.526-1.359-3.067-2.046-4.595h-0.112l-2.045,4.595H325.637z"/>
		<path fill="#FFFFFF" d="M331.01,13.235c0-0.14,0.111-0.266,0.252-0.266h3.139c2.703,0,4.916,2.199,4.916,4.889
			c0,2.717-2.213,4.916-4.916,4.916h-3.139c-0.141,0-0.252-0.125-0.252-0.266V13.235z M334.175,21.809
			c2.298,0,3.964-1.641,3.964-3.951c0-2.297-1.666-3.936-3.964-3.936h-2.101v7.887H334.175z"/>
		<path fill="#FFFFFF" d="M342.741,13.235c0-0.14,0.126-0.266,0.267-0.266h0.531c0.154,0,0.268,0.126,0.268,0.266v5.841
			c0,1.597,0.994,2.844,2.633,2.844c1.652,0,2.662-1.219,2.662-2.816v-5.869c0-0.14,0.111-0.266,0.267-0.266h0.53
			c0.142,0,0.268,0.126,0.268,0.266v5.925c0,2.129-1.514,3.754-3.727,3.754c-2.198,0-3.697-1.625-3.697-3.754L342.741,13.235
			L342.741,13.235z"/>
		<path fill="#FFFFFF" d="M352.848,22.41l4.26-9.428c0.041-0.084,0.111-0.154,0.238-0.154h0.139c0.127,0,0.197,0.07,0.238,0.154
			l4.23,9.428c0.084,0.182-0.027,0.363-0.238,0.363h-0.561c-0.125,0-0.211-0.084-0.238-0.154l-1.036-2.311h-4.973l-1.022,2.311
			c-0.027,0.07-0.111,0.154-0.238,0.154h-0.561C352.876,22.773,352.764,22.592,352.848,22.41z M359.502,19.439
			c-0.688-1.526-1.359-3.067-2.045-4.595h-0.111l-2.047,4.595H359.502z"/>
		<path fill="#FFFFFF" d="M365.716,13.907h-2.437c-0.154,0-0.268-0.126-0.268-0.266v-0.406c0-0.14,0.112-0.266,0.268-0.266h5.938
			c0.154,0,0.268,0.126,0.268,0.266v0.406c0,0.14-0.112,0.266-0.268,0.266h-2.438v8.601c0,0.141-0.127,0.266-0.268,0.266h-0.531
			c-0.141,0-0.267-0.125-0.267-0.266v-8.601H365.716z"/>
		<path fill="#FFFFFF" d="M372.421,13.235c0-0.14,0.112-0.266,0.267-0.266h5.52c0.154,0,0.268,0.126,0.268,0.266v0.406
			c0,0.14-0.113,0.266-0.268,0.266H373.5v3.418h4.02c0.142,0,0.267,0.126,0.267,0.266v0.406c0,0.154-0.125,0.266-0.267,0.266h-4.02
			v3.572h4.706c0.153,0,0.267,0.125,0.267,0.267v0.405c0,0.142-0.111,0.267-0.267,0.267h-5.519c-0.154,0-0.268-0.125-0.268-0.267
			L372.421,13.235L372.421,13.235z"/>
		<path fill="#FFFFFF" d="M385.986,21.303c0.07-0.084,0.141-0.182,0.209-0.266c0.141-0.182,0.295-0.295,0.492-0.126
			c0.098,0.084,1.119,1.063,2.367,1.063c1.133,0,1.877-0.714,1.877-1.541c0-0.966-0.842-1.539-2.451-2.212
			c-1.541-0.672-2.467-1.303-2.467-2.9c0-0.952,0.758-2.493,2.983-2.493c1.373,0,2.396,0.714,2.396,0.714
			c0.084,0.042,0.252,0.21,0.084,0.476c-0.056,0.084-0.111,0.182-0.168,0.266c-0.125,0.196-0.267,0.252-0.49,0.126
			c-0.098-0.056-0.98-0.645-1.834-0.645c-1.485,0-1.935,0.953-1.935,1.541c0,0.938,0.716,1.484,1.892,1.975
			c1.892,0.77,3.109,1.484,3.109,3.109c0,1.457-1.387,2.521-3.025,2.521c-1.652,0-2.773-0.967-2.955-1.135
			C385.959,21.682,385.818,21.568,385.986,21.303z"/>
		<path fill="#FFFFFF" d="M395.479,13.235c0-0.14,0.127-0.266,0.267-0.266h0.547c0.154,0,0.266,0.126,0.266,0.266v4.09h5.688v-4.09
			c0-0.14,0.112-0.266,0.266-0.266h0.547c0.142,0,0.267,0.126,0.267,0.266v9.273c0,0.141-0.125,0.266-0.267,0.266h-0.547
			c-0.152,0-0.266-0.125-0.266-0.266v-4.244h-5.688v4.244c0,0.141-0.11,0.266-0.266,0.266h-0.547c-0.14,0-0.267-0.125-0.267-0.266
			V13.235z"/>
		<path fill="#FFFFFF" d="M411.889,12.829c2.803,0,5.043,2.255,5.043,5.057s-2.24,5.029-5.043,5.029
			c-2.801,0-5.027-2.228-5.027-5.029C406.86,15.084,409.088,12.829,411.889,12.829z M411.889,21.934c2.229,0,4.062-1.82,4.062-4.048
			c0-2.227-1.835-4.076-4.062-4.076c-2.227,0-4.048,1.849-4.048,4.076S409.662,21.934,411.889,21.934z"/>
		<path fill="#FFFFFF" d="M419.502,13.305c-0.056-0.196,0.057-0.336,0.252-0.336h0.589c0.112,0,0.225,0.098,0.252,0.196l1.947,7.255
			h0.056l2.341-7.438c0.026-0.084,0.11-0.154,0.237-0.154h0.252c0.111,0,0.21,0.07,0.238,0.154l2.381,7.438h0.058l1.903-7.255
			c0.027-0.098,0.142-0.196,0.252-0.196h0.588c0.197,0,0.31,0.14,0.254,0.336l-2.647,9.413c-0.028,0.112-0.141,0.196-0.252,0.196
			h-0.226c-0.098,0-0.194-0.07-0.237-0.154l-2.423-7.578h-0.07l-2.382,7.578c-0.041,0.084-0.14,0.154-0.237,0.154h-0.224
			c-0.113,0-0.226-0.084-0.253-0.196L419.502,13.305z"/>
		<path fill="#FFFFFF" d="M438.727,12.829c1.415,0,2.438,0.49,3.392,1.303c0.11,0.112,0.125,0.28,0.014,0.392l-0.379,0.378
			c-0.111,0.14-0.224,0.126-0.363-0.014c-0.729-0.63-1.724-1.051-2.676-1.051c-2.213,0-3.908,1.863-3.908,4.034
			c0,2.156,1.695,4.021,3.908,4.021c1.219,0,1.934-0.49,2.676-1.052c0.141-0.112,0.252-0.099,0.336-0.042l0.421,0.379
			c0.111,0.084,0.084,0.279-0.015,0.377c-0.953,0.926-2.158,1.359-3.404,1.359c-2.801,0-5.057-2.227-5.057-5.029
			C433.67,15.084,435.926,12.829,438.727,12.829z"/>
		<path fill="#FFFFFF" d="M444.338,22.41l4.258-9.428c0.042-0.084,0.112-0.154,0.238-0.154h0.141c0.125,0,0.195,0.07,0.237,0.154
			l4.23,9.428c0.084,0.182-0.028,0.363-0.238,0.363h-0.561c-0.127,0-0.211-0.084-0.237-0.154l-1.037-2.311h-4.973l-1.022,2.311
			c-0.028,0.07-0.112,0.154-0.238,0.154h-0.56C444.365,22.773,444.254,22.592,444.338,22.41z M450.991,19.439
			c-0.688-1.526-1.358-3.067-2.046-4.595h-0.111l-2.045,4.595H450.991z"/>
		<path fill="#FFFFFF" d="M455.734,21.303c0.069-0.084,0.14-0.182,0.21-0.266c0.14-0.182,0.294-0.295,0.489-0.126
			c0.099,0.084,1.12,1.063,2.367,1.063c1.134,0,1.877-0.714,1.877-1.541c0-0.966-0.841-1.539-2.451-2.212
			c-1.541-0.672-2.466-1.303-2.466-2.9c0-0.952,0.757-2.493,2.984-2.493c1.372,0,2.395,0.714,2.395,0.714
			c0.084,0.042,0.252,0.21,0.084,0.476c-0.056,0.084-0.11,0.182-0.168,0.266c-0.126,0.196-0.266,0.252-0.489,0.126
			c-0.099-0.056-0.98-0.645-1.835-0.645c-1.485,0-1.934,0.953-1.934,1.541c0,0.938,0.714,1.484,1.892,1.975
			c1.891,0.77,3.108,1.484,3.108,3.109c0,1.457-1.387,2.521-3.024,2.521c-1.652,0-2.773-0.967-2.955-1.135
			C455.706,21.682,455.566,21.568,455.734,21.303z"/>
		<path fill="#FFFFFF" d="M465.227,13.235c0-0.14,0.111-0.266,0.267-0.266h5.52c0.154,0,0.267,0.126,0.267,0.266v0.406
			c0,0.14-0.111,0.266-0.267,0.266h-4.707v3.418h4.021c0.141,0,0.267,0.126,0.267,0.266v0.406c0,0.154-0.126,0.266-0.267,0.266
			h-4.021v3.572h4.707c0.154,0,0.267,0.125,0.267,0.267v0.405c0,0.142-0.111,0.267-0.267,0.267h-5.52
			c-0.154,0-0.267-0.125-0.267-0.267V13.235z"/>
	</g>
</g>
<g>
	<polygon fill="#FFFFFF" points="212.191,13.484 208.022,9.314 203.853,13.484 	"/>
	<polygon fill="#FFFFFF" points="212.519,22.152 216.688,17.982 212.521,13.813 	"/>
	<polygon fill="#FFFFFF" points="203.853,22.48 208.022,26.65 212.191,22.48 	"/>
	<polygon fill="#FFFFFF" points="203.523,13.814 199.355,17.982 203.524,22.15 	"/>
</g>
</svg>
