<?xml version="1.0" encoding="utf-8"?>
<!-- Generator: Adobe Illustrator 17.0.0, SVG Export Plug-In . SVG Version: 6.00 Build 0)  -->
<!DOCTYPE svg PUBLIC "-//W3C//DTD SVG 1.1//EN" "http://www.w3.org/Graphics/SVG/1.1/DTD/svg11.dtd">
<svg version="1.1" id="Layer_1" xmlns="http://www.w3.org/2000/svg" xmlns:xlink="http://www.w3.org/1999/xlink" x="0px" y="0px"
	 width="461.601px" height="106.4px" viewBox="0 0 461.601 106.4" enable-background="new 0 0 461.601 106.4" xml:space="preserve">
<path fill="#9BD098" d="M131.947,9.664H95.33v90.872h-3.502V6.163h40.119c24.762,0,38.963,11.782,38.963,32.328
	c0,14.455-7.234,24.891-20.438,29.614l21.584,32.431h-4.205l-22.887-34.385l2.275-0.675c13.197-3.896,20.166-13.224,20.166-26.985
	C167.406,19.902,154.814,9.664,131.947,9.664 M149.707,38.639c0,9.913-6.092,14.732-18.627,14.732h-17.471V23.76h17.471
	C143.441,23.76,149.707,28.765,149.707,38.639 M146.207,38.639c0-5.299-1.723-11.376-15.127-11.376h-13.971V49.87h13.971
	C141.682,49.87,146.207,46.514,146.207,38.639 M147.494,100.536l-22.01-33.066h-11.875v33.066h3.5V70.968h6.5l19.68,29.568H147.494z
	 M31.398,63.899h29.52v-3.498h-33.02v40.135h3.5C31.398,100.536,31.398,63.899,31.398,63.899z M9.619,9.664h67.053V6.163H6.119
	v94.373h3.5C9.619,100.536,9.619,9.664,9.619,9.664z M60.918,42.802h-29.52V27.263h45.273V23.76H27.898v22.544h33.02V42.802z
	 M261.589,97.034h-67.052V9.664h67.052V6.163h-70.552v94.373h70.552V97.034z M261.589,79.438h-45.271V63.899h29.519v-3.498h-33.021
	v22.535h48.772v-3.498H261.589z M245.835,42.802h-29.518V27.263h45.271V23.76h-48.773v22.544h33.02L245.835,42.802L245.835,42.802z
	 M376.605,6.163h-3.5v94.373h3.5V6.163z M436.476,60.401h-41.589v40.135h3.501V63.899h34.588v36.637h3.5L436.476,60.401
	L436.476,60.401z M458.259,6.163h-3.502v94.373h3.502V6.163z M436.476,6.163h-3.5v36.639h-34.588V6.163h-3.502v40.142h41.59
	L436.476,6.163L436.476,6.163z M327.988,42.974l-16.99-3.027c-6.924-1.354-9.258-3.031-9.258-6.646
	c0-7.401,8.861-8.202,12.672-8.202c4.726,0,12.523,1.192,15.523,8.557l3.469-0.714c-2.65-7.253-9.404-11.344-18.992-11.344
	c-10.127,0-16.174,4.374-16.174,11.703c0,6.779,5.811,8.853,12.117,10.089l17.021,3.031c17.271,3.079,25.67,11.481,25.67,25.682
	c0,12.89-9.277,26.662-35.314,26.662c-20.713,0-34.646-8.518-38.623-23.14l-3.426,0.708c4.34,16.176,19.795,25.934,42.049,25.934
	c23.578,0,38.816-11.843,38.816-30.164C356.548,56.152,346.938,46.35,327.988,42.974 M320.486,62.735l-16.998-3.025
	c-10.604-2.017-23.242-7.903-23.242-24.533c0-16.806,13.146-27.243,34.31-27.243c19.301,0,31.641,7.6,35.483,21.579l3.428-0.708
	c-4.194-15.593-17.989-24.373-38.911-24.373c-22.966,0-37.808,12.067-37.808,30.745c0,14.843,9.262,24.771,26.107,27.976
	l16.982,3.02c8.752,1.751,11.861,3.127,11.861,7.373c0,4.972-5.353,8.057-13.968,8.057c-5.651,0-15.049-1.397-18.494-10.124
	l-3.45,0.711c2.981,8.246,10.799,12.914,21.944,12.914c10.772,0,17.468-4.427,17.468-11.558
	C335.199,65.68,327.738,64.185,320.486,62.735"/>
</svg>
